<?xml version="1.0" encoding="utf-8"?>
<!-- Generator: Adobe Illustrator 21.0.2, SVG Export Plug-In . SVG Version: 6.00 Build 0)  -->
<svg version="1.1" id="Layer_1" xmlns="http://www.w3.org/2000/svg" xmlns:xlink="http://www.w3.org/1999/xlink" x="0px" y="0px"
	 viewBox="0 0 512 512" style="enable-background:new 0 0 512 512;" xml:space="preserve">
<style type="text/css">
	.st0{fill:#472700;}
	.st1{fill:#716558;}
	.st2{fill:#5A4A42;}
	.st3{fill:#FFF8AF;}
	.st4{fill:#FBBC8C;}
	.st5{fill:#F8A168;}
	.st6{fill:#FFFFFF;}
</style>
<g>
	<path class="st0" d="M349.6,366.1c-0.5,0-1,0-1.6-0.1c0,0-0.1,0-0.1,0c-0.6-0.1-1.1-0.2-1.8-0.3c-0.2,0-0.3-0.1-0.5-0.1
		c-0.7-0.1-1.3-0.3-2.1-0.5c-0.1,0-0.2-0.1-0.2-0.1c-0.7-0.2-1.4-0.4-2.1-0.7c-0.2-0.1-0.3-0.1-0.5-0.2c-0.8-0.3-1.6-0.6-2.4-0.9
		c-0.1,0-0.2-0.1-0.3-0.1c-0.8-0.3-1.6-0.6-2.4-0.9c-0.1-0.1-0.3-0.1-0.4-0.2c-0.9-0.4-1.8-0.8-2.7-1.1c0,0-0.1,0-0.1,0c0,0,0,0,0,0
		c-12.9-5.7-27.5-13.9-31.7-13.6c-6.7,0.6-10.7,25.8-48.9,23c-1.1-0.1-2.1-0.2-3.1-0.3c-0.3,0-0.6-0.1-0.9-0.1
		c-0.7-0.1-1.4-0.1-2.1-0.2c-0.3,0-0.6-0.1-0.9-0.1c-0.8-0.1-1.7-0.2-2.5-0.3c0,0,0,0,0,0c-29.3-4-32.4-14.8-35.5-15.3
		c-10.1-1.7-31,9-46.9,9.9c-6,10-27,49.9-6,81.1c0,0,24.2,5.8,46.7,6.7l5.8-23.4l4.2,23.4c0,0,43.4,5.8,72.6,0.8l0.8-37.5l7.5,37.5
		c0,0,10-0.8,15-1.7l-0.8-31.7l8.3,31.7c0,0,29.2-2.5,43.4-9.2c0,0,6.6-43.7-7.1-75.7c-0.2,0-0.4,0-0.6,0.1
		C349.8,366.1,349.7,366.1,349.6,366.1z M164.8,439.2c0,0-18.4-42.6,10-66.8C174.8,372.4,161.5,413.3,164.8,439.2z"/>
	<path class="st0" d="M479,124.7c-0.1-0.9-0.3-1.7-0.5-2.4c3.2,1.1,5.4,2.3,6.2,3.4c0.7,1,1.3,2.4,1.7,4.2
		c15.6-7.8,27.8-24.1,25.2-43.4c-3.4-25.3-25.3-29.5-25.3-29.5c8.4,2.5,13.5,16,13.5,16c-10.1-16-41.3-12.6-41.3-12.6
		s38.8,5.9,29.5,24.4c-9.3,18.5-50.6-11.8-80-21.9c-29.5-10.1-68.2,13.5-68.2,13.5c6.7-10.1,28.6-20.2,28.6-20.2
		c-63.2,7.6-62.3,47.2-62.3,47.2c-3.4-5.9,3.4-21.9,3.4-21.9c-15.1,18.5-9,30.3-3.2,36.1C347.1,106.6,451.3,115.2,479,124.7z
		 M439.2,85.6c-37.9-17.7-91.8-4.2-91.8-4.2C393.7,56.9,439.2,85.6,439.2,85.6z"/>
	<path class="st0" d="M23.9,129c0.1-0.3,0.3-0.5,0.4-0.7c7.7-10.7,136.6-23.3,181-10.3c5.9-5.6,12.8-17.6-2.7-36.6
		c0,0,6.7,16,3.4,21.9c0,0,0.8-39.6-62.3-47.2c0,0,21.9,10.1,28.6,20.2c0,0-38.8-23.6-68.2-13.5c-29.5,10.1-70.8,40.4-80,21.9
		c-9.3-18.5,29.5-24.4,29.5-24.4S22.3,56.9,12.1,73c0,0,5.1-13.5,13.5-16c0,0-21.9,4.2-25.3,29.5C-2.1,105,9.1,120.9,23.9,129z
		 M16.4,88.1c3.1,9.1,15.8,24.2,67.2-9.3C83.6,78.9,27.8,133.1,16.4,88.1c-1-2.8-1-5-1-5C15.7,84.9,16,86.5,16.4,88.1z"/>
	<path class="st1" d="M465.6,233.5c-16.3,32.6-54.5,47.2-85.4,47.2c-20.7,0-51.5-5.6-72.6-19.5c0,0.3,0.1,0.5,0.1,0.8
		c0.1,0.4,0.1,0.9,0.2,1.3c21.1,14.3,52.3,19.9,73.2,19.9c30.9,0,69.1-14.6,85.4-47.2c15.6-31.3,26.6-90.9,20-106.1
		C491.1,148.4,480.5,203.8,465.6,233.5z"/>
	<path class="st1" d="M286.2,171.8c4.3,7,7.6,15.8,10.4,25.4c0.8,2.9,1.6,5.8,2.3,8.9c0.2,1,0.5,2,0.7,3c-3.5-29.9-2-68.2,5.7-74.9
		c4-3.5,14.8-5.4,29.1-6.2c1.9-0.1,3.9-0.2,5.9-0.3c2-0.1,4.1-0.1,6.2-0.1c2.1,0,4.3,0,6.5,0c2.2,0,4.4,0,6.7,0.1s4.6,0.1,6.9,0.2
		c1.2,0,2.3,0.1,3.5,0.1c2.3,0.1,4.7,0.2,7,0.3c2.4,0.1,4.7,0.3,7.1,0.4c2.4,0.2,4.7,0.3,7.1,0.5c2.4,0.2,4.7,0.4,7.1,0.6
		c1.2,0.1,2.3,0.2,3.5,0.3c2.3,0.2,4.6,0.5,6.9,0.7c1.3,0.1,2.5,0.3,3.8,0.4c2,0.2,4,0.5,5.9,0.7c1.2,0.2,2.4,0.3,3.6,0.5
		c2,0.3,3.9,0.6,5.8,0.9c2.2,0.3,4.4,0.7,6.5,1.1c3.9,0.7,7.6,1.4,10.9,2.1c12.6,2.8,21.1,6,22.2,9.3c0.1,0.4,0.2,0.8,0.3,1.3
		c0,0.1,0,0.2,0.1,0.3c0,0,0,0,0,0.1c0,0,0,0,0,0c2.7,17.7-14.3,89.2-42.8,107c-26.6,16.6-90.1,7.3-111.3-7.3c0,0,0,0,0,0
		c0,0-0.1-0.1-0.1-0.1c-0.3-0.2-0.6-0.4-0.8-0.6c-0.4-0.3-0.7-0.5-1-0.8c-0.2-0.2-0.5-0.4-0.7-0.6c-0.3-0.3-0.7-0.6-1-0.9
		c-0.2-0.2-0.3-0.3-0.5-0.5c-0.4-0.5-0.9-1-1.2-1.5c-1.8-2.5-3.3-6.3-4.7-11c0.1,0.8,0.2,1.6,0.4,2.3c0.3,2,0.6,4,0.9,6
		c0.9,6.5,1.7,12.8,2.4,18.6c20.4,10.7,46.7,15.1,65.1,15.1c30.9,0,69.1-14.6,85.4-47.2c14.3-28.7,24.8-81.3,21.3-101.5
		c-27.7-9.5-131.9-18.1-172.8-7.2c-5.2,1.4-9.4,3.1-12.2,5.1c-4.8,3.5-8.4,14.4-10.6,28.6c-0.7,4.5-1.3,9.4-1.7,14.4
		C283.3,167.5,284.8,169.5,286.2,171.8z M297.8,127.5c0,0-6.6,22.6-8.3,37.8C289.5,165.3,284.6,138.7,297.8,127.5z"/>
	<path class="st2" d="M478.5,122.3c0.2,0.7,0.4,1.6,0.5,2.4c3.5,20.2-6.9,72.8-21.3,101.5c-16.3,32.6-54.5,47.2-85.4,47.2
		c-18.4,0-44.6-4.4-65.1-15.1c0.1,1,0.2,1.9,0.3,2.9c21.1,14,51.9,19.5,72.6,19.5c30.9,0,69.1-14.6,85.4-47.2
		c14.9-29.7,25.5-85.2,20.9-103.6c0,0,0-0.1,0-0.1c-0.4-1.7-1-3.1-1.7-4.2C483.9,124.6,481.7,123.4,478.5,122.3z"/>
	<path class="st3" d="M408.7,130.9c1.3,0.1,2.5,0.3,3.8,0.4C411.3,131.2,410,131,408.7,130.9z"/>
	<path class="st3" d="M391.2,129.2c2.4,0.2,4.7,0.4,7.1,0.6C396,129.6,393.6,129.4,391.2,129.2z"/>
	<path class="st3" d="M311.8,245.8c-0.2-0.2-0.5-0.4-0.7-0.6C311.3,245.4,311.5,245.6,311.8,245.8z"/>
	<path class="st3" d="M370,127.9c2.3,0.1,4.7,0.2,7,0.3C374.7,128.1,372.3,128,370,127.9z"/>
	<path class="st3" d="M313.7,247.2c-0.3-0.2-0.6-0.4-0.8-0.6C313.1,246.8,313.4,247,313.7,247.2z"/>
	<path class="st3" d="M311.5,140.4c-11.3,9.7-9.3,87.4,2.3,106.9c21.3,14.6,84.8,23.9,111.3,7.3c28.5-17.8,45.5-89.4,42.8-107
		C440.5,135.6,326.8,127.2,311.5,140.4z M321.2,160.6c-5.1,5.1-5.9,42.1-5.9,42.1c-2.5-14.3-2.5-43.8,4.2-49.7
		c6.7-5.9,36.2-7.6,36.2-7.6S326.3,155.5,321.2,160.6z"/>
	<path class="st3" d="M427.9,133.4c2.2,0.3,4.4,0.7,6.5,1.1C432.3,134.1,430.1,133.7,427.9,133.4z"/>
	<path class="st3" d="M418.5,132c1.2,0.2,2.4,0.3,3.6,0.5C420.9,132.4,419.7,132.2,418.5,132z"/>
	<path class="st3" d="M467.8,147.2c0,0.1,0,0.2,0.1,0.3C467.8,147.4,467.8,147.3,467.8,147.2z"/>
	<path class="st3" d="M310.1,244.3c-0.2-0.2-0.3-0.3-0.5-0.5C309.7,244,309.9,244.1,310.1,244.3z"/>
	<path class="st3" d="M352.9,127.5c2.2,0,4.4,0,6.7,0.1C357.4,127.6,355.1,127.5,352.9,127.5z"/>
	<path class="st3" d="M359.6,127.6c2.3,0,4.6,0.1,6.9,0.2C364.2,127.7,361.9,127.7,359.6,127.6z"/>
	<path class="st2" d="M300.9,215.2c0.4,2,0.8,4.1,1.2,6.2c0.2,1,0.4,2.1,0.5,3.1c0.4,2.1,0.7,4.1,1,6.2c0,0.2,0.1,0.5,0.1,0.7
		c1.3,4.7,2.9,8.5,4.7,11c0.3,0.5,0.8,1,1.2,1.5c0.2,0.2,0.3,0.3,0.5,0.5c0.3,0.3,0.6,0.6,1,0.9c0.2,0.2,0.5,0.4,0.7,0.6
		c0.3,0.3,0.7,0.5,1,0.8c0.3,0.2,0.5,0.4,0.8,0.6c0,0,0.1,0.1,0.1,0.1c0,0,0,0,0,0c-11.6-19.5-13.6-97.2-2.3-106.9
		c15.4-13.2,129-4.8,156.4,7.2c0,0,0,0,0,0c0,0,0,0,0-0.1c0-0.1,0-0.2-0.1-0.3c-0.1-0.5-0.2-0.9-0.3-1.3c-1-3.3-9.5-6.5-22.2-9.3
		c-3.4-0.7-7-1.5-10.9-2.1c-2.1-0.4-4.3-0.7-6.5-1.1c-1.9-0.3-3.9-0.6-5.8-0.9c-1.2-0.2-2.4-0.3-3.6-0.5c-2-0.3-3.9-0.5-5.9-0.7
		c-1.2-0.1-2.5-0.3-3.8-0.4c-2.3-0.3-4.6-0.5-6.9-0.7c-1.2-0.1-2.3-0.2-3.5-0.3c-2.3-0.2-4.7-0.4-7.1-0.6c-2.4-0.2-4.7-0.4-7.1-0.5
		c-2.4-0.2-4.7-0.3-7.1-0.4c-2.4-0.1-4.7-0.2-7-0.3c-1.2,0-2.3-0.1-3.5-0.1c-2.3-0.1-4.6-0.1-6.9-0.2s-4.5-0.1-6.7-0.1
		c-2.2,0-4.4,0-6.5,0c-2.1,0-4.2,0.1-6.2,0.1c-2,0.1-4,0.2-5.9,0.3c-14.3,0.8-25.1,2.8-29.1,6.2c-7.7,6.6-9.2,45-5.7,74.9
		c0.2,1,0.5,2.1,0.7,3.1C300.5,213.2,300.7,214.2,300.9,215.2z"/>
	<path class="st1" d="M105.3,280.6c-1.4-0.3-2.8-0.7-4.2-1C102.5,279.9,103.9,280.3,105.3,280.6z"/>
	<path class="st1" d="M128.8,283.3c-1.3,0-2.7,0-4-0.1C126.1,283.2,127.5,283.3,128.8,283.3z"/>
	<path class="st1" d="M100.3,279.4c-1.3-0.3-2.6-0.7-3.8-1.1C97.8,278.6,99.1,279,100.3,279.4z"/>
	<path class="st1" d="M64.9,262c-1.2-0.9-2.4-1.9-3.6-2.9C62.5,260.1,63.7,261.1,64.9,262z"/>
	<path class="st1" d="M95.9,278.1c-1.4-0.4-2.8-0.9-4.2-1.4C93.1,277.1,94.5,277.6,95.9,278.1z"/>
	<path class="st1" d="M109.8,281.5c-1.3-0.2-2.5-0.5-3.8-0.7C107.3,281,108.6,281.3,109.8,281.5z"/>
	<path class="st1" d="M69.2,265.1c-1.2-0.9-2.5-1.8-3.7-2.7C66.7,263.4,67.9,264.3,69.2,265.1z"/>
	<path class="st1" d="M212.6,120.7c0.5,0.2,0.9,0.5,1.4,0.7C213.6,121.2,213.1,120.9,212.6,120.7z"/>
	<path class="st1" d="M114.6,282.3c-1.4-0.2-2.8-0.4-4.1-0.6C111.9,281.9,113.2,282.1,114.6,282.3z"/>
	<path class="st1" d="M91,276.4c-1.3-0.5-2.7-1-4-1.6C88.3,275.3,89.6,275.9,91,276.4z"/>
	<path class="st1" d="M73.1,267.7c-1.3-0.8-2.6-1.6-3.9-2.5C70.5,266.1,71.8,266.9,73.1,267.7z"/>
	<path class="st1" d="M119.3,282.8c-1.3-0.1-2.5-0.3-3.8-0.4C116.8,282.6,118.1,282.7,119.3,282.8z"/>
	<path class="st1" d="M86.7,274.7c-1.4-0.6-2.8-1.2-4.2-1.9C84,273.5,85.3,274.1,86.7,274.7z"/>
	<path class="st1" d="M123.8,283.1c-1.3-0.1-2.7-0.2-4.1-0.3C121.1,283,122.5,283.1,123.8,283.1z"/>
	<path class="st1" d="M81.8,272.5c-2.7-1.3-5.4-2.8-8.1-4.4C76.4,269.7,79.1,271.1,81.8,272.5z"/>
	<path class="st1" d="M214.4,121.6c0.5,0.3,1,0.6,1.5,1C215.4,122.3,214.9,121.9,214.4,121.6z"/>
	<path class="st1" d="M61.1,258.8c-1.1-1-2.1-1.9-3.2-3C58.9,256.9,60,257.9,61.1,258.8z"/>
	<path class="st1" d="M24.3,128.2c-0.2,0.2-0.3,0.5-0.4,0.7c-7.6,13.4,3.5,75.1,19.5,107.1c3.7,7.4,8.6,13.9,14.2,19.5
		c18.6,14.8,43.2,21.7,64.4,21.7c24.6,0,63.3-7.8,83.2-28.3c3.2-19,8.1-42.2,16.7-60.7c0.8-27.4-2.6-56.1-9.5-67.7
		c-2.1-1-4.5-1.9-7.3-2.7C160.9,104.9,32,117.5,24.3,128.2z M30,133.3c0,0,9,64.9,16.4,91.6C46.3,224.8,21,171.5,30,133.3z
		 M201.5,242.3c-12.1,16.9-84.5,30.2-115,13.3c0,0,0.1,0.1,0.1,0.1c-0.6-0.3-1.2-0.7-1.8-1c-11.1-6.9-20.4-21.9-27.5-38.8
		c-1.2-2.8-2.3-5.7-3.4-8.5c-3.2-8.6-5.8-17.5-7.8-25.7c-1-4.1-1.8-8.1-2.5-11.8c-1.3-7.4-2-13.8-1.9-18.5c0-2.3,0.2-4.2,0.6-5.5
		c1-3.3,9.5-6.5,22.2-9.3c5.1-1.1,10.8-2.2,17-3.1c2.1-0.3,4.2-0.6,6.3-0.9c1.1-0.1,2.2-0.3,3.3-0.4c2.2-0.3,4.4-0.6,6.7-0.8
		c1.1-0.1,2.3-0.3,3.4-0.4c2.2-0.2,4.4-0.5,6.6-0.7c2.4-0.2,4.9-0.5,7.4-0.7c3.5-0.3,7.1-0.6,10.7-0.8c2.3-0.2,4.6-0.3,6.9-0.4
		c1.2-0.1,2.5-0.1,3.7-0.2c2.3-0.1,4.7-0.2,7-0.3c5.8-0.2,11.4-0.3,16.8-0.3c10.8,0,20.5,0.6,28.3,1.6c0.8,0.1,1.5,0.2,2.3,0.3
		c2.9,0.5,5.5,1,7.7,1.7c2.7,0.8,4.8,1.8,6.2,3c0.2,0.2,0.5,0.4,0.7,0.7c0,0,0.1,0.1,0.1,0.1c0.2,0.3,0.4,0.5,0.6,0.8c0,0,0,0,0,0
		l0,0C215.9,151,213.2,225.9,201.5,242.3z"/>
	<path class="st2" d="M122,277.3c-21.2,0-45.8-6.9-64.4-21.7c0,0,0,0-0.1,0c0.1,0.1,0.2,0.2,0.3,0.3c1,1,2.1,2,3.2,3
		c0.1,0.1,0.2,0.2,0.3,0.3c1.2,1,2.3,2,3.6,2.9c0.2,0.2,0.4,0.3,0.6,0.4c1.2,0.9,2.4,1.8,3.7,2.7c0,0,0,0,0.1,0
		c1.3,0.9,2.6,1.7,3.9,2.5c0.2,0.1,0.5,0.3,0.7,0.4c2.6,1.6,5.3,3,8.1,4.4c0.2,0.1,0.5,0.2,0.7,0.4c1.4,0.6,2.8,1.3,4.2,1.9
		c0.1,0,0.1,0.1,0.2,0.1c1.3,0.6,2.7,1.1,4,1.6c0.3,0.1,0.5,0.2,0.8,0.3c1.4,0.5,2.8,1,4.2,1.4c0.2,0.1,0.4,0.1,0.6,0.2
		c1.3,0.4,2.6,0.8,3.8,1.1c0.2,0.1,0.5,0.1,0.7,0.2c1.4,0.4,2.8,0.7,4.2,1c0.3,0.1,0.5,0.1,0.8,0.2c1.3,0.3,2.5,0.5,3.8,0.7
		c0.2,0,0.4,0.1,0.6,0.1c1.4,0.2,2.8,0.5,4.1,0.6c0.3,0,0.6,0.1,0.9,0.1c1.3,0.2,2.5,0.3,3.8,0.4c0.1,0,0.3,0,0.4,0
		c1.4,0.1,2.7,0.2,4.1,0.3c0.3,0,0.6,0,0.9,0c1.4,0.1,2.7,0.1,4,0.1c2.9,0,6-0.1,9.2-0.3c5.4-0.4,11.2-1.1,17.1-2.1
		c5.9-1.1,12-2.5,18-4.3c3.6-1.1,7.1-2.3,10.6-3.7c1.2-0.5,2.3-0.9,3.4-1.4c5.7-2.5,11-5.4,15.8-8.7c0,0,0.1,0,0.1-0.1
		c0.7-4.2,1.4-8.7,2.2-13.5C185.4,269.4,146.6,277.3,122,277.3z"/>
	<path class="st2" d="M222,188.3c7.9-16.8,19-29.8,35.1-32.2c0,0,0,0,0,0c0.1,0,0.1,0,0.2,0c0.7-0.1,1.4-0.2,2.1-0.2
		c0.2,0,0.4,0,0.6-0.1c0.9-0.1,1.8-0.1,2.7-0.1c2.1,0,4.2,0.3,6.1,0.8c1.9,0.5,3.8,1.4,5.5,2.4c0.6,0.3,1.2,0.7,1.7,1.1
		c1.7,1.2,3.3,2.6,4.8,4.2c0.4,0.4,0.7,0.8,1.1,1.3c0.4-5.1,1-9.9,1.7-14.4c-22.4-4.8-44.6,0.6-56.4,4.5c-2.1-16.3-5.9-29.2-11.2-33
		c-0.5-0.3-1-0.7-1.5-1c-0.1-0.1-0.2-0.1-0.3-0.2c-0.4-0.3-0.9-0.5-1.4-0.7c0,0-0.1,0-0.1,0c0,0,0,0,0,0
		C219.4,132.2,222.8,160.9,222,188.3z"/>
	<path class="st3" d="M57.2,215.8c-1.2-2.8-2.3-5.7-3.4-8.5C54.9,210.2,56,213,57.2,215.8z"/>
	<path class="st3" d="M43.6,169.9c-1.3-7.4-2-13.8-1.9-18.5C41.6,156,42.3,162.4,43.6,169.9z"/>
	<path class="st3" d="M53.9,207.3c-3.2-8.6-5.8-17.5-7.8-25.7C48.1,189.9,50.7,198.7,53.9,207.3z"/>
	<path class="st3" d="M136.3,128.1c2.3-0.1,4.7-0.2,7-0.3C141,127.9,138.7,128,136.3,128.1z"/>
	<path class="st3" d="M48.3,150c-4.1,13.4,11.3,82.9,38.1,105.6c30.6,16.9,103,3.6,115-13.3c11.8-16.5,14.4-91.3,4.5-106.5
		C176.4,125.1,52.4,136.7,48.3,150z M64.3,164c-3.4,10.1,6.7,53.9,6.7,53.9c-11.8-16.9-17.7-58.1-14.3-63.2
		c3.4-5.1,52.2-12.6,52.2-12.6C103,143.7,67.6,153.8,64.3,164z"/>
	<path class="st3" d="M107.7,130.2c2.4-0.2,4.9-0.5,7.4-0.7C112.6,129.7,110.1,129.9,107.7,130.2z"/>
	<path class="st3" d="M204.5,134.2c0.2,0.2,0.5,0.4,0.7,0.7C205,134.6,204.8,134.4,204.5,134.2z"/>
	<path class="st3" d="M132.6,128.3c1.2-0.1,2.5-0.1,3.7-0.2C135.1,128.1,133.9,128.2,132.6,128.3z"/>
	<path class="st3" d="M205.3,135c0.2,0.3,0.4,0.5,0.6,0.8C205.8,135.6,205.5,135.3,205.3,135z"/>
	<path class="st2" d="M206,135.9c-0.2-0.3-0.4-0.6-0.6-0.8c0,0-0.1-0.1-0.1-0.1c-0.2-0.3-0.4-0.5-0.7-0.7c-1.3-1.2-3.4-2.1-6.2-3
		c-2.2-0.7-4.8-1.2-7.7-1.7c-0.7-0.1-1.5-0.2-2.3-0.3c-7.7-1.1-17.5-1.6-28.3-1.6c-5.4,0-11,0.1-16.8,0.3c-2.3,0.1-4.6,0.2-7,0.3
		c-1.2,0.1-2.5,0.1-3.7,0.2c-2.3,0.1-4.6,0.3-6.9,0.4c-3.6,0.2-7.1,0.5-10.7,0.8c-2.5,0.2-4.9,0.4-7.4,0.7c-2.2,0.2-4.4,0.4-6.6,0.7
		c-1.1,0.1-2.3,0.3-3.4,0.4c-2.3,0.3-4.5,0.5-6.7,0.8c-1.1,0.1-2.2,0.3-3.3,0.4c-2.1,0.3-4.3,0.6-6.3,0.9c-6.2,1-11.9,2-17,3.1
		c-12.6,2.8-21.1,6-22.2,9.3c-0.4,1.3-0.6,3.2-0.6,5.5c-0.1,4.6,0.6,11.1,1.9,18.5c0.7,3.7,1.5,7.7,2.5,11.8c2,8.2,4.6,17,7.8,25.7
		c1.1,2.9,2.2,5.7,3.4,8.5c7.1,16.8,16.4,31.9,27.5,38.8c0.6,0.4,1.2,0.7,1.8,1c0,0-0.1-0.1-0.1-0.1C59.6,232.9,44.2,163.4,48.3,150
		C52.4,136.7,176.4,125.1,206,135.9L206,135.9C206,135.9,206,135.9,206,135.9z"/>
	<path class="st4" d="M348.3,311c1.4,2.1,2.6,4.2,3.6,6.3C350.9,315.1,349.7,313,348.3,311z"/>
	<path class="st4" d="M351.9,317.3c1,2.2,1.9,4.3,2.7,6.5C353.9,321.6,353,319.5,351.9,317.3z"/>
	<path class="st4" d="M355.6,327.2c0.9,3.3,1.5,6.6,1.9,9.8C357.2,333.8,356.5,330.5,355.6,327.2z"/>
	<path class="st4" d="M340.9,302.2c2.9,2.7,5.3,5.6,7.4,8.7C346.2,307.9,343.8,304.9,340.9,302.2z"/>
	<path class="st4" d="M334.6,297.2c2.3,1.6,4.4,3.3,6.3,5.1C339,300.4,336.9,298.7,334.6,297.2z"/>
	<path class="st4" d="M346,365.7c0.6,0.1,1.2,0.2,1.8,0.3C347.3,365.9,346.7,365.8,346,365.7z"/>
	<path class="st4" d="M349.6,366.1c-0.5,0-1,0-1.6-0.1C348.5,366.1,349,366.1,349.6,366.1z"/>
	<path class="st4" d="M335.6,362.2c0.8,0.3,1.6,0.6,2.4,0.9C337.2,362.9,336.4,362.6,335.6,362.2z"/>
	<path class="st4" d="M332.5,360.9c0.9,0.4,1.8,0.8,2.7,1.1C334.3,361.7,333.4,361.3,332.5,360.9z"/>
	<path class="st4" d="M343.5,365.1c0.7,0.2,1.4,0.4,2.1,0.5C344.9,365.5,344.2,365.3,343.5,365.1z"/>
	<path class="st4" d="M338.3,363.3c0.8,0.3,1.6,0.6,2.4,0.9C339.9,363.9,339.1,363.6,338.3,363.3z"/>
	<path class="st4" d="M341.2,364.3c0.7,0.2,1.4,0.5,2.1,0.7C342.6,364.8,341.9,364.6,341.2,364.3z"/>
	<path class="st4" d="M248.8,370.1c-0.3,0-0.6-0.1-0.9-0.1C248.1,370,248.4,370,248.8,370.1z"/>
	<path class="st4" d="M206.9,354c3.1,0.5,6.1,11.3,35.5,15.3c27.1,1.1,31.5-17.1,37-21.5c5.6-4.5,21.3-0.6,21.3-0.6
		c4.2-0.3,18.8,7.9,31.7,13.6c16.7-30.6-27.8-49.5-35.1-54c-7.3-4.5-14,1.1-14.6-66.3c-0.4-53.8-1.7-75.8-25.6-84.4
		c-16,2.4-27.2,15.3-35.1,32.2c-8.7,18.5-13.5,41.7-16.7,60.7c-0.8,4.8-1.5,9.4-2.2,13.5c-1.6,9.9-2.7,17.4-4.1,20.7
		c-2.2,5.6-61.8,21.9-59.5,61.2c0.9,16.1,9.5,20.1,20.5,19.5C175.9,363.1,196.8,352.4,206.9,354z M249,165.3c0,0-33.1,67.4-36,109.5
		C213.1,274.8,209.2,190.6,249,165.3z"/>
	<path class="st4" d="M349.9,366c0.2,0,0.4,0,0.6-0.1c0.3,0,0.6-0.1,0.8-0.2C350.9,366,350.4,366,349.9,366z"/>
	<path class="st4" d="M245.7,369.8c-0.3,0-0.6-0.1-0.9-0.1C245.1,369.7,245.4,369.7,245.7,369.8z"/>
	<path class="st4" d="M257.3,156.1c0.7-0.1,1.4-0.2,2.1-0.2C258.6,156,257.9,156,257.3,156.1z"/>
	<path class="st4" d="M259.9,155.8c0.9-0.1,1.8-0.1,2.7-0.1C261.6,155.7,260.7,155.8,259.9,155.8z"/>
	<path class="st5" d="M279.4,347.9c-5.5,4.4-9.9,22.6-37,21.5c0,0,0,0,0,0c0.8,0.1,1.6,0.2,2.5,0.3c0.3,0,0.6,0.1,0.9,0.1
		c0.7,0.1,1.4,0.2,2.1,0.2c0.3,0,0.6,0.1,0.9,0.1c1,0.1,2,0.2,3.1,0.3c38.2,2.8,42.1-22.5,48.9-23
		C300.7,347.3,285,343.4,279.4,347.9z"/>
	<path class="st5" d="M307.6,261.2c-0.1-0.9-0.2-1.9-0.3-2.9c-0.7-5.8-1.5-12-2.4-18.6c-0.3-2-0.6-4-0.9-6c-0.1-0.8-0.2-1.6-0.4-2.3
		c0-0.2-0.1-0.5-0.1-0.7c-0.3-2-0.7-4.1-1-6.2c-0.2-1-0.4-2.1-0.5-3.1c-0.4-2.1-0.8-4.1-1.2-6.2c-0.2-1-0.4-2-0.6-3.1
		c-0.2-1-0.4-2.1-0.7-3.1c-0.2-1-0.4-2-0.7-3c-0.7-3-1.5-6-2.3-8.9c-2.7-9.6-6.1-18.4-10.4-25.4c-1.4-2.3-2.9-4.4-4.5-6.2
		c-0.4-0.4-0.7-0.9-1.1-1.3c-1.5-1.6-3.1-3-4.8-4.2c-0.6-0.4-1.1-0.8-1.7-1.1c-1.7-1-3.6-1.9-5.5-2.4c-1.9-0.5-4-0.8-6.1-0.8
		c-0.9,0-1.8,0-2.7,0.1c-0.2,0-0.4,0-0.6,0.1c-0.7,0.1-1.4,0.1-2.1,0.2c-0.1,0-0.1,0-0.2,0c0,0,0,0,0,0c24,8.6,25.2,30.7,25.6,84.4
		c0.6,67.4,7.3,61.8,14.6,66.3c7.3,4.5,51.8,23.4,35.1,54c0,0,0,0,0,0c0,0,0.1,0,0.1,0c0.9,0.4,1.8,0.8,2.7,1.1
		c0.1,0.1,0.3,0.1,0.4,0.2c0.8,0.3,1.6,0.6,2.4,0.9c0.1,0,0.2,0.1,0.3,0.1c0.8,0.3,1.6,0.6,2.4,0.9c0.2,0.1,0.3,0.1,0.5,0.2
		c0.7,0.2,1.4,0.5,2.1,0.7c0.1,0,0.2,0.1,0.2,0.1c0.7,0.2,1.4,0.4,2.1,0.5c0.2,0,0.3,0.1,0.5,0.1c0.6,0.1,1.2,0.2,1.8,0.3
		c0,0,0.1,0,0.1,0c0.6,0.1,1.1,0.1,1.6,0.1c0.1,0,0.2,0,0.4,0c0.5,0,1-0.1,1.4-0.2c4.2-1.2,7.9-14,6.2-28.9c-0.4-3.2-1-6.5-1.9-9.8
		c-0.3-1.1-0.6-2.2-1-3.3c-0.7-2.2-1.6-4.4-2.7-6.5c-1-2.2-2.2-4.3-3.6-6.3c-2.1-3.1-4.5-6-7.4-8.7c-1.9-1.8-4-3.5-6.3-5.1
		c-5.8-3.9-12.9-7-21.5-8.9c-1.8-0.4-3.1-7.9-4.5-19.1c-0.2-1.8-0.5-3.8-0.7-5.9c-0.1-0.4-0.1-0.9-0.2-1.3
		C307.7,261.8,307.7,261.5,307.6,261.2z"/>
	<path class="st6" d="M213.1,274.8c2.8-42.1,36-109.5,36-109.5C209.2,190.6,213.1,274.8,213.1,274.8z"/>
	<path class="st6" d="M56.7,154.7c-3.4,5.1,2.5,46.3,14.3,63.2c0,0-10.1-43.8-6.7-53.9c3.4-10.1,38.8-20.2,44.7-21.9
		C108.9,142,60,149.6,56.7,154.7z"/>
	<path class="st6" d="M315.3,202.7c0,0,0.8-37.1,5.9-42.1c5.1-5.1,34.5-15.2,34.5-15.2s-29.5,1.7-36.2,7.6
		C312.8,158.9,312.8,188.4,315.3,202.7z"/>
	<path class="st6" d="M83.6,78.9c-51.4,33.4-64.1,18.3-67.2,9.3C27.8,133.1,83.6,78.9,83.6,78.9z"/>
	<path class="st6" d="M15.4,83.1c0,0,0,2.2,1,5C16,86.5,15.7,84.9,15.4,83.1z"/>
	<path class="st6" d="M439.2,85.6c0,0-45.5-28.6-91.8-4.2C347.4,81.4,401.3,67.9,439.2,85.6z"/>
	<path class="st6" d="M46.3,224.8C38.9,198.2,30,133.3,30,133.3C21,171.5,46.3,224.8,46.3,224.8z"/>
	<path class="st6" d="M289.5,165.3c1.7-15.2,8.3-37.8,8.3-37.8C284.6,138.7,289.5,165.3,289.5,165.3z"/>
	<path class="st6" d="M164.8,439.2c-3.3-25.9,10-66.8,10-66.8C146.5,396.6,164.8,439.2,164.8,439.2z"/>
</g>
</svg>
