<svg xmlns="http://www.w3.org/2000/svg" viewBox="0 0 284.64 357.79"><title>mouth</title><ellipse cx="142.32" cy="330.11" rx="142.32" ry="27.69" style="fill:#1e1e1e;opacity:0.25"/><path d="M211.68,50.46l.43-.48a68.79,68.79,0,0,0,4.6-5.9c2.92-4.26,6.06-8.9,8-13.68a.58.58,0,0,1,1.11.31c-1.21,5.82-2.67,11-5.78,16.19a55.65,55.65,0,0,1-6.43,8.85c1.23,3.8,2.17,7.69,3.23,11.53q.39,1.4.67,2.81a6.1,6.1,0,0,0,1.71-.59,20.53,20.53,0,0,0,4.36-3.24A38.61,38.61,0,0,0,230,58.47a40.61,40.61,0,0,0,6.1-19c.57-11.13-3.69-23-12.8-29.18C227,23,220,37.89,208.91,45.4a24.21,24.21,0,0,1,2.16,3.69C211.28,49.54,211.49,50,211.68,50.46Z" style="fill:#ffcf4b"/><path d="M72.75,58.09A43.29,43.29,0,0,1,68,55.91c-.69,1.23-1.74,2.41-2.33,3.48s-1.13,2.38-1.78,3.51a25.85,25.85,0,0,0-2.32,4,0,0,0,0,1-.08,0c.39-1.5.2-3.23.78-4.68a41,41,0,0,1,1.72-3.81,29.24,29.24,0,0,1,1.9-3.5c-.66-.29-1.37-.54-1.58-.32A18.67,18.67,0,0,0,62,57.83a76.59,76.59,0,0,0-7.85,16.89,80.92,80.92,0,0,0-2.36,9.12c-.55,2.85-1.38,6.12-1,9,.46,3.5,4.34,4.84,7.66,5.83A141.61,141.61,0,0,1,70.75,61.79C71.38,60.53,72.05,59.3,72.75,58.09Z" style="fill:#ee3833"/><path d="M163.64,106.9c3.27-5.13,4.52-11.63,4.64-17.66.11-5.58-.76-11.74-4.62-16.07A27.34,27.34,0,0,0,149.61,65c-6.92-1.71-13.83-1.21-20.84-1.93A4.31,4.31,0,0,1,125.31,61a25.29,25.29,0,0,0-11.74,11.21c-3.55,6.62-5.67,14.49-5.08,22,.42,5.36,2.36,10.61,6.49,14.22,4.82,4.21,11.38,6.88,17.57,8.28C143.47,119.2,157.15,117.12,163.64,106.9ZM135.5,102.6c-5.19-2.13-9.47-7.86-7.55-13.66,1.19-3.59,5.27-8.28,9.45-7.41a7.91,7.91,0,0,1,3.67-.59,15.26,15.26,0,0,1,8.22,2.46c2.77,2,4.49,4.21,4.23,7.79a13.63,13.63,0,0,1-2.62,7.38A13,13,0,0,1,135.5,102.6Z" style="fill:#fff"/><path d="M45.33,49.31c-3.78-5.62-7.39-11.79-8.56-18.55a31,31,0,0,1-.21-10.68,40,40,0,0,1,1.1-4.3c.11-.37.29-.81.37-1.23a3.31,3.31,0,0,0-.62.33A8.26,8.26,0,0,0,36,15.92a34.43,34.43,0,0,0-3,3.2,36.41,36.41,0,0,0-4.56,7.25,55.17,55.17,0,0,0-4.91,19c-.33,3.76-.48,7.53-.5,11.31a55.62,55.62,0,0,0,.48,10.07c1.76,9.72,9.12,17.78,18.82,19.63-5.7-3.38-9.92-9.87-12.46-15.82S25.83,58.65,26.8,52.29a.24.24,0,0,1,.45,0c1,6,2.25,12.19,5.19,17.59a45.07,45.07,0,0,0,5.38,7.65c2,2.32,4.31,4.13,6.47,6.24l.06-.36A79.76,79.76,0,0,1,47.22,72,92.18,92.18,0,0,1,53,58C49.78,56.12,47.2,52.09,45.33,49.31Z" style="fill:#ffcf4b"/><path d="M43.81,86.61l0-.16a1.58,1.58,0,0,1-.33.12Z" style="fill:#e26025"/><path d="M68.28,280.66c-2.73-3-3.35-6.71-3.62-10.65l-1-14.51c-.61-9-1.69-18.15-1.39-27.19.19-5.9,1-11.83,3.46-17.13-1.7-6.66-3.27-13.37-4.66-20.12-2,8.65-3.91,17.33-5.11,26.14a241.34,241.34,0,0,0-2.17,38.68c.17,6.48.57,13,1.28,19.39.37,3.31.8,6.62,1.32,9.91.26,1.61,1,3.7.56,5.31-.36,1.32-1.56,2.27-2.43,3.27-1.48,1.71-3.59,4.06-3.69,6.46-.06,1.39,0,3.44,1.49,4.16,3.44,1.72,7-4.91,8.26-7.17,1.78-3.31,6.76-1.68,6.83,1.85,0,2.44,3.32,5.52,5.85,4.06a4.73,4.73,0,0,0,1.4-6.95c-1.6-2.22.54-5.56,3.12-5.44a20.93,20.93,0,0,0,4.56-.28,12.24,12.24,0,0,0-4.48-4.83C74.83,283.78,70.76,283.41,68.28,280.66Z" style="fill:#e26025"/><path d="M205.06,86.07a10.74,10.74,0,0,0,1.8-1.85c0-.32,0-.68-.07-1.1a31,31,0,0,0-.63-4.88c-.6-2.56-2.27-4.86-2.61-7.44-.09-.68,1-1,1.31-.36.59,1.35,1.9,2.2,2.48,3.67a20.06,20.06,0,0,1,1.21,4.23c.1.63.28,1.41.43,2.24a10.4,10.4,0,0,0,.86-3.55,28.68,28.68,0,0,0-1.5-9.13c-1.6-5.73-2.42-12.16-5.48-17.35-1.2-2-3.21-5.28-6-4.37s-5.27,2-7.91,3A79.4,79.4,0,0,1,195,59.1,138.11,138.11,0,0,1,205.06,86.07Z" style="fill:#ee3833"/><path d="M133.48,178.14c.41-1.62.64-4.13,2-5.33a11.54,11.54,0,0,1,4.76-2.14l6-1.77c2.28-.67,4.55-1.45,6.86-2a4.35,4.35,0,0,1,4.17.75,35,35,0,0,1,3.68,4.66l1.77,2.33.08-.15,1.2-2.25a12.85,12.85,0,0,1,1.52-2.54c-1.14-4.36-3-8.5-7-11A16.12,16.12,0,0,0,144,157.12a19.66,19.66,0,0,0-10.59,10.55c-1.78,4.12-2,8.76-1.82,13.32l1,.67C132.86,180.46,133.2,179.28,133.48,178.14Z" style="fill:#fff"/><path d="M202.29,117.93c-2.26-11.31-4.54-22.67-7.73-33.76C188.21,62.05,175.07,37.1,150.38,32c-13.12-2.71-27.35.31-39.69,5C99.38,41.35,89,48.27,82.33,58.59,75.27,69.58,70.84,82.37,67.89,95a181,181,0,0,0-4.51,39.26,334.43,334.43,0,0,0,1.68,35.62c1.77,4.36,3.32,8.78,4.65,13.29a152.65,152.65,0,0,1,4.36,22.9,3.5,3.5,0,0,1,.48,3.62l.12.93c.93,7,2.06,15.52,6.82,21.09,5.51,6.45,13.83,7.59,21.78,8.82,1.93.3,3.18,2.45,3.22,4.23a640.73,640.73,0,0,1-2.25,69.89A4.48,4.48,0,0,1,99.9,319a90.11,90.11,0,0,0-19.46,3.77c-1.51.47-5.6,1.6-7.92,3.27,7.8.28,15.61.26,23.39-.22,2.35-.14,4.7-.31,7.05-.52,1.17-.1,2.35-.2,3.52-.33.34,0,1.35-.37,1.23-.15.84-1.56.84-3.78,1.08-5.5q.48-3.43.93-6.87,3.64-28.43,5-57.09a4.26,4.26,0,0,1,4.22-4.22,153.74,153.74,0,0,0,52.49-7c2.91-.91,5.34,1.5,5.57,4.24a568.4,568.4,0,0,1,.91,79.11,332.41,332.41,0,0,0,37-1.46,9.92,9.92,0,0,0-3.65-3.47c-3.08-1.81-6.6-2.49-9.92-3.72-3.57-1.32-7.43-3-9.85-6.11a22.16,22.16,0,0,1-4.53-9.88c-1.54-8.56-1.56-17.5-2.14-26.16l-1.88-28.11a4.3,4.3,0,0,1,3.18-4.18c5.9-1.27,13.33-2.65,17.85-7,.19-.18.36-.37.53-.56l.3-.42a25,25,0,0,0,1.34-2.32,36,36,0,0,0,2.14-5q.58-1.63,1.1-3.29c3.27-23.74,2.24-48-.91-71.72C206.81,142,204.69,129.93,202.29,117.93ZM155.61,43.27a4.19,4.19,0,0,1,5.12-2.91c4.47,1.47,6.65,5.3,9.12,9A1.12,1.12,0,0,1,168.6,51c-1.74-.43-3.47-.79-5.2-1.31a18.64,18.64,0,0,0-3.78-1.1A4.22,4.22,0,0,1,155.61,43.27ZM150.11,36a5,5,0,1,1-5,5A5,5,0,0,1,150.11,36Zm-45,72.13c-5.91-10.37-4.6-23.26-.13-33.89,4.38-10.45,14.28-21.91,26.81-19.64a63.21,63.21,0,0,1,21.45,2.55c6.79,2.16,13,5.79,17.43,11.49s6.15,13.36,5.83,20.59-1.59,15.07-5.52,21.15c-6.71,10.38-19.12,15.88-31.33,15.14a53.91,53.91,0,0,1-20.08-5.32C113.83,117.48,108.29,113.77,105.09,108.14Zm63.74,115.39c-4.29,4-10.5,7-16.51,6.24a18.21,18.21,0,0,1-9-3.27,9.63,9.63,0,0,1-3.35-3.58c-.14-.31-.27-.64-.39-1-8.71-6.86-13-17.23-14.27-28.36-1.46-12.36-2.71-26.48,6.13-36.5,7.59-8.6,21.12-11.85,31.25-5.55,11.64,7.23,12.31,21.2,13.87,33.46C178.21,197.9,179.34,213.74,168.83,223.54Z" style="fill:#e26025"/><path d="M245.5,269.9a20.08,20.08,0,0,1-2.32-9c-.68-12.11-1.41-24.18-3.17-36.19a182.43,182.43,0,0,0-8.36-35.34,110.42,110.42,0,0,0-7.09-16.17c-1.66-3-3.41-5.92-5.2-8.82.79,8,1.32,15.93,1.51,23.91a47.62,47.62,0,0,1,5.7,10.37,95.75,95.75,0,0,1,5.09,15,167,167,0,0,1,4.2,31.62c.5,10,1.7,21.52-4.73,30.06-1.39,1.85-7.21,6.8-4.59,9.41l.11.11c.41-.5.74-1,1.13-1.57,1.28-1.72,2.71-3.3,4.94-3.67a3.91,3.91,0,0,1,4.64,2.63l.89,2.21a6,6,0,0,0,1.45-2.63,8.54,8.54,0,0,1-.72-4.59c.55-4.39,6-5.27,7.66-1a11.83,11.83,0,0,1,.72,3c.54.64,1.34,1.09,2,.71a3.06,3.06,0,0,0,1.46-3.47C250,273.85,246.82,272.23,245.5,269.9Z" style="fill:#e26025"/><path d="M162.89,203.22c-3.19.42-6.76.73-9.7,2.12a22.39,22.39,0,0,0-7.09,5.18,48.53,48.53,0,0,0-3,4.25,3.56,3.56,0,0,1,1.78,1.41c.7,1,1.91,1.61,2.84,2.46a7.48,7.48,0,0,0,2.62,1.68,10.59,10.59,0,0,0,6.1.3c4.91-1.31,8.34-4.87,10.36-9.46a26.83,26.83,0,0,0,2-7.66,4.79,4.79,0,0,0-1.93-.49A24.39,24.39,0,0,0,162.89,203.22Z" style="fill:#b765a7"/><path d="M167.06,177.65c-.8,1.55-1.62,3.36-3.49,3.68-2.29.4-3.33-1.43-4.52-3L155,172.86l-.76-1-1.51.42-3.44.95-6.9,1.86c-.54.15-3.37.5-3.55,1.13-.31,1-.6,2.1-.89,3.16a23.18,23.18,0,0,1-2.26,6.25,1.81,1.81,0,0,1-2.81.36c-.32-.38-.66-.73-1-1.08.05.76.1,1.51.15,2.25.41,6.42,1,13.33,3.76,19.23a37.31,37.31,0,0,0,3.35,5.73,28.31,28.31,0,0,1,4.4-6.1,23.11,23.11,0,0,1,8.88-6.32,41.19,41.19,0,0,1,12.45-2.47,18.29,18.29,0,0,1,4.14.23c0-1.8-.16-3.59-.33-5.35C168.22,187.32,167.78,182.44,167.06,177.65Z" style="fill:#ee3833"/><path d="M254.74,268a9.9,9.9,0,0,1-3.29-7.16c-.43-6.08-.64-12.18-1.14-18.26-2-24.28-6.45-48.86-18.84-70.17a67.09,67.09,0,0,0-13.06-16.66q-.88-7.19-2-14.35c-2.26-14.43-5.16-28.76-8.33-43q-.37-1.67-.76-3.34c3.65-2,6.88-6.17,8.46-9.07a19.76,19.76,0,0,0,2.3-7.42c3.18-.22,6.46-2.17,8.84-4a45.71,45.71,0,0,0,8.86-9.5,48.88,48.88,0,0,0,8.64-24.19C246,22.94,235.14,3.58,216.61.07a3.47,3.47,0,0,0-3.35,5.75c5.13,5.51,5.43,13.22,3.38,20.12-1.88,6.34-6.08,11.54-10.88,15.94-2.58-2.23-5.74-3.57-9.24-2.76a23.2,23.2,0,0,0-5.31,2.2c-1.76.9-4.16,1.77-5.47,3.3l-.16.22a71.81,71.81,0,0,0-14-13c-10.87-7.63-24-10.38-37.11-9.21A96.62,96.62,0,0,0,96.62,34.17,61.26,61.26,0,0,0,76.38,52.43a41.32,41.32,0,0,0-7.86-4.16c-3.76-1.73-7.59-1.24-10.33,2-.44.51-.85,1.05-1.26,1.59-3.44-3.06-5.78-7.44-8-11.35-3.14-5.46-5.7-12-4.83-18.39.39-2.91,1.73-5.55,1.79-8.53a7,7,0,0,0-5.74-6.9c-6.55-1-11.57,5.34-15,10-8.07,11.18-9.64,25.69-9.8,39.06-.09,7,.27,13.81,3,20.3,2.21,5.24,6.28,9.53,10.84,12.81a30.2,30.2,0,0,0,14.42,5.31c.06.37.12.75.21,1.12,1.3,5.77,7.77,9.41,13.41,10.73A210.31,210.31,0,0,0,55,137.51,252.16,252.16,0,0,0,58.84,179c-6.93,17.11-10.16,35.69-11.69,54a228.79,228.79,0,0,0,2.33,55.24c-2.55,2.86-4.88,6-5.8,9.75a12.14,12.14,0,0,0,3.24,11.53c5.61,5.25,11.85,1.72,16.17-3.15A11.32,11.32,0,0,0,75.61,310c4.87-1.87,7.74-7.25,7.25-12.29a26,26,0,0,0,5.24-1.33,3.69,3.69,0,0,0,2.52-4.44,21.09,21.09,0,0,0-13.49-14.69,10.81,10.81,0,0,1-3.65-1.76c-1-.95-1.21-2.8-1.34-4.12-.46-4.66-.62-9.36-.92-14-.56-8.65-1.38-17.34-1.47-26q0-2.56.15-5a34.68,34.68,0,0,0,6.17,11.79c5.34,6.53,13.68,9,21.72,10.44.31,20.77-.33,41.56-1.93,62.27a103.12,103.12,0,0,0-20.92,4.75c-6.7,2.3-14.5,7.58-12.34,15.75a4.38,4.38,0,0,0,4.16,3.16,261.72,261.72,0,0,0,30.92-.25c4.68-.3,10.07-.15,14.38-2.17,4.64-2.17,4.66-8.82,5.25-13.08q4-29.47,5.6-59.19a162.85,162.85,0,0,0,45.68-5.57,581,581,0,0,1,.11,77.75c-.16,2.47,2.15,4.39,4.46,4.46a335.14,335.14,0,0,0,46.34-2c1.93-.22,3.71-1.17,4.22-3.21,2-8.21-4.47-14.87-11.56-17.75-6.09-2.48-13.86-3-16.21-10.15-1.16-3.55-1.21-7.4-1.45-11.09l-1-14.51L191.78,252c6.54-1.63,12.77-3.93,18.08-8.29,3.08-2.53,4.81-7.08,6.2-10.83a4.1,4.1,0,0,0,2.48-3q.66-4.57,1.13-9.15c.33-1.57.62-3.15.86-4.73a38.58,38.58,0,0,0,.55-7.42,23.35,23.35,0,0,0-.33-3q0-.54,0-1.09a96.5,96.5,0,0,1,4.37,14.74C227.52,230,228.29,241,228.69,252c.19,5.26.24,10.53-1.6,15.53-.83,2.26-2.51,4.07-4.05,5.86a23.08,23.08,0,0,0-4.24,6.72c-1.79,4.54,1.07,10.62,5.68,12.15a7,7,0,0,0,6.91-1.48,9.78,9.78,0,0,0,.85-.89l.41,1.07a3.93,3.93,0,0,0,4.72,2.68,13.14,13.14,0,0,0,8.22-6.35,9.6,9.6,0,0,0,4.21.64c6.25-.5,10.08-6.81,9.2-12.67C258.57,272.34,256.74,270.07,254.74,268ZM223.32,10.31c9.11,6.14,13.37,18.05,12.8,29.18a40.61,40.61,0,0,1-6.1,19,38.61,38.61,0,0,1-6.39,7.78,20.53,20.53,0,0,1-4.36,3.24,6.1,6.1,0,0,1-1.71.59q-.29-1.4-.67-2.81c-1.06-3.84-2-7.74-3.23-11.53a55.65,55.65,0,0,0,6.43-8.85c3.12-5.14,4.57-10.37,5.78-16.19a.58.58,0,0,0-1.11-.31c-2,4.77-5.12,9.42-8,13.68a68.79,68.79,0,0,1-4.6,5.9l-.43.48c-.2-.46-.4-.91-.61-1.37a24.21,24.21,0,0,0-2.16-3.69C220,37.89,227,23,223.32,10.31ZM196.82,46.19c2.8-.91,4.81,2.33,6,4.37,3.06,5.19,3.89,11.62,5.48,17.35a28.68,28.68,0,0,1,1.5,9.13,10.4,10.4,0,0,1-.86,3.55c-.15-.83-.32-1.6-.43-2.24a20.06,20.06,0,0,0-1.21-4.23c-.59-1.47-1.9-2.32-2.48-3.67-.27-.62-1.4-.33-1.31.36.35,2.58,2,4.87,2.61,7.44a31,31,0,0,1,.63,4.88c0,.43,0,.78.07,1.1a10.74,10.74,0,0,1-1.8,1.85A138.11,138.11,0,0,0,195,59.1a79.4,79.4,0,0,0-6.05-9.94C191.55,48.18,194.16,47.05,196.82,46.19Zm-153,40.42-.3,0a1.58,1.58,0,0,0,.33-.12Zm.54-3.21-.06.36c-2.16-2.11-4.49-3.93-6.47-6.24a45.07,45.07,0,0,1-5.38-7.65c-2.94-5.39-4.23-11.57-5.19-17.59a.24.24,0,0,0-.45,0c-1,6.36.58,12.44,3.08,18.28S36.63,83,42.33,86.38c-9.69-1.84-17.06-9.91-18.82-19.63A55.62,55.62,0,0,1,23,56.68c0-3.77.17-7.55.5-11.31a55.17,55.17,0,0,1,4.91-19A36.41,36.41,0,0,1,33,19.12a34.43,34.43,0,0,1,3-3.2,8.26,8.26,0,0,1,1.36-1.05,3.31,3.31,0,0,1,.62-.33c-.08.41-.26.86-.37,1.23a40,40,0,0,0-1.1,4.3,31,31,0,0,0,.21,10.68c1.17,6.77,4.78,12.94,8.56,18.55C47.2,52.09,49.78,56.12,53,58a92.18,92.18,0,0,0-5.82,14A79.76,79.76,0,0,0,44.35,83.4ZM58.48,98.71c-3.31-1-7.2-2.33-7.66-5.83-.38-2.92.45-6.19,1-9a80.92,80.92,0,0,1,2.36-9.12A76.59,76.59,0,0,1,62,57.83a18.67,18.67,0,0,1,2.24-3.26c.21-.22.92,0,1.58.32a29.24,29.24,0,0,0-1.9,3.5,41,41,0,0,0-1.72,3.81c-.58,1.45-.39,3.18-.78,4.68a0,0,0,0,0,.08,0,25.85,25.85,0,0,1,2.32-4c.65-1.13,1.15-2.36,1.78-3.51s1.64-2.25,2.33-3.48a43.29,43.29,0,0,0,4.79,2.18c-.7,1.21-1.37,2.45-2,3.71A141.61,141.61,0,0,0,58.48,98.71ZM77.88,285.6a12.24,12.24,0,0,1,4.48,4.83,20.93,20.93,0,0,1-4.56.28c-2.58-.12-4.73,3.23-3.12,5.44a4.73,4.73,0,0,1-1.4,6.95c-2.53,1.46-5.8-1.61-5.85-4.06-.07-3.53-5.06-5.16-6.83-1.85-1.21,2.25-4.82,8.89-8.26,7.17-1.45-.72-1.55-2.77-1.49-4.16.11-2.4,2.21-4.75,3.69-6.46.87-1,2.06-1.94,2.43-3.27.44-1.61-.3-3.69-.56-5.31-.53-3.29-1-6.59-1.32-9.91-.72-6.44-1.12-12.92-1.28-19.39A241.34,241.34,0,0,1,56,217.19c1.2-8.81,3.07-17.49,5.11-26.14,1.39,6.75,3,13.46,4.66,20.12-2.42,5.3-3.27,11.23-3.46,17.13-.29,9,.78,18.18,1.39,27.19l1,14.51c.27,3.94.89,7.63,3.62,10.65C70.76,283.41,74.83,283.78,77.88,285.6Zm131.45-59.76q-.52,1.65-1.1,3.29a36,36,0,0,1-2.14,5,25,25,0,0,1-1.34,2.32l-.3.42c-.17.19-.35.38-.53.56-4.52,4.38-11.95,5.76-17.85,7a4.3,4.3,0,0,0-3.18,4.18l1.88,28.11c.58,8.67.6,17.6,2.14,26.16a22.16,22.16,0,0,0,4.53,9.88c2.42,3.08,6.29,4.79,9.85,6.11,3.32,1.23,6.84,1.9,9.92,3.72a9.92,9.92,0,0,1,3.65,3.47,332.41,332.41,0,0,1-37,1.46,568.4,568.4,0,0,0-.91-79.11c-.22-2.74-2.65-5.15-5.57-4.24a153.74,153.74,0,0,1-52.49,7,4.26,4.26,0,0,0-4.22,4.22q-1.32,28.63-5,57.09-.44,3.44-.93,6.87c-.24,1.73-.24,3.94-1.08,5.5.12-.22-.89.11-1.23.15-1.17.13-2.35.23-3.52.33-2.35.21-4.7.37-7.05.52-7.79.48-15.6.5-23.39.22,2.32-1.66,6.41-2.8,7.92-3.27A90.11,90.11,0,0,1,99.9,319a4.48,4.48,0,0,0,4.35-4.35,640.73,640.73,0,0,0,2.25-69.89c0-1.78-1.29-3.94-3.22-4.23-7.95-1.23-16.27-2.37-21.78-8.82-4.76-5.57-5.89-14.1-6.82-21.09l-.12-.93a3.5,3.5,0,0,0-.48-3.62,152.65,152.65,0,0,0-4.36-22.9c-1.32-4.52-2.88-8.93-4.65-13.29a334.43,334.43,0,0,1-1.68-35.62A181,181,0,0,1,67.89,95c2.95-12.66,7.37-25.45,14.43-36.43C89,48.27,99.38,41.35,110.69,37c12.34-4.71,26.57-7.73,39.69-5,24.69,5.09,37.84,30,44.19,52.17,3.19,11.09,5.47,22.45,7.73,33.76,2.4,12,4.51,24.06,6.13,36.18C211.58,177.8,212.6,202.1,209.34,225.84Zm40,54c-.66.38-1.45-.08-2-.71a11.83,11.83,0,0,0-.72-3c-1.65-4.24-7.1-3.36-7.66,1a8.54,8.54,0,0,0,.72,4.59,6,6,0,0,1-1.45,2.63l-.89-2.21a3.91,3.91,0,0,0-4.64-2.63c-2.23.37-3.66,2-4.94,3.67-.39.52-.72,1.07-1.13,1.57l-.11-.11c-2.62-2.61,3.2-7.56,4.59-9.41,6.42-8.54,5.23-20,4.73-30.06a167,167,0,0,0-4.2-31.62,95.75,95.75,0,0,0-5.09-15,47.62,47.62,0,0,0-5.7-10.37c-.2-8-.72-16-1.51-23.91,1.79,2.9,3.54,5.83,5.2,8.82a110.42,110.42,0,0,1,7.09,16.17A182.43,182.43,0,0,1,240,224.69c1.75,12,2.49,24.08,3.17,36.19a20.08,20.08,0,0,0,2.32,9c1.32,2.32,4.47,4,5.31,6.45A3.06,3.06,0,0,1,249.36,279.82Z" style="fill:#6f2900"/><path d="M162.68,151.54c-10.13-6.3-23.66-3-31.25,5.55-8.84,10-7.59,24.14-6.13,36.5,1.31,11.14,5.56,21.5,14.27,28.36.12.33.25.65.39,1a9.63,9.63,0,0,0,3.35,3.58,18.21,18.21,0,0,0,9,3.27c6,.71,12.22-2.24,16.51-6.24,10.5-9.79,9.38-25.63,7.73-38.53C175,172.75,174.32,158.78,162.68,151.54Zm-29.23,16.13A19.66,19.66,0,0,1,144,157.12a16.12,16.12,0,0,1,14.47,1.57c4,2.52,5.86,6.66,7,11a12.85,12.85,0,0,0-1.52,2.54l-1.2,2.25-.08.15L161,172.31a35,35,0,0,0-3.68-4.66,4.35,4.35,0,0,0-4.17-.75c-2.31.55-4.59,1.32-6.86,2l-6,1.77a11.54,11.54,0,0,0-4.76,2.14c-1.35,1.2-1.58,3.7-2,5.33-.29,1.14-.63,2.32-.86,3.52l-1-.67C131.46,176.43,131.67,171.79,133.45,167.67Zm33.29,43.49c-2,4.59-5.44,8.15-10.36,9.46a10.59,10.59,0,0,1-6.1-.3,7.48,7.48,0,0,1-2.62-1.68c-.93-.85-2.14-1.43-2.84-2.46a3.56,3.56,0,0,0-1.78-1.41,48.53,48.53,0,0,1,3-4.25,22.39,22.39,0,0,1,7.09-5.18c2.94-1.4,6.51-1.71,9.7-2.12a24.39,24.39,0,0,1,3.92-.2,4.79,4.79,0,0,1,1.93.49A26.83,26.83,0,0,1,166.74,211.16Zm-1.9-13.95a41.19,41.19,0,0,0-12.45,2.47,23.11,23.11,0,0,0-8.88,6.32,28.31,28.31,0,0,0-4.4,6.1,37.31,37.31,0,0,1-3.35-5.73c-2.78-5.9-3.35-12.81-3.76-19.23,0-.74-.1-1.49-.15-2.25.35.35.69.7,1,1.08a1.81,1.81,0,0,0,2.81-.36,23.18,23.18,0,0,0,2.26-6.25c.29-1.05.58-2.11.89-3.16.19-.63,3-1,3.55-1.13l6.9-1.86,3.44-.95,1.51-.42.76,1L159,178.3c1.19,1.6,2.24,3.42,4.52,3,1.87-.32,2.69-2.13,3.49-3.68.72,4.8,1.17,9.67,1.61,14.45.16,1.76.29,3.55.33,5.35A18.29,18.29,0,0,0,164.85,197.21Z" style="fill:#6f2900"/><path d="M170.95,110.4c3.93-6.08,5.2-14,5.52-21.15s-1.35-14.79-5.83-20.59S160,59.32,153.22,57.16a63.21,63.21,0,0,0-21.45-2.55c-12.53-2.27-22.43,9.2-26.81,19.64-4.47,10.64-5.78,23.53.13,33.89,3.2,5.62,8.74,9.34,14.44,12.07a53.91,53.91,0,0,0,20.08,5.32C151.83,126.28,164.24,120.78,170.95,110.4Zm-56-1.95c-4.13-3.6-6.08-8.86-6.49-14.22-.59-7.55,1.53-15.42,5.08-22A25.29,25.29,0,0,1,125.31,61a4.31,4.31,0,0,0,3.46,2.12c7,.73,13.92.23,20.84,1.93a27.34,27.34,0,0,1,14.05,8.15c3.86,4.33,4.74,10.49,4.62,16.07-.12,6-1.38,12.53-4.64,17.66-6.5,10.21-20.17,12.3-31.09,9.83C126.37,115.33,119.8,112.66,115,108.45Z" style="fill:#6f2900"/><path d="M150.9,98.58a13.63,13.63,0,0,0,2.62-7.38c.27-3.58-1.46-5.82-4.23-7.79a15.26,15.26,0,0,0-8.22-2.46,7.91,7.91,0,0,0-3.67.59c-4.18-.87-8.27,3.81-9.45,7.41-1.92,5.8,2.36,11.52,7.55,13.66A13,13,0,0,0,150.9,98.58Zm-14.56-5.05A3.53,3.53,0,1,1,139.87,90,3.53,3.53,0,0,1,136.34,93.53Z" style="fill:#6f2900"/><circle cx="136.34" cy="90.01" r="3.53" style="fill:#fff"/><path d="M159.62,48.54a18.64,18.64,0,0,1,3.78,1.1c1.73.52,3.46.88,5.2,1.31a1.12,1.12,0,0,0,1.25-1.63c-2.47-3.67-4.65-7.5-9.12-9a4.16,4.16,0,1,0-1.11,8.18Z" style="fill:#fff"/><path d="M150.11,46a5,5,0,1,0-5-5A5,5,0,0,0,150.11,46Z" style="fill:#fff"/></svg>