<svg xmlns="http://www.w3.org/2000/svg" viewBox="0 0 365.51 308.73"><title>nerdy</title><ellipse cx="191.03" cy="281.04" rx="164.78" ry="27.69" style="fill:#1e1e1e;opacity:0.25"/><path d="M82.13,253.4A3.91,3.91,0,0,1,85,255.59a23.44,23.44,0,0,0,3,4.54,22.91,22.91,0,0,0,4.3,4,.69.69,0,0,1,.06-.12q.28-.45.51-.93a13.66,13.66,0,0,0,.65-2.42c.27-1.75.75-6.64-1.57-7.44-3.73-1.29-2.18-7.16,1.64-6A4.34,4.34,0,0,0,99.18,243a5.78,5.78,0,0,0-6-5.28,7.59,7.59,0,0,0-4.62,1.75c-1.51,1.39-2.73,2.74-4.79,3.27-2.28.59-4.92-.46-7.12-1-.92-.23-1.85-.44-2.77-.71a12,12,0,0,1-2.68,9c2.44.62,4.87,1.27,7.26,2C79.69,252.46,80.85,253.06,82.13,253.4Z" style="fill:#fff"/><path d="M30.88,229.14c-2.12.24-4.27.3-6.36.41a3.34,3.34,0,0,1-3.3-3.3,12.28,12.28,0,0,0-2.88-7c-1.53-1.72-4.11-4.15-6.64-3.93-1.93.16-.9,4.26-.6,5.29a15.16,15.16,0,0,0,4.55,7.16c2.36,2.07.26,5.34-2.32,5.59a7.93,7.93,0,0,0-6.64,7.06c0,1.71.43,3.84,2.17,4.61,1.26.56,2.77-1,3.56-1.79,3.57-3.43,7-6,12.13-6.44a30.41,30.41,0,0,1,6.78.17A23,23,0,0,1,30.88,229.14Z" style="fill:#fff"/><path d="M170.46,168.5c-.43-.7-.85-1.6-1.75-1.73a8.62,8.62,0,0,0-3.43.53h0c.3,4.09-.41,8.37-.33,12.43,0,1.25.09,2.5.13,3.76,0,.51-.16,2.28.2,2.6,1.18,1.06,3.58,1.3,5.08,1.45a19.8,19.8,0,0,0,6.64-.15c1.44-.37,1.36-1.16,1.39-2.59a17,17,0,0,1,.73-5.69,17.56,17.56,0,0,1,.93-2A22.66,22.66,0,0,1,170.46,168.5Z" style="fill:#fff"/><path d="M196.2,179c.34,3.61-.22,7.38-.59,11a25.86,25.86,0,0,0,8.61.77c2.35-.21,5.42-.85,6.65-3.12,1.47-2.73,1.4-6.24,1.53-9.26.1-2.35.11-4.7.09-7.06C207.55,174.92,202.19,177.82,196.2,179Z" style="fill:#fff"/><path d="M60.14,186.23a87.94,87.94,0,0,0-6.37,10.28A70.15,70.15,0,0,0,49,208c-.63,2-1.21,4.08-1.67,6.15-.24,1.08-.4,2.21-.6,3.31a6.27,6.27,0,0,1-.57,2.29A3.54,3.54,0,0,1,41.82,222a13.22,13.22,0,0,0-2,2.31,14.21,14.21,0,0,0-1.93,5.16,14.6,14.6,0,0,0,2.16,10.4c4.76,7,15.64,10.11,23.52,7.1,5.16-2,3.43-7.29,1.6-11.21-2.31-5-5.4-9.1-8.66-13.44-1.75-2.32-3-5.1-2.33-8.06.57-2.67,2.09-5.2,3.4-7.57a84.61,84.61,0,0,1,4.43-7.45c.83-1.19,1.67-2.37,2.52-3.54a12.36,12.36,0,0,1,1.26-1.43A118.41,118.41,0,0,1,63.41,182C62.29,183.39,61.18,184.78,60.14,186.23Z" style="fill:#aab036"/><path d="M84.12,52.23l.22-.5q1-2.1,2-4.19c-.33-.88-.65-1.77-1-2.63-.53-1.35,1.71-2.28,2.34-1l.24.49A88.32,88.32,0,0,1,98.41,28.66c-5.06-1.51-9.84-4.27-14.5-6.57a81,81,0,0,0-9.66-4.2,34.7,34.7,0,0,0-7.62-2c0,.23.09.45.14.68a23.12,23.12,0,0,0,.8,2.62A51.29,51.29,0,0,0,69.79,24l6,11.91,6,11.91ZM78.76,30.51c-.19-.5.59-.8.85-.36,1.31,2.22,2.69,4.41,3.89,6.69.86,1.65,2.36,3.55,2.18,5.47a.82.82,0,0,1-1.23.7c-1.81-1.21-2.36-3.84-3.18-5.77C80.32,35,79.58,32.75,78.76,30.51Z" style="fill:#f19b1f"/><path d="M212.27,113.35a35.82,35.82,0,0,0,13,8.18c5.31,2.07,11.16,4.42,16.9,4.79,10.14.67,19.2-5.35,24.93-13.42a49.49,49.49,0,0,0,9.27-29.59c-.22-10.22-3.5-21.06-11.31-28.06-7.24-6.49-17.58-9.58-27.22-9.38a35.24,35.24,0,0,0-7.07.81,2.48,2.48,0,0,1-1.84,3,21.66,21.66,0,0,0-10.12,6c-7.06,7.49-11.16,18.4-13,28.38a46,46,0,0,0-.8,7.63,4.23,4.23,0,0,1,.09,3.68C205.5,102,207.63,108.52,212.27,113.35Zm40.52-45.62c2.66,4.07,5.16,8.25,7.44,12.55,2.18,4.1,4.73,8.4,5.79,13a1.12,1.12,0,0,1-2,.86c-2.68-4-4.43-8.68-6.75-12.9q-3.35-6.08-7.17-11.86C248.95,67.62,251.69,66,252.79,67.73Zm-20.12-.18L244.3,86.28l5.82,9.36c1.81,2.91,4.09,6,5,9.32a1.36,1.36,0,0,1-2.26,1.32c-2.57-2.31-4.32-5.76-6.12-8.67l-5.82-9.36L229.31,69.52C228,67.38,231.35,65.43,232.67,67.55ZM222.9,81.22c3.51,5.24,6.79,10.64,9.77,16.2,1.49,2.78,2.94,5.58,4.24,8.46a40.52,40.52,0,0,1,3,7.78,1.06,1.06,0,0,1-1.93.81,77.49,77.49,0,0,1-4.31-8.38c-1.31-2.6-2.59-5.21-4-7.78q-4.32-8-9.35-15.6C219.28,81.12,221.85,79.64,222.9,81.22Z" style="fill:#72cff1"/><path d="M295.7,68.65c-4.53.32-8.69,3-12.93,4.55a52.86,52.86,0,0,1,1,8q1.11-.55,2.26-1a41.82,41.82,0,0,1,5.82-1.76c2.21-.52,4.44-1,6.63-1.57a9.84,9.84,0,0,0,3.15-1q-1.51-3.35-3.07-6.68A5.91,5.91,0,0,0,295.7,68.65Z" style="fill:#aab036"/><path d="M83,76.86q-.67,1.9-1.33,3.8a20.84,20.84,0,0,0,3.85,2.18l7,3.26c1.2.56,2.38,1.07,3.51,1.68,0-.22.09-.44.14-.67.27-1.26.59-2.51.93-3.75a26.81,26.81,0,0,1-6.69-2.81C88.17,79.28,85.67,77.57,83,76.86Z" style="fill:#aab036"/><path d="M278.93,19.69a6.68,6.68,0,0,1,6.72-.55c1.72.83.5,3.6-1.29,3a2.92,2.92,0,0,0-3.14,1,5.57,5.57,0,0,0-.85,1.64c.78.76,1.55,1.54,2.29,2.35C284.39,29.05,286,31,287.55,33c.09-.16.18-.31.26-.45a10.57,10.57,0,0,1,4.3-3.94c1.94-.94,3.63,1.87,1.7,2.91a6.94,6.94,0,0,0-3.56,5l0,.15c1.71,2.47,3.32,5,4.84,7.62A166.23,166.23,0,0,0,307.53,26.5a60.54,60.54,0,0,0,5.11-10.89c.73-2.18,2.7-6.49,1.26-8.76-1.69-2.65-6.8.09-8.87.92l-12.34,4.95c-4.11,1.65-8.23,3.29-12.36,4.9-1.9.74-3.78,1.53-5.7,2.21q1.19.92,2.34,1.9A7.08,7.08,0,0,1,278.93,19.69Z" style="fill:#f19b1f"/><path d="M91.78,54.77q-.65,1.41-1.28,2.84c-1.72,3.94-3.31,7.95-4.82,12a25,25,0,0,1,2.73,1.13c2.82,1.36,5.43,3.12,8.17,4.63a17.3,17.3,0,0,0,2.86,1.16,69.53,69.53,0,0,1,11.67-19.27c5.14-6,12-11.53,19.8-13.1a3.43,3.43,0,0,1,2.5-2c8.13-1.92,16.28,1,22.78,5.92a76.06,76.06,0,0,1,21.45,25.7,54.34,54.34,0,0,1,5.66,18.33,69.16,69.16,0,0,1,8.68-.95l5.49-.53c.39-10.23,3.85-20.56,8.62-29.47a46.41,46.41,0,0,1,6.55-9.42,13.3,13.3,0,0,1,4.6-7.25,27.78,27.78,0,0,1,10-5.07c7.5-2,15.36-1.56,22.85.21,10.5,2.48,20.25,8.14,26.18,17.35a46.11,46.11,0,0,1,5,10.47,78.89,78.89,0,0,1,8.27-3.72,21.84,21.84,0,0,1,5.73-1.47c-2-4.06-4.15-8.07-6.38-12-5.36-9.43-11.82-18.44-20.72-24.85a65.13,65.13,0,0,0-28.45-11.75c-20.14-3-41,5.14-54.24,20.53-1.5,1.75-4.44,1.54-6,0a4.3,4.3,0,0,1,0-6q1.48-1.73,3.07-3.34a68.16,68.16,0,0,0-5.8-3.72,62,62,0,0,0-9.33-4.6,54.88,54.88,0,0,0-21.35-3.47,57.56,57.56,0,0,0-38.38,17.36A82.47,82.47,0,0,0,93.27,51.65,2.86,2.86,0,0,1,91.78,54.77Z" style="fill:#aab036"/><path d="M345.09,244.53c.05-.82.19-1.68.26-2.54a23,23,0,0,1-7.62-1.22c0,.41-.07.82-.1,1.21l-.55,6.87a3.33,3.33,0,0,1-3.23,3.23c-1.74.16-5.12,1.89-5.43,4a9.76,9.76,0,0,0,4.24-.54,12.61,12.61,0,0,0,4.91-3.41c2.42-2.61,6.1.17,5.53,3.22a3.86,3.86,0,0,0,3.7,4.18,3.78,3.78,0,0,0,3.1-3.37c.1-2.69-2.54-4.12-3.64-6.35A10.36,10.36,0,0,1,345.09,244.53Z" style="fill:#fff"/><path d="M344.25,206.91c-4.46-.34-8.1,2.08-11.67,4.44-2,1.31-4.34,2.34-6.76,1.71a28.34,28.34,0,0,1-6.57-3c-3.21-1.81-7.09-3.88-9.74-6.7a77.2,77.2,0,0,1-14,13.72c1.15.89,2.21,2,3.37,3a26.54,26.54,0,0,0,7.6,4.62,27.94,27.94,0,0,0,18.42,1,3.47,3.47,0,0,1,4.21,2.39c.48,1.52,2.27,2.38,3.59,3.05a50.92,50.92,0,0,0,6,2.74c3.86,1.37,7.94,2,11.54-.39,6.86-4.58,6.93-14.52,2.48-20.82C350.87,210,347.67,207.17,344.25,206.91Z" style="fill:#aab036"/><path d="M312.06,183.59c9.54-20.88,9.32-45.18,4.07-67.15a206,206,0,0,0-11.59-34.05l-.06-.14c-3.53,2-8.4,2.56-11.86,3.55a21,21,0,0,0-7.55,3.39,9.19,9.19,0,0,1-1.6,1.07,56.46,56.46,0,0,1-11.64,28.68c-6.42,8.08-16,14.73-26.69,14.92-6.28.11-12.34-1.71-18.2-3.77-5.14-1.81-10.41-3.87-14.84-7.1a35.86,35.86,0,0,1-14.38-25.35l-5.74.22a67.2,67.2,0,0,1-8.44.14,36.89,36.89,0,0,1-1.36,9,39.47,39.47,0,0,1-8.47,15.16,64.41,64.41,0,0,1-12.41,11.37c-10,6.71-22.21,7.06-33.43,3.4-10-3.27-19.89-8.69-26.31-17.26-5.37-7.16-7.06-16-6.48-24.68a6.28,6.28,0,0,1-2.88-.58l-9.95-4.6a30.89,30.89,0,0,1-3.07-1.64l-.49,1.46c-4,11.83-7.62,23.87-9.62,36.22-1.95,12-1.79,24.1-1.08,36.2a2,2,0,0,1-.16,1c.09,1.43.2,2.85.32,4.28,1.75,20.2,5.47,44.41,24.95,55.24,20.9,11.62,45.57,5.7,67.34.14a3.82,3.82,0,0,1,4.77,3.64c.28,11.46.43,22.91.69,34.37a3.91,3.91,0,0,1-2.86,3.75,82.76,82.76,0,0,0-20.25,8.39,46.85,46.85,0,0,0,10.81.22,46.12,46.12,0,0,0,9.88-2.05c2-.65,5.83-1.49,6.89-3.53a8.61,8.61,0,0,0,.55-4q0-2.76,0-5.53,0-5.53.06-11.06c0-7.37,0-14.74.12-22.12a4.14,4.14,0,0,1,5.19-4,77.79,77.79,0,0,0,30.14,2.22c2.14-.26,4.21,2.06,4.1,4.1a325.9,325.9,0,0,1-4.83,41.1,59,59,0,0,0,14,0,55.38,55.38,0,0,0,8.9-1.87,8.17,8.17,0,0,0,4-2.18l-.39-.12-.46-.1-.28,0a18.89,18.89,0,0,1-6.51-1.4c-5.52-2.72-4.62-9.42-4.62-14.54,0-6.43-.09-12.87,0-19.3,0-3.23,1.15-6.72,4.6-7.76,2.78-.84,6-.2,8.79,0,12.1,1,24.71,2.52,36.63-.58C289.1,215.49,304.12,201,312.06,183.59Zm-221.74,15a1.24,1.24,0,0,1,0-2.48A1.24,1.24,0,0,1,90.32,198.55Zm.7-31.82a1.46,1.46,0,0,1-1.07.14l-.27-.05a1.34,1.34,0,0,1,0-2.58l.27-.05a1.44,1.44,0,0,1,1.35.36,1.39,1.39,0,0,1-.28,2.18ZM95.93,132c-3,2.66-6.42,4.83-8.6,8.28a26.15,26.15,0,0,0-4,12.06c-.35,4.14-.77,8.68-.1,12.82a16,16,0,0,0,1.43,4.95c.79,1.47,2,2.75,2.43,4.4a1.85,1.85,0,0,1-1.75,2.3c-4.77.43-7.18-6.42-7.7-10.1a59,59,0,0,1,0-15.06c.64-5.52,2.06-10.87,5.67-15.23,2.92-3.53,6.84-6.69,11.55-7.1A1.59,1.59,0,0,1,95.93,132Zm5.73,50.23a1.5,1.5,0,0,1,0,3A1.5,1.5,0,0,1,101.66,182.19Zm.57,24.53a1.47,1.47,0,0,1,0-2.93A1.47,1.47,0,0,1,102.23,206.72ZM239.55,137.5c2.49-.2,5.07.12,7.58.11,2.28,0,4.55,0,6.83-.13,2.53-.12,5.05-.3,7.56-.58,1.85-.21,4.36-.92,6,.27A1.39,1.39,0,0,1,268,139c-1.43,1.93-4.22,1.89-6.45,2.11-2.52.25-5,.44-7.56.53-4.8.17-10.18.49-14.88-.64C237,140.53,237.62,137.65,239.55,137.5Zm-35.76,11a1.71,1.71,0,0,1,0,3.41A1.71,1.71,0,0,1,203.8,148.51ZM183.94,157a1.69,1.69,0,1,1-1.69,1.69A1.7,1.7,0,0,1,183.94,157Zm-10.78-9.61a1.65,1.65,0,0,1,0,3.3A1.65,1.65,0,0,1,173.16,147.43Zm-54.45-7.86c4.87.39,9.74.87,14.63,1,4.38.11,9.15-.46,13.41.7a1,1,0,0,1,0,1.89c-4.34,1.63-9.64,1.05-14.18.79a107.31,107.31,0,0,1-14.23-1.62C116.78,142,117.13,139.44,118.71,139.57Zm1.11,74.23a1.74,1.74,0,0,1,0-3.49A1.74,1.74,0,0,1,119.82,213.81Zm3.76-13.21a1.93,1.93,0,0,1-1.41.19l-.4-.08a1.75,1.75,0,0,1,0-3.38l.4-.08a1.9,1.9,0,0,1,1.79.47,1.84,1.84,0,0,1-.37,2.88Zm20.07-17.22a1.39,1.39,0,0,1,0-2.78A1.39,1.39,0,0,1,143.65,183.38Zm10.21,14.68a1.32,1.32,0,0,1,0-2.63A1.32,1.32,0,0,1,153.87,198.06Zm93.62.67a2,2,0,1,1,2-2A2,2,0,0,1,247.49,198.73Zm3.4-10.73a1.47,1.47,0,0,1,0-2.93A1.47,1.47,0,0,1,250.89,188Zm14.91,9.67-.06.13a2.06,2.06,0,0,1-1.79,1,2.08,2.08,0,1,1,1.86-3A1.93,1.93,0,0,1,265.8,197.66ZM268,185.94c-3.7-1.37-6.25-5.28-7.43-8.91a21.29,21.29,0,0,1-1-5.84c-4.12,2.29-10.73-.29-14.21-2.8-.52-.37-1.42-1.39-2.15-1.82l-.18.3c-1,1.63-1.9,3.62-3.4,4.87A12.92,12.92,0,0,1,226,173.41a19.49,19.49,0,0,1-7.06-5.57,93.56,93.56,0,0,1-.27,13.69c-.34,4-.82,8.47-3.84,11.42-5.88,5.76-16.22,5-23.34,2.29-1.19-.45-2.42-1.54-2.26-3,.46-4.15.62-8.73,1.89-12.78a26.39,26.39,0,0,1-4.52-.33c-.28.73-.62,1.44-.94,2.09-.93,1.91-.28,4.51-.72,6.58-1.43,6.71-9,7.08-14.62,6.5-2.92-.3-6.31-.89-8.73-2.68-2.71-2-3.11-5-3.08-8.16s.17-6.52.51-9.76c.14-1.37.3-2.8.57-4.19l-1.53.74c-4.59,2.28-9.13,4.38-14.26,5.06a29.59,29.59,0,0,1-22.28-6.12,14.84,14.84,0,0,1-1.79,6.95c-1.31,2.33-3.11,5.08-5.4,6.52-2.73,1.72-5.45-1.57-4.15-4.15,1.12-2.23,3.33-3.78,4.55-6a11.68,11.68,0,0,0,1.05-6.91,109.4,109.4,0,0,0-3-16.15,1.55,1.55,0,0,1,2.81-1.19,40,40,0,0,1,5.38,14.53c6.8,5.13,15.94,7.83,24.34,5.67,4.67-1.2,8.68-3.79,13-5.73,4.09-1.82,10.58-4.63,14.76-1.55,3.43,2.53,4.79,6.7,8.67,8.77a19.44,19.44,0,0,0,10.76,2c9.24-.75,16.94-7.32,23.55-13.23a3.83,3.83,0,0,1,5.9.76c2.13,2.93,4.71,6.73,8.51,7.47,1.14.22,2.92.28,3.83-.61,1.08-1.06,1.6-2.53,2.48-3.75,1.26-1.72,2.74-3.32,5-3.67,2.67-.42,4.71.67,6.71,2.33a13.94,13.94,0,0,0,5.65,2.83c2.1.49,4,.47,5.91,1.48l.06-.36a51.86,51.86,0,0,1,3.83-11.93c1.45-3.13,3.37-5.5,6.8-6.32a1.9,1.9,0,0,1,1.46,3.46c-1.88,1.21-2.72,4.11-3.32,6.11a78.11,78.11,0,0,0-2.61,9.63,17.66,17.66,0,0,0,.42,8.53,11.82,11.82,0,0,0,1.73,3.36,29.77,29.77,0,0,0,2.73,2.53C273.19,182.78,271.14,187.09,268,185.94Zm6.18,21.64a2.32,2.32,0,0,1-.28.29,1.28,1.28,0,1,1,0-1.81,2.32,2.32,0,0,1,.28.29A.91.91,0,0,1,274.2,207.57Zm3.36-8.36a1.34,1.34,0,0,1,0-2.67A1.34,1.34,0,0,1,277.56,199.21Zm5.67-29.5a1.91,1.91,0,0,1,0-3.82A1.91,1.91,0,0,1,283.23,169.71Zm6.24,19.51a1.56,1.56,0,0,1,0-3.11A1.56,1.56,0,0,1,289.48,189.22Zm9.47-58.79c3.23,1.51,5.78,4.74,7.65,7.69a36.88,36.88,0,0,1,4.59,10.21,27,27,0,0,1,.24,12.34,54.46,54.46,0,0,1-1.77,6.49c-.59,1.76-1.31,3.53-2.93,4.54a2.06,2.06,0,0,1-3-1.22c-.61-1.84.16-3.77.74-5.53a50.71,50.71,0,0,0,1.45-5,22.88,22.88,0,0,0,0-10.89,36.84,36.84,0,0,0-3.63-9.11,52.17,52.17,0,0,0-5.34-6.88A1.68,1.68,0,0,1,298.94,130.44Zm-2.09,34.69c2.73,0,2.73,4.23,0,4.23S294.13,165.12,296.85,165.12Z" style="fill:#aab036"/><path d="M358.7,177.28c0-1-.09-3.93-1.39-4.25-1.87-.46-2.82,3.19-3.22,4.37-1,3.11-5.73,3.44-6.63,0-.57-2.17-1.14-5.56-3.25-6.86s-4.15.28-5.73,2c-1.29,1.39-2.85,3.54-2.06,5.54a2.34,2.34,0,0,0,2.94,1.55c2.33-.81,4.62,1.71,4,4-1.57,5.3-1.95,10.93-2.13,16.46a18.09,18.09,0,0,1,6.07.6q1.28-6.52,2.6-13a3.42,3.42,0,0,1,2.42-2.42A8.66,8.66,0,0,0,358.7,177.28Z" style="fill:#fff"/><path d="M135.48,49.69a3.93,3.93,0,0,1-2.22-.12A41.37,41.37,0,0,0,115.2,63.06,61.13,61.13,0,0,0,102.56,91c-1.61,10,0,20.16,7.39,27.48,6.88,6.78,16.47,11.29,25.95,13a29.68,29.68,0,0,0,16.31-1.2c4.85-2,8.94-5.51,12.56-9.2,3.82-3.9,7.65-8.21,9.47-13.46a33,33,0,0,0,1.54-15.74c-1.69-10.93-7.52-20.53-14.74-28.72C154.82,56,145.78,47.41,135.48,49.69Zm-3.18,69.72c-3.68-6.74-6.45-13.94-10.12-20.7a151.09,151.09,0,0,0-12.12-18.86c-1.34-1.78,1.65-3.48,3-1.74a146.68,146.68,0,0,1,12.59,19.4c3.6,6.67,7.05,13.66,8.47,21.15C134.29,119.7,132.86,120.44,132.3,119.41Zm11.53-12.89c-3.2-5.33-5.58-11.16-8.69-16.56S128.63,79.31,125,74.24c-1-1.36,1.27-2.65,2.24-1.31a180.26,180.26,0,0,1,10.57,16.31c3,5.22,6.26,10.67,8.05,16.43A1.12,1.12,0,0,1,143.82,106.52Zm14.47-11c-3.53-4.8-6.18-10.3-9.27-15.38s-6.46-10.09-10-14.9c-1.06-1.43,1.32-2.78,2.37-1.38,3.74,5,7.26,10.13,10.49,15.46,3,4.89,6.08,10.15,7.63,15.7C159.69,95.82,158.71,96.13,158.29,95.56Z" style="fill:#72cff1"/><path d="M271.11,180.64a29.77,29.77,0,0,1-2.73-2.53,11.82,11.82,0,0,1-1.73-3.36,17.66,17.66,0,0,1-.42-8.53,78.11,78.11,0,0,1,2.61-9.63c.6-2,1.44-4.9,3.32-6.11a1.9,1.9,0,0,0-1.46-3.46c-3.44.81-5.35,3.19-6.8,6.32a51.86,51.86,0,0,0-3.83,11.93l-.06.36c-1.92-1-3.8-1-5.91-1.48a13.94,13.94,0,0,1-5.65-2.83c-2-1.66-4-2.75-6.71-2.33-2.22.35-3.7,2-5,3.67-.89,1.21-1.41,2.69-2.48,3.75-.91.89-2.69.83-3.83.61-3.81-.74-6.38-4.55-8.51-7.47a3.83,3.83,0,0,0-5.9-.76c-6.62,5.9-14.32,12.48-23.55,13.23a19.44,19.44,0,0,1-10.76-2c-3.88-2.07-5.24-6.25-8.67-8.77-4.18-3.08-10.67-.27-14.76,1.55-4.36,1.95-8.37,4.53-13,5.73-8.4,2.16-17.53-.54-24.34-5.67a40,40,0,0,0-5.38-14.53,1.55,1.55,0,0,0-2.81,1.19,109.4,109.4,0,0,1,3,16.15,11.68,11.68,0,0,1-1.05,6.91c-1.21,2.23-3.43,3.78-4.55,6-1.29,2.58,1.42,5.87,4.15,4.15,2.29-1.44,4.1-4.19,5.4-6.52a14.84,14.84,0,0,0,1.79-6.95,29.59,29.59,0,0,0,22.28,6.12c5.13-.67,9.66-2.78,14.26-5.06l1.53-.74c-.27,1.4-.42,2.82-.57,4.19-.34,3.24-.47,6.5-.51,9.76s.36,6.15,3.08,8.16c2.42,1.79,5.81,2.38,8.73,2.68,5.59.58,13.19.2,14.62-6.5.44-2.06-.21-4.66.72-6.58.32-.65.66-1.36.94-2.09a26.39,26.39,0,0,0,4.52.33c-1.27,4-1.44,8.63-1.89,12.78-.16,1.43,1.08,2.53,2.26,3,7.11,2.68,17.46,3.47,23.34-2.29,3-3,3.5-7.45,3.84-11.42a93.56,93.56,0,0,0,.27-13.69,19.49,19.49,0,0,0,7.06,5.57,12.92,12.92,0,0,0,13.64-1.68c1.51-1.25,2.39-3.24,3.4-4.87l.18-.3c.74.44,1.63,1.45,2.15,1.82,3.48,2.51,10.09,5.09,14.21,2.8a21.29,21.29,0,0,0,1,5.84c1.18,3.63,3.73,7.54,7.43,8.91C271.14,187.09,273.19,182.78,271.11,180.64Zm-92-1.52a17,17,0,0,0-.73,5.69c0,1.42.05,2.21-1.39,2.59a19.8,19.8,0,0,1-6.64.15c-1.5-.15-3.9-.38-5.08-1.45-.36-.32-.18-2.09-.2-2.6,0-1.25-.11-2.5-.13-3.76-.09-4.06.62-8.34.33-12.43h0a8.62,8.62,0,0,1,3.43-.53c.9.13,1.32,1,1.75,1.73a22.66,22.66,0,0,0,9.56,8.62A17.56,17.56,0,0,0,179.09,179.12Zm33.31-.71c-.13,3-.06,6.53-1.53,9.26-1.23,2.28-4.3,2.92-6.65,3.12a25.86,25.86,0,0,1-8.61-.77c.37-3.66.93-7.43.59-11,6-1.15,11.35-4,16.29-7.61C212.51,173.7,212.5,176.05,212.4,178.41Z" style="fill:#6f2900"/><path d="M365.24,173.74c-.78-4.15-4.31-7.88-8.71-7.61a7.78,7.78,0,0,0-5.19,2.4,11.23,11.23,0,0,0-5.55-4.84c-5-2-9.81,1.17-13,4.89s-4.46,8.56-2.2,13a8.57,8.57,0,0,0,5.85,4.49,47.77,47.77,0,0,0,.09,14.94,33.41,33.41,0,0,0-4.66,2.31c-1.18.68-2.31,1.44-3.45,2.18s-1.32.46-2.43-.11a67,67,0,0,1-7.26-4.35c-1.75-1.19-3.3-2.51-5-3.58q1.61-2.46,3-5c11.41-20.5,13-45,9.44-67.74-3.76-24-13.89-46.63-24.63-68.24q-1.51-3-3.09-6a6,6,0,0,0,1.36-1.28q2.4-3,4.75-6.13a123.85,123.85,0,0,0,8.52-12.5,71.67,71.67,0,0,0,6-13.16c1.45-4.3,2.35-8.94.35-13.2S312.3-.53,308.31.39a46.23,46.23,0,0,0-7,2.66l-8,3.3c-5,2.09-10.09,4.18-15.11,6.32-2.49,1.06-5.87,2-8.35,3.79a78.25,78.25,0,0,0-14-7.18c-23-9.07-49.85-4.35-68.62,11.25A26,26,0,0,0,184.71,18a51.17,51.17,0,0,0-6.91-5,60.25,60.25,0,0,0-47.34-5.45A66.87,66.87,0,0,0,103,23.77c-2.47-1.26-5-2.4-7.48-3.67-3.63-1.86-7.24-3.76-10.91-5.55A68.73,68.73,0,0,0,73.17,10c-3.63-1-9.53-2.75-12.49.39s-.94,8.69.43,12c1.82,4.44,4.19,8.66,6.36,12.93l6.76,13.3,3.2,6.3c.88,1.74,1.63,3.88,3,5.33q-2.06,4.43-3.87,9A4.53,4.53,0,0,0,74.2,71a15.69,15.69,0,0,0-2.1,4.54,8.84,8.84,0,0,0,.21,5.22Q69,90.72,66.68,100.94q-.56,1.92-1.1,3.84c-4.2,15.18-7.69,32.58-4.48,48.44q.15,10.85,1.38,21.65a39.2,39.2,0,0,0-7,7,70.29,70.29,0,0,0-7.56,11.26,80.68,80.68,0,0,0-5.38,12.51c-.68,2-1.25,4.06-1.74,6.13-.28,1.19-.62,2.47-.86,3.75-3.62.83-6.08,4.7-7.54,8.07a49.67,49.67,0,0,0-5.12-.48c-2-7.91-9-16-17.68-14.25-5,1-6.16,6.95-5.45,11.14a21.09,21.09,0,0,0,3.44,8.43,15.43,15.43,0,0,0-6.81,7.95c-2.08,5.13-.07,12.25,5.2,14.57a8.68,8.68,0,0,0,8.31-.81c2.23-1.4,3.75-3.62,5.87-5.14,4.21-3,9.68-1.68,14.46-.68,4.34,6,11.76,9.4,19.1,10.37a27.34,27.34,0,0,0,6.82,0,3.41,3.41,0,0,0,1.49.8l9.14,2.19c2.91.7,5.89,1,8.81,1.6a30.66,30.66,0,0,0,6.67,8.26c1.42,1.24,3.47,3.14,5.51,3.06,2.52-.1,4.13-1.47,5.49-3.49,2.09-3.11,2.51-7.69,2-11.31a14.44,14.44,0,0,0-.75-3.07,11.29,11.29,0,0,0,5.15-4.65c2.55-4.42.83-10.09-2.69-13.41-3.9-3.68-9.55-3.65-14.17-1.53a13.27,13.27,0,0,0-3,2.06c-1.3,1.11-1.45,1.95-3.29,1.56-2.75-.59-5.67-1.61-8.52-1.58A52.14,52.14,0,0,0,65.62,223c-1.49-2.06-3.36-3.89-4.63-6.11a2.64,2.64,0,0,1,.09-2.47c.66-1.52,1.41-3,2.14-4.49,1.16-2.38,2.42-4.72,3.72-7,.34-.61.67-1.23,1-1.85a66.93,66.93,0,0,0,3.64,8.46,47.16,47.16,0,0,0,21.89,20.9c20.44,9.66,43.06,5.61,64.24.67.1,8.89.25,17.78.35,26.66a86.13,86.13,0,0,0-27.1,13.47c-2.7,2-2.52,6.07.94,7.18a55.08,55.08,0,0,0,22.38,2.38c7-.7,15.57-2.44,21-7.21,2.88-2.5,3.34-6.49,3.4-10.06.08-4.21.13-8.43.19-12.64.1-7,.23-13.91.32-20.87A83.92,83.92,0,0,0,202,231.67a318.27,318.27,0,0,1-5.14,38.93c-.4,2,.55,4.64,2.87,5.06a68.54,68.54,0,0,0,18.5.89c5.68-.52,12.26-1.4,17.22-4.4s7.55-8.9,3.31-13.61c-1.6-1.78-4.12-2.29-6.37-2.59l-1.39-.17-.92-.11c-.4-.07-.8-.16-1.19-.26a1.15,1.15,0,0,1-.4-.2,16,16,0,0,1,0-1.83c0-1.54,0-3.09,0-4.63q0-5,0-10,0-4.63,0-9.26c0-.27,0-.53,0-.8,1.5,0,3,.24,4.5.36,12.64,1,25.31,2.31,37.84-.38a61.35,61.35,0,0,0,19.12-7.76,2.57,2.57,0,0,0,.71.07c1.19-.05,2.29,1.88,3,2.68a26.5,26.5,0,0,0,3.69,3.26,33.33,33.33,0,0,0,26.72,6c2,2.61,5,4.15,8.07,5.57-.13.64-.23,1.29-.34,1.93-.3,1.87-.55,3.75-.81,5.63a13.06,13.06,0,0,0-6.23,3.77c-2.21,2.38-4.08,6.81-2.26,9.91,2,3.39,6.87,3.25,10.21,2.68a14.9,14.9,0,0,0,5.09-2c3,5.53,10.78,8.06,15.91,2.41a10.49,10.49,0,0,0,1.7-11.57c-.87-1.89-2.88-3.14-3.61-5.08a8.59,8.59,0,0,1,0-3.65,14.19,14.19,0,0,0,0-2c9.11-4,12.41-15.31,10-24.58a22.16,22.16,0,0,0-8.18-12.2q1.28-6.32,2.51-12.65A15.86,15.86,0,0,0,365.24,173.74Zm-340.69,63c-5.09.48-8.55,3-12.13,6.44-.79.75-2.3,2.36-3.56,1.79-1.74-.78-2.21-2.91-2.17-4.61a7.93,7.93,0,0,1,6.64-7.06c2.58-.25,4.68-3.52,2.32-5.59a15.16,15.16,0,0,1-4.55-7.16c-.31-1-1.34-5.13.6-5.29,2.53-.21,5.11,2.21,6.64,3.93a12.28,12.28,0,0,1,2.88,7,3.34,3.34,0,0,0,3.3,3.3c2.1-.11,4.24-.18,6.36-.41a23,23,0,0,0,.45,7.8A30.41,30.41,0,0,0,24.55,236.77ZM73.85,241c.91.26,1.85.48,2.77.71,2.2.54,4.84,1.58,7.12,1,2.06-.53,3.28-1.88,4.79-3.27a7.59,7.59,0,0,1,4.62-1.75,5.78,5.78,0,0,1,6,5.28,4.34,4.34,0,0,1-5.62,4.28c-3.83-1.21-5.37,4.67-1.64,6,2.32.8,1.85,5.69,1.57,7.44a13.66,13.66,0,0,1-.65,2.42q-.23.48-.51.93a.69.69,0,0,0-.06.12,22.91,22.91,0,0,1-4.3-4,23.44,23.44,0,0,1-3-4.54,3.91,3.91,0,0,0-2.88-2.19c-1.28-.34-2.43-.94-3.69-1.34-2.4-.75-4.83-1.4-7.26-2A12,12,0,0,0,73.85,241Zm-9.26-45.38c-.85,1.17-1.7,2.35-2.52,3.54a84.61,84.61,0,0,0-4.43,7.45c-1.31,2.37-2.84,4.9-3.4,7.57-.63,3,.59,5.73,2.33,8.06,3.26,4.34,6.36,8.48,8.66,13.44,1.82,3.92,3.56,9.24-1.6,11.21-7.89,3-18.76-.11-23.52-7.1a14.6,14.6,0,0,1-2.16-10.4,14.21,14.21,0,0,1,1.93-5.16,13.22,13.22,0,0,1,2-2.31,3.54,3.54,0,0,0,4.29-2.17,6.27,6.27,0,0,0,.57-2.29c.21-1.11.36-2.24.6-3.31.47-2.07,1-4.12,1.67-6.15a70.15,70.15,0,0,1,4.82-11.52,87.94,87.94,0,0,1,6.37-10.28c1-1.46,2.15-2.84,3.27-4.23a118.41,118.41,0,0,0,2.44,12.23A12.36,12.36,0,0,0,64.59,195.66Zm234-126.48q1.57,3.33,3.07,6.68a9.84,9.84,0,0,1-3.15,1c-2.19.6-4.42,1-6.63,1.57A41.82,41.82,0,0,0,286,80.17q-1.15.45-2.26,1a52.86,52.86,0,0,0-1-8c4.25-1.52,8.4-4.23,12.93-4.55A5.91,5.91,0,0,1,298.58,69.18ZM280.33,17.61c4.13-1.61,8.24-3.25,12.36-4.9L305,7.77c2.06-.83,7.18-3.57,8.87-.92,1.45,2.27-.52,6.58-1.26,8.76a60.54,60.54,0,0,1-5.11,10.89,166.23,166.23,0,0,1-12.47,17.83c-1.52-2.6-3.13-5.15-4.84-7.62l0-.15a6.94,6.94,0,0,1,3.56-5c1.93-1,.23-3.85-1.7-2.91a10.57,10.57,0,0,0-4.3,3.94c-.09.14-.18.29-.26.45-1.54-2-3.16-4-4.89-5.86-.74-.81-1.51-1.58-2.29-2.35a5.57,5.57,0,0,1,.85-1.64,2.92,2.92,0,0,1,3.14-1c1.79.55,3-2.22,1.29-3a6.68,6.68,0,0,0-6.72.55,7.08,7.08,0,0,0-2,2q-1.15-1-2.34-1.9C276.55,19.14,278.43,18.35,280.33,17.61ZM107.68,30.46A57.56,57.56,0,0,1,146.06,13.1a54.88,54.88,0,0,1,21.35,3.47,62,62,0,0,1,9.33,4.6,68.16,68.16,0,0,1,5.8,3.72q-1.59,1.61-3.07,3.34a4.3,4.3,0,0,0,0,6c1.54,1.54,4.48,1.75,6,0,13.2-15.39,34.1-23.52,54.24-20.53a65.13,65.13,0,0,1,28.45,11.75c8.9,6.41,15.36,15.42,20.72,24.85,2.23,3.93,4.35,7.94,6.38,12a21.84,21.84,0,0,0-5.73,1.47,78.89,78.89,0,0,0-8.27,3.72,46.11,46.11,0,0,0-5-10.47c-5.93-9.21-15.69-14.87-26.18-17.35-7.5-1.77-15.36-2.18-22.85-.21a27.78,27.78,0,0,0-10,5.07,13.3,13.3,0,0,0-4.6,7.25,46.41,46.41,0,0,0-6.55,9.42c-4.78,8.91-8.24,19.24-8.62,29.47l-5.49.53a69.16,69.16,0,0,0-8.68.95,54.34,54.34,0,0,0-5.66-18.33,76.06,76.06,0,0,0-21.45-25.7c-6.5-4.92-14.65-7.84-22.78-5.92a3.43,3.43,0,0,0-2.5,2c-7.82,1.57-14.66,7.11-19.8,13.1A69.53,69.53,0,0,0,99.44,76.51a17.3,17.3,0,0,1-2.86-1.16c-2.75-1.5-5.35-3.27-8.17-4.63a25,25,0,0,0-2.73-1.13c1.51-4,3.11-8,4.82-12q.62-1.43,1.28-2.84a2.86,2.86,0,0,0,1.49-3.12A82.47,82.47,0,0,1,107.68,30.46Zm97.26,61.27a46,46,0,0,1,.8-7.63c1.89-10,6-20.88,13-28.38a21.66,21.66,0,0,1,10.12-6,2.48,2.48,0,0,0,1.84-3,35.24,35.24,0,0,1,7.07-.81c9.64-.21,20,2.89,27.22,9.38,7.81,7,11.09,17.84,11.31,28.06a49.49,49.49,0,0,1-9.27,29.59C261.35,121,252.3,127,242.15,126.33c-5.74-.38-11.58-2.72-16.9-4.79a35.82,35.82,0,0,1-13-8.18c-4.65-4.83-6.78-11.31-7.24-17.94A4.23,4.23,0,0,0,204.94,91.73Zm-30.7,15.82c-1.82,5.25-5.65,9.56-9.47,13.46-3.62,3.69-7.7,7.25-12.56,9.2a29.68,29.68,0,0,1-16.31,1.2c-9.47-1.68-19.06-6.2-25.95-13-7.43-7.32-9-17.49-7.39-27.48A61.13,61.13,0,0,1,115.2,63.06a41.37,41.37,0,0,1,18.06-13.49,3.93,3.93,0,0,0,2.22.12c10.3-2.28,19.34,6.36,25.55,13.4,7.23,8.2,13.05,17.79,14.74,28.72A33,33,0,0,1,174.24,107.56ZM97.11,83.36c-.35,1.24-.66,2.49-.93,3.75,0,.22-.09.44-.14.67-1.13-.61-2.32-1.12-3.51-1.68l-7-3.26a20.84,20.84,0,0,1-3.85-2.18q.66-1.9,1.33-3.8c2.62.72,5.12,2.43,7.38,3.7A26.81,26.81,0,0,0,97.11,83.36ZM75.83,35.89,69.79,24a51.29,51.29,0,0,1-2.23-4.79,23.12,23.12,0,0,1-.8-2.62c-.05-.22-.09-.45-.14-.68a34.7,34.7,0,0,1,7.62,2,81,81,0,0,1,9.66,4.2c4.66,2.29,9.44,5.06,14.5,6.57A88.32,88.32,0,0,0,87.92,44.42l-.24-.49c-.63-1.29-2.87-.37-2.34,1,.34.86.65,1.75,1,2.63q-1,2.08-2,4.19l-.22.5L81.87,47.8ZM270.37,220.37c-11.92,3.11-24.53,1.57-36.63.58-2.84-.23-6-.87-8.79,0-3.45,1-4.55,4.53-4.6,7.76-.09,6.43,0,12.87,0,19.3,0,5.12-.9,11.83,4.62,14.54a18.89,18.89,0,0,0,6.51,1.4l.28,0,.46.1.39.12a8.17,8.17,0,0,1-4,2.18,55.38,55.38,0,0,1-8.9,1.87,59,59,0,0,1-14,0,325.9,325.9,0,0,0,4.83-41.1c.11-2-2-4.35-4.1-4.1a77.79,77.79,0,0,1-30.14-2.22,4.14,4.14,0,0,0-5.19,4c-.07,7.37-.08,14.74-.12,22.12q0,5.53-.06,11.06,0,2.76,0,5.53a8.61,8.61,0,0,1-.55,4c-1.06,2-4.91,2.89-6.89,3.53a46.12,46.12,0,0,1-9.88,2.05,46.85,46.85,0,0,1-10.81-.22A82.76,82.76,0,0,1,163,264.44a3.91,3.91,0,0,0,2.86-3.75c-.25-11.46-.41-22.92-.69-34.37a3.82,3.82,0,0,0-4.77-3.64c-21.77,5.56-46.44,11.48-67.34-.14-19.48-10.83-23.2-35-24.95-55.24-.12-1.42-.23-2.85-.32-4.28a2,2,0,0,0,.16-1c-.71-12.1-.86-24.19,1.08-36.2,2-12.35,5.62-24.39,9.62-36.22l.49-1.46a30.89,30.89,0,0,0,3.07,1.64l9.95,4.6a6.28,6.28,0,0,0,2.88.58c-.58,8.72,1.12,17.52,6.48,24.68,6.43,8.57,16.29,14,26.31,17.26,11.23,3.66,23.44,3.31,33.43-3.4a64.41,64.41,0,0,0,12.41-11.37A39.47,39.47,0,0,0,182.18,107a36.89,36.89,0,0,0,1.36-9,67.2,67.2,0,0,0,8.44-.14l5.74-.22A35.86,35.86,0,0,0,212.1,123c4.43,3.23,9.7,5.29,14.84,7.1,5.86,2.07,11.93,3.89,18.2,3.77,10.64-.19,20.27-6.84,26.69-14.92a56.46,56.46,0,0,0,11.64-28.68,9.19,9.19,0,0,0,1.6-1.07,21,21,0,0,1,7.55-3.39c3.45-1,8.33-1.58,11.86-3.55l.06.14a206,206,0,0,1,11.59,34.05c5.25,22,5.47,46.27-4.07,67.15C304.12,201,289.1,215.49,270.37,220.37Zm76.43,39.17a3.86,3.86,0,0,1-3.7-4.18c.57-3-3.11-5.83-5.53-3.22a12.61,12.61,0,0,1-4.91,3.41,9.76,9.76,0,0,1-4.24.54c.31-2.12,3.69-3.85,5.43-4a3.33,3.33,0,0,0,3.23-3.23l.55-6.87c0-.4.07-.8.1-1.21a23,23,0,0,0,7.62,1.22c-.07.86-.21,1.72-.26,2.54a10.36,10.36,0,0,0,1.18,5.29c1.1,2.24,3.75,3.66,3.64,6.35A3.78,3.78,0,0,1,346.8,259.54Zm3.48-26.07c-3.6,2.41-7.67,1.76-11.54.39a50.92,50.92,0,0,1-6-2.74c-1.33-.68-3.11-1.53-3.59-3.05a3.47,3.47,0,0,0-4.21-2.39,27.94,27.94,0,0,1-18.42-1,26.54,26.54,0,0,1-7.6-4.62c-1.16-1-2.23-2.11-3.37-3a77.2,77.2,0,0,0,14-13.72c2.65,2.82,6.54,4.89,9.74,6.7a28.34,28.34,0,0,0,6.57,3c2.42.63,4.78-.4,6.76-1.71,3.58-2.36,7.21-4.78,11.67-4.44,3.43.26,6.62,3.06,8.51,5.73C357.21,218.95,357.14,228.89,350.28,233.47Zm2-48.3a3.42,3.42,0,0,0-2.42,2.42q-1.32,6.51-2.6,13a18.09,18.09,0,0,0-6.07-.6c.18-5.54.56-11.16,2.13-16.46.66-2.24-1.62-4.77-4-4a2.34,2.34,0,0,1-2.94-1.55c-.8-2,.77-4.15,2.06-5.54,1.57-1.69,3.49-3.34,5.73-2s2.68,4.68,3.25,6.86c.9,3.44,5.58,3.11,6.63,0,.4-1.18,1.35-4.83,3.22-4.37,1.31.32,1.41,3.29,1.39,4.25A8.66,8.66,0,0,1,352.28,185.16Z" style="fill:#6f2900"/><path d="M125.62,97.5A146.68,146.68,0,0,0,113,78.1c-1.33-1.74-4.32,0-3,1.74A151.09,151.09,0,0,1,122.18,98.7c3.67,6.76,6.44,14,10.12,20.7.56,1,2,.29,1.8-.76C132.68,111.16,129.22,104.17,125.62,97.5Z" style="fill:#ccebf7"/><path d="M137.81,89.23a180.26,180.26,0,0,0-10.57-16.31c-1-1.34-3.22-.05-2.24,1.31q5.46,7.61,10.14,15.73c3.11,5.4,5.49,11.23,8.69,16.56a1.12,1.12,0,0,0,2-.86C144.06,99.9,140.79,94.45,137.81,89.23Z" style="fill:#ccebf7"/><path d="M151.85,79.36C148.62,74,145.1,68.88,141.36,63.9c-1-1.39-3.43,0-2.37,1.38q5.36,7.22,10,14.9c3.09,5.08,5.74,10.59,9.27,15.38.42.57,1.4.25,1.19-.5C157.93,89.51,154.81,84.25,151.85,79.36Z" style="fill:#ccebf7"/><path d="M229.7,98.32c1.38,2.56,2.66,5.18,4,7.78a77.49,77.49,0,0,0,4.31,8.38,1.06,1.06,0,0,0,1.93-.81,40.52,40.52,0,0,0-3-7.78c-1.3-2.87-2.75-5.68-4.24-8.46-3-5.56-6.26-11-9.77-16.2-1.06-1.58-3.62-.1-2.56,1.5Q225.37,90.3,229.7,98.32Z" style="fill:#ccebf7"/><path d="M240.94,88.25l5.82,9.36c1.81,2.91,3.56,6.36,6.12,8.67a1.36,1.36,0,0,0,2.26-1.32c-.94-3.33-3.22-6.41-5-9.32l-5.82-9.36L232.67,67.55c-1.32-2.13-4.69-.17-3.36,2Z" style="fill:#ccebf7"/><path d="M257.25,81.18c2.33,4.22,4.07,8.9,6.75,12.9a1.12,1.12,0,0,0,2-.86c-1.07-4.55-3.62-8.85-5.79-13-2.28-4.3-4.79-8.47-7.44-12.55-1.11-1.7-3.84-.11-2.72,1.59Q253.9,75.11,257.25,81.18Z" style="fill:#ccebf7"/><path d="M84.44,43a.82.82,0,0,0,1.23-.7c.18-1.93-1.32-3.83-2.18-5.47-1.19-2.28-2.58-4.47-3.89-6.69-.26-.44-1-.15-.85.36.82,2.24,1.56,4.54,2.5,6.74C82.08,39.17,82.64,41.8,84.44,43Z" style="fill:#6f2900"/><path d="M239.08,141c4.7,1.13,10.08.81,14.88.64,2.53-.09,5-.28,7.56-.53,2.23-.22,5-.18,6.45-2.11a1.39,1.39,0,0,0-.49-1.88c-1.6-1.19-4.11-.47-6-.27-2.51.28-5,.46-7.56.58-2.27.11-4.55.11-6.83.13-2.51,0-5.08-.31-7.58-.11C237.62,137.65,237,140.53,239.08,141Z" style="fill:#6f2900"/><path d="M118.33,142.34A107.31,107.31,0,0,0,132.57,144c4.54.26,9.84.84,14.18-.79a1,1,0,0,0,0-1.89c-4.26-1.16-9-.59-13.41-.7-4.89-.13-9.76-.61-14.63-1C117.13,139.44,116.78,142,118.33,142.34Z" style="fill:#6f2900"/><path d="M122.17,197.24l-.4.08a1.75,1.75,0,0,0,0,3.38l.4.08a1.93,1.93,0,0,0,1.41-.19,1.84,1.84,0,0,0,.37-2.88A1.9,1.9,0,0,0,122.17,197.24Z" style="fill:#6f2900"/><path d="M101.66,182.19a1.5,1.5,0,0,0,0,3A1.5,1.5,0,0,0,101.66,182.19Z" style="fill:#6f2900"/><path d="M102.23,203.79a1.47,1.47,0,0,0,0,2.93A1.47,1.47,0,0,0,102.23,203.79Z" style="fill:#6f2900"/><path d="M89.95,164.19l-.27.05a1.34,1.34,0,0,0,0,2.58l.27.05a1.46,1.46,0,0,0,1.07-.14,1.39,1.39,0,0,0,.28-2.18A1.44,1.44,0,0,0,89.95,164.19Z" style="fill:#6f2900"/><path d="M90.32,196.07a1.24,1.24,0,0,0,0,2.48A1.24,1.24,0,0,0,90.32,196.07Z" style="fill:#6f2900"/><path d="M119.82,210.32a1.74,1.74,0,0,0,0,3.49A1.74,1.74,0,0,0,119.82,210.32Z" style="fill:#6f2900"/><path d="M263.94,194.67a2.08,2.08,0,1,0,0,4.15,2.06,2.06,0,0,0,1.79-1l.06-.13a1.93,1.93,0,0,0,0-1.84A2.08,2.08,0,0,0,263.94,194.67Z" style="fill:#6f2900"/><path d="M277.56,196.54a1.34,1.34,0,0,0,0,2.67A1.34,1.34,0,0,0,277.56,196.54Z" style="fill:#6f2900"/><path d="M273.92,206.05a1.31,1.31,0,0,0-1.24-.33,1.28,1.28,0,1,0,1.24,2.14,2.32,2.32,0,0,0,.28-.29.91.91,0,0,0,0-1.23A2.32,2.32,0,0,0,273.92,206.05Z" style="fill:#6f2900"/><path d="M289.48,186.11a1.56,1.56,0,0,0,0,3.11A1.56,1.56,0,0,0,289.48,186.11Z" style="fill:#6f2900"/><path d="M250.89,185.06a1.47,1.47,0,0,0,0,2.93A1.47,1.47,0,0,0,250.89,185.06Z" style="fill:#6f2900"/><path d="M203.8,151.92a1.71,1.71,0,0,0,0-3.41A1.71,1.71,0,0,0,203.8,151.92Z" style="fill:#6f2900"/><path d="M183.94,160.41a1.69,1.69,0,1,0-1.69-1.69A1.7,1.7,0,0,0,183.94,160.41Z" style="fill:#6f2900"/><path d="M173.16,150.73a1.65,1.65,0,0,0,0-3.3A1.65,1.65,0,0,0,173.16,150.73Z" style="fill:#6f2900"/><path d="M143.65,180.6a1.39,1.39,0,0,0,0,2.78A1.39,1.39,0,0,0,143.65,180.6Z" style="fill:#6f2900"/><path d="M153.87,195.43a1.32,1.32,0,0,0,0,2.63A1.32,1.32,0,0,0,153.87,195.43Z" style="fill:#6f2900"/><path d="M247.49,194.76a2,2,0,1,0,2,2A2,2,0,0,0,247.49,194.76Z" style="fill:#6f2900"/><path d="M283.23,165.9a1.91,1.91,0,0,0,0,3.82A1.91,1.91,0,0,0,283.23,165.9Z" style="fill:#6f2900"/><path d="M296.85,165.12c-2.73,0-2.73,4.23,0,4.23S299.58,165.12,296.85,165.12Z" style="fill:#6f2900"/><path d="M302.27,139.94A36.84,36.84,0,0,1,305.9,149a22.88,22.88,0,0,1,0,10.89,50.71,50.71,0,0,1-1.45,5c-.58,1.76-1.35,3.69-.74,5.53a2.06,2.06,0,0,0,3,1.22c1.62-1,2.34-2.78,2.93-4.54a54.46,54.46,0,0,0,1.77-6.49,27,27,0,0,0-.24-12.34,36.88,36.88,0,0,0-4.59-10.21c-1.87-2.95-4.42-6.19-7.65-7.69a1.68,1.68,0,0,0-2,2.62A52.17,52.17,0,0,1,302.27,139.94Z" style="fill:#6f2900"/><path d="M94.82,129.27c-4.71.41-8.62,3.57-11.55,7.1-3.61,4.36-5,9.71-5.67,15.23a59,59,0,0,0,0,15.06c.53,3.68,2.93,10.53,7.7,10.1a1.85,1.85,0,0,0,1.75-2.3c-.4-1.65-1.65-2.92-2.43-4.4a16,16,0,0,1-1.43-4.95c-.67-4.13-.25-8.68.1-12.82a26.15,26.15,0,0,1,4-12.06c2.18-3.45,5.61-5.62,8.6-8.28A1.59,1.59,0,0,0,94.82,129.27Z" style="fill:#6f2900"/></svg>