<svg xmlns="http://www.w3.org/2000/svg" viewBox="0 0 331.93 328.65"><title>wave</title><ellipse cx="189.61" cy="300.96" rx="142.32" ry="27.69" style="fill:#1e1e1e;opacity:0.25"/><path d="M118.5,55.08c9.36-7.93,19.58-15.54,31.44-19.22,12.52-3.89,25.8-3.79,38.64-1.67a128.4,128.4,0,0,1,35.54,11.15c21,10.29,39.07,27.78,46.68,50.29,4.26,12.59,5.07,26.32,4.49,39.52a173.51,173.51,0,0,1-3.85,29.71,36.78,36.78,0,0,0,9,7.09,23.38,23.38,0,0,0,.5-3,43.25,43.25,0,0,0,0-7.9c-.3-3.3,3.55-4.6,6-3.45a10.12,10.12,0,0,1,3.72,3.22c.63.83,1.14,1.92,1.82,2.74,0-.87,0-1.75.08-2.59a155.56,155.56,0,0,0-.78-22.77c-.31-2.9,2.79-4.21,5.11-3.89l1.17.17a84.65,84.65,0,0,0-16-39.93c-1.81-2.43.61-6.49,3.57-6.22,1.83.17,3.65.36,5.48.55-3.55-21.47-25.09-34.62-42.74-44.43-2.92-1.62-2.46-6.59,1-7.31A15.25,15.25,0,0,0,254.64,35a83.12,83.12,0,0,0-66-12.84c-3.85.9-6.83-3.79-3.91-6.71q3.5-3.49,6.9-7.07A116.31,116.31,0,0,0,131.34,31.3c-3.17,2.39-6.78-2.09-5.11-5.11a5.54,5.54,0,0,0,.46-1.08c-14.9,11.28-24.18,28.35-27.41,46.66A20.71,20.71,0,0,1,105.09,68,147.06,147.06,0,0,1,118.5,55.08Z" style="fill:#097f98"/><path d="M50.76,163.29a43.66,43.66,0,0,1-24.7-19.4,52.56,52.56,0,0,1-6.89-31.69c.58-5.52,1.62-11.4,4.23-16.37a13.39,13.39,0,0,1,6.29-6.33c2.82-1.22,5.65-.89,8.57-1.48a12.51,12.51,0,0,0,6.63-3.33A11.44,11.44,0,0,0,47,82c.49-.95.66-1.21.33-1.65-.53-.71-2.39-.89-3.48-.3a20.81,20.81,0,0,0-5.67,5.14c-2.37,2.75-7.25.55-7.11-2.94l.55-13.54c.07-1.84,1-6.92-1.1-8a.92.92,0,0,0-.25-.08,1.93,1.93,0,0,0-.1.22c-.72,2-1.42,4.07-2.12,6.1L23.91,78.78c-1.47,4.24-8.38,3.8-8.16-1.1.15-3.23.79-8.19-1.73-10.75a3.93,3.93,0,0,0-3-1.56,1.61,1.61,0,0,0-1.37.95c-3.07,5.29,2,11.73,3.71,17.08a18.81,18.81,0,0,1,.64,9.7c-.61,2.86-1.81,5.53-2.68,8.31a65.64,65.64,0,0,0,4.9,51.23c2.81,5,6.33,9.33,11.49,12,5,2.53,10.59,3.65,16.08,4.22a160.8,160.8,0,0,0,37.86-.61q-1.14-3.4-2.19-6.82C70.77,166,60.08,166.21,50.76,163.29Z" style="fill:#ebc71a"/><path d="M30.43,60.32c.09-.06.07-.07,0,0Z" style="fill:#ebc71a"/><path d="M302.73,291.75l-9.14-3.94c-1.76-.76-2.29-3.06-1.93-4.74,4.59-21.07.83-42.84-4.71-63.34-3.69-13.65-9-28.83-20.12-38.21q-1.87,5.6-4.15,11.06c-1.16,2.76-2.34,5.56-3.65,8.29a104.74,104.74,0,0,1,6.88,8.7,109.93,109.93,0,0,1,20,64.57c-.08,6-.37,12.19-2.13,17.93a29.33,29.33,0,0,1-4,8.56c-1.56,2.15-3.45,4.1-4.89,6.33-.83,1.29-2.06,3.37-.94,4.37a3.88,3.88,0,0,0,3.13.46c4-1.14,4.54-6.83,4.38-10.78s5.81-5.73,7.61-2.06a40.45,40.45,0,0,0,5.67,8.84,13.14,13.14,0,0,0,2.84,2.8,6.38,6.38,0,0,0,1.38.7c0-.06,0-.13,0-.21a12.2,12.2,0,0,0-.19-2.16,16.47,16.47,0,0,0-1.21-3.94,18.68,18.68,0,0,0-5.45-6.66c-3.76-2.92,1.08-8.91,5-6.5a14.11,14.11,0,0,0,7.41,2.25,15,15,0,0,0,3-.25l-.19-.08Z" style="fill:#ebc71a"/><path d="M262.95,99.19C256,77.13,238.08,60.47,217.41,51a119.47,119.47,0,0,0-35.24-10c-12.49-1.48-25.58-.92-37.07,4.67C134.51,50.82,125,58.45,116.58,66.57a124.46,124.46,0,0,0-21.16,26A84.26,84.26,0,0,0,84.1,123.1c-1.86,12.57.38,25.17,3.55,37.34q2.49,9.54,5.86,18.82A153.57,153.57,0,0,0,102,197.63,124.23,124.23,0,0,0,111.06,212c1.73,2.31,3.59,4.51,5.5,6.67.86,1,1.73,1.93,2.53,2.93l.17-.07a4.5,4.5,0,0,1,5.51,3.13,4.56,4.56,0,0,1-3.13,5.51c.67-.24-.37.25-.77.47-.08.09-.83.72-.78.66a14.54,14.54,0,0,0-1.83,2.08,18,18,0,0,0-2.75,5.44c-.05.21-.26,1.7-.26,1.23,0,.57,0,1.14,0,1.71,0,1.42.08,2.84.19,4.26a61.94,61.94,0,0,0,1.14,7.95,68.69,68.69,0,0,0,15.1,30.77c1.7,2,1.9,5.76-.9,7-4.45,2-9,3.81-13.53,5.47a94.79,94.79,0,0,0,20.22,2.07,135.44,135.44,0,0,1-7.3-60.41c.38-3.41,3.59-5.73,6.87-3.94a48.8,48.8,0,0,0,7,3.19,56.84,56.84,0,0,0,32.55,1.84,58.78,58.78,0,0,0,8.43-2.72c2.37-1,4.51-2.35,6.8-3.49,3.17-1.59,7-1.7,9.43,1.39a59.13,59.13,0,0,1,4.6,6.76,67.47,67.47,0,0,1,4.26,57.27l17-.38c1.61,0,3.27,0,5,0l-9.47-3a4.62,4.62,0,0,1-2-7.63c6.6-6.89,9.12-16.79,8.26-26.16-.95-10.31-5.76-19.78-11.67-28.1-1.55-2.19-.24-5,1.66-6.32q7.31-5.23,14.47-10.68c4.25-3.24,8.58-6.57,11.93-10.78s5.7-9.23,7.84-14.12a155.25,155.25,0,0,0,5.88-15.73,159.81,159.81,0,0,0,7.22-37.9C266.95,125.31,266.9,111.69,262.95,99.19ZM182.76,88.84c3.89-5.26,9.8-10.6,16.74-10.77,15.57-.39,18,21.75,17.79,33-.08,5.2-8.11,5.21-8.07,0a54.91,54.91,0,0,0-2.58-18.26c-1.22-3.51-3.49-7.56-7.81-7s-8.68,4.66-11,8.25a31.16,31.16,0,0,0-4.31,11.33,2.3,2.3,0,0,1-1,3.73l-.61.19c-1.42.68-3.74.25-4-1.64A25.87,25.87,0,0,1,182.76,88.84Zm-22.65,84.95v0l0-.19a6.1,6.1,0,0,1,.4-1.17,7.76,7.76,0,0,1,1.79-2.55,2.3,2.3,0,0,1,3.8,1,2.11,2.11,0,0,1,.72,1.24,8.26,8.26,0,0,1-2.22,7.64c-1.05,1-3.33,1-4-.51A8.9,8.9,0,0,1,160.11,173.79Zm-8.84-4.2a4.7,4.7,0,0,1,2.46,3.44,7.84,7.84,0,0,1-1,4.64,2.33,2.33,0,0,1-3.63.47,6,6,0,0,1-1.67-4.9,6.49,6.49,0,0,1-.16-1.35A2.69,2.69,0,0,1,151.27,169.59ZM114.57,91c2.92-4.72,7.76-10.05,13.94-9.5,5.82.52,9.69,4.59,11.73,9.85a34.26,34.26,0,0,1,1.67,19c-.75,4.35-8,3.34-7.68-1,.34-4.86.76-9.49-.64-14.26-.76-2.6-2.37-6.87-5.73-6.75-4.37.16-7,4.32-9.12,7.65a48.26,48.26,0,0,0-3.66,6.49,23.23,23.23,0,0,0-1.44,6.26c-.32,2.31-3.34,1.62-4,0C107.23,102.91,111.63,95.76,114.57,91ZM98.48,142a1.8,1.8,0,0,1-2.69,1.42c-4.69-2.7,3.36-9.2,5.67-10.66,2-1.29,4.91-2.82,7.42-2a8.49,8.49,0,0,1,3.33,2,9,9,0,0,0,2.16,1.22,2.69,2.69,0,0,1,.54,4.21,4.11,4.11,0,0,1-5.08.47c-1.18-.81-2.17-2.59-3.71-2.05A17.51,17.51,0,0,0,98.48,142Zm127.67,15.43a60.72,60.72,0,0,1-22,35,61.34,61.34,0,0,1-31,12.7c-12.72,1.55-26.55,1.4-38.43-3.9a53.65,53.65,0,0,1-24.45-22.12c-5.83-10.33-9.52-23.59-7.5-35.48.42-2.46,3.7-1.5,4,.54.7,5.43,1.09,10.8,2.62,16.1A56,56,0,0,0,115.85,175c5.74,9,14.14,16.53,24.41,19.88a58,58,0,0,0,18.6,2.64,89.45,89.45,0,0,0,19.54-1.86A53.36,53.36,0,0,0,218,155.14a4.26,4.26,0,0,1,5.21-3A4.31,4.31,0,0,1,226.16,157.39Zm3.2-8.27c-1.8-3.53-5.64-4.55-8.51-1.44-1.59,1.73-4.58-.54-3.26-2.52,4-6,13.74-6,16.84,1C235.92,149.54,231.11,152.55,229.36,149.12Z" style="fill:#ebc71a"/><path d="M312.07,286.75a117.16,117.16,0,0,0-11.6-5.08c3.83-21.41.23-43.36-5.72-64.09-4.57-15.91-11.64-32.82-26.1-41.85.16-.54.32-1.07.47-1.61l.1-.37q1.46,1.24,3,2.39c2.68,2,7.1,5.37,10.67,4.18,3.34-1.11,4.79-3.89,5.44-7.17.15-.77.27-1.55.38-2.32a10,10,0,0,0,1.07.67c4.14,2.22,9,.58,10.3-4,.58-2,.43-4.42.53-6.48.12-2.53.15-5.06.13-7.6q0-5.2-.41-10.4l1.27.2c2.46.39,5.35-1.05,5.19-4a92.37,92.37,0,0,0-13-41.85l1.89.18a4.09,4.09,0,0,0,4.1-4.1C299.24,81,293.26,69.75,285,60.7c-7.24-7.9-16.31-13.85-25.58-19.21a21.76,21.76,0,0,0,4.36-3.91c1.28-1.52,1.81-4.23,0-5.66a91.6,91.6,0,0,0-65-19.49q2.59-2.78,5.14-5.6c2.27-2.53.8-6.82-2.82-6.82a122.25,122.25,0,0,0-67.2,20.36A12.47,12.47,0,0,0,132.39,17a3.75,3.75,0,0,0-5.08-1.33C106.64,28.9,91.9,53.26,93.15,78.18A81.82,81.82,0,0,0,84.6,90.32a82.83,82.83,0,0,0-10.26,30.94c-1.49,11.49.2,22.86,3.28,33.93a39.68,39.68,0,0,1-25.2-.13c-9.56-3.23-16.84-10.34-21.15-19.34-4.4-9.2-5-20.2-2.53-30a26,26,0,0,1,2.5-6.79c1.35-2.35,3.66-2.32,6.1-2.5a21,21,0,0,0,15.37-8.14c2.22-2.88,3.54-6.19,2.79-9.85-.62-3-3.46-5.3-6.2-6.34a11.12,11.12,0,0,0-9.46.75c.12-2.65.22-5.3.25-7.94.07-5.53-2.09-10.22-7.37-12.33a8.23,8.23,0,0,0-6.77.7c-2.47,1.33-3.43,4.21-4.29,6.67l-.8,2.32A13.71,13.71,0,0,0,19,60.19c-4.39-3.92-11.24-4.25-15.29.33C.26,64.41-.09,70.1,1.06,74.93c1.28,5.36,5.37,9.9,5,15.62-.16,2.67-1.67,5.46-2.51,8a67.26,67.26,0,0,0-2.31,9.07A74.54,74.54,0,0,0,.14,125.91c.74,12.07,4.41,24.4,11.17,34.49A33.9,33.9,0,0,0,25.39,172.6c5.81,2.66,12.06,3.75,18.38,4.45a155,155,0,0,0,40.65-.95q2.66,7.16,5.76,14.13a123.53,123.53,0,0,0,10.77,19.45c1.3,2.18,2.65,4.32,4.08,6.41,2.33,3.4,5,6.91,8.37,9.22a27,27,0,0,0-5.81,9.13c-2.38,5.94-1.15,13-.15,19.11a75.68,75.68,0,0,0,14,32.55A176.53,176.53,0,0,1,100.49,293c-4.66,1.23-4,7.23,0,8.75a101.26,101.26,0,0,0,43.45,6.36c2.61-.19,5.56-2.8,4.35-5.72a129.2,129.2,0,0,1-9.55-56.58,65.42,65.42,0,0,0,44.8,1.53,66.84,66.84,0,0,0,8-3.27c1.23-.59,2.43-1.24,3.62-1.92l.14-.09c12.39,17.17,13.7,41,3.64,59.53-1.6,3,.37,6.94,3.93,6.85l25.85-.61c7.88-.19,16.06-.11,23.09-4.19,3.53-2,2.54-7-1.08-8.26-6.45-2.15-12.9-4.31-19.37-6.41a43.94,43.94,0,0,0,6.68-25.7c-.47-11-4.74-21.47-10.63-30.65q6.24-4.55,12.37-9.26c5.23-4,10.06-8.16,14-13.51.27-.37.53-.74.79-1.11a102,102,0,0,1,22.72,55.75,106.54,106.54,0,0,1,0,17.42c-.42,5.42-1.71,11.07-5.13,15.43-3.63,4.63-7.8,9.1-6.47,15.45,1.06,5.07,6.71,7.7,11.46,7.2,5.19-.55,8.53-3.7,10.42-7.81,4.22,5.39,9.91,9.75,15.89,6.31,4.87-2.8,3.89-9.78,2.51-14.25-.19-.62-.41-1.24-.66-1.84,4.24,0,8.85-1.2,11.49-4.66C320,293.56,315.53,288.62,312.07,286.75ZM126.68,25.12a5.54,5.54,0,0,1-.46,1.08c-1.67,3,1.94,7.5,5.11,5.11A116.31,116.31,0,0,1,191.59,8.38q-3.4,3.58-6.9,7.07c-2.93,2.92.06,7.61,3.91,6.71a83.12,83.12,0,0,1,66,12.84,15.25,15.25,0,0,1-5.28,2.15c-3.42.72-3.87,5.69-1,7.31,17.65,9.81,39.18,23,42.74,44.43-1.83-.19-3.65-.38-5.48-.55-3-.27-5.38,3.79-3.57,6.22a84.65,84.65,0,0,1,16,39.93l-1.17-.17c-2.32-.32-5.42,1-5.11,3.89a155.56,155.56,0,0,1,.78,22.77c0,.85,0,1.72-.08,2.59-.68-.82-1.19-1.92-1.82-2.74a10.12,10.12,0,0,0-3.72-3.22c-2.47-1.15-6.31.15-6,3.45a43.25,43.25,0,0,1,0,7.9,23.38,23.38,0,0,1-.5,3,36.78,36.78,0,0,1-9-7.09,173.51,173.51,0,0,0,3.85-29.71c.58-13.2-.23-26.93-4.49-39.52-7.61-22.51-25.66-40-46.68-50.29a128.4,128.4,0,0,0-35.54-11.15c-12.84-2.12-26.12-2.21-38.64,1.67-11.85,3.68-22.08,11.29-31.44,19.22A147.06,147.06,0,0,0,105.09,68a20.71,20.71,0,0,0-5.82,3.79C102.51,53.46,111.78,36.39,126.68,25.12ZM30.43,60.32c.07-.07.09-.06,0,0Zm13.34,108.5c-5.5-.58-11.13-1.7-16.08-4.22-5.16-2.63-8.68-7-11.49-12a65.64,65.64,0,0,1-4.9-51.23c.87-2.78,2.06-5.45,2.68-8.31a18.81,18.81,0,0,0-.64-9.7C11.64,78,6.56,71.6,9.62,66.31A1.61,1.61,0,0,1,11,65.37a3.93,3.93,0,0,1,3,1.56c2.52,2.57,1.88,7.53,1.73,10.75-.23,4.91,6.69,5.34,8.16,1.1L28,66.91c.71-2,1.4-4.07,2.12-6.1a1.93,1.93,0,0,1,.1-.22.92.92,0,0,1,.25.08c2.11,1.09,1.17,6.18,1.1,8l-.55,13.54c-.14,3.5,4.73,5.69,7.11,2.94A20.81,20.81,0,0,1,43.83,80c1.1-.59,3-.41,3.48.3.33.44.16.7-.33,1.65a11.44,11.44,0,0,1-2.09,2.73A12.51,12.51,0,0,1,38.26,88c-2.92.59-5.75.25-8.57,1.48a13.39,13.39,0,0,0-6.29,6.33c-2.61,5-3.65,10.85-4.23,16.37a52.56,52.56,0,0,0,6.89,31.69,43.66,43.66,0,0,0,24.7,19.4c9.31,2.92,20,2.69,28.67-1.91q1.05,3.42,2.19,6.82A160.8,160.8,0,0,1,43.77,168.81ZM253,191.9c-2.15,4.89-4.5,9.92-7.84,14.12s-7.68,7.54-11.93,10.78q-7.14,5.46-14.47,10.68c-1.9,1.36-3.21,4.13-1.66,6.32,5.91,8.33,10.72,17.79,11.67,28.1.86,9.36-1.65,19.26-8.26,26.16a4.62,4.62,0,0,0,2,7.63l9.47,3c-1.68,0-3.34,0-5,0l-17,.38a67.47,67.47,0,0,0-4.26-57.27,59.13,59.13,0,0,0-4.6-6.76c-2.39-3.09-6.26-3-9.43-1.39-2.28,1.15-4.43,2.51-6.8,3.49a58.78,58.78,0,0,1-8.43,2.72A56.84,56.84,0,0,1,144,238.11a48.8,48.8,0,0,1-7-3.19c-3.28-1.78-6.5.53-6.87,3.94a135.44,135.44,0,0,0,7.3,60.41,94.79,94.79,0,0,1-20.22-2.07c4.57-1.66,9.08-3.49,13.53-5.47,2.8-1.25,2.6-5,.9-7A68.69,68.69,0,0,1,116.58,254a61.94,61.94,0,0,1-1.14-7.95c-.12-1.42-.17-2.84-.19-4.26,0-.57,0-1.14,0-1.71,0,.47.21-1,.26-1.23a18,18,0,0,1,2.75-5.44,14.54,14.54,0,0,1,1.83-2.08c-.06.06.7-.57.78-.66.4-.22,1.44-.71.77-.47a4.56,4.56,0,0,0,3.13-5.51,4.5,4.5,0,0,0-5.51-3.13l-.17.07c-.8-1-1.66-2-2.53-2.93-1.91-2.16-3.77-4.36-5.5-6.67A124.23,124.23,0,0,1,102,197.63a153.57,153.57,0,0,1-8.47-18.38q-3.38-9.26-5.86-18.82c-3.17-12.17-5.42-24.77-3.55-37.34A84.26,84.26,0,0,1,95.42,92.59a124.46,124.46,0,0,1,21.16-26c8.47-8.12,17.93-15.75,28.52-20.9,11.49-5.59,24.59-6.15,37.07-4.67a119.47,119.47,0,0,1,35.24,10c20.66,9.46,38.55,26.12,45.53,48.19,4,12.5,4,26.12,3.18,39.08a159.81,159.81,0,0,1-7.22,37.9A155.25,155.25,0,0,1,253,191.9Zm51.5,102.15a14.11,14.11,0,0,1-7.41-2.25c-3.93-2.41-8.77,3.58-5,6.5a18.68,18.68,0,0,1,5.45,6.66,16.47,16.47,0,0,1,1.21,3.94,12.2,12.2,0,0,1,.19,2.16c0,.08,0,.15,0,.21a6.38,6.38,0,0,1-1.38-.7,13.14,13.14,0,0,1-2.84-2.8,40.45,40.45,0,0,1-5.67-8.84c-1.79-3.66-7.77-1.89-7.61,2.06s-.33,9.64-4.38,10.78a3.88,3.88,0,0,1-3.13-.46c-1.12-1,.11-3.07.94-4.37,1.44-2.23,3.33-4.18,4.89-6.33a29.33,29.33,0,0,0,4-8.56c1.77-5.74,2.05-12,2.13-17.93a109.93,109.93,0,0,0-20-64.57,104.74,104.74,0,0,0-6.88-8.7c1.31-2.73,2.49-5.52,3.65-8.29q2.29-5.45,4.15-11.06C278,190.9,283.26,206.08,287,219.73c5.54,20.5,9.3,42.27,4.71,63.34-.36,1.67.17,4,1.93,4.74l9.14,3.94,4.57,2,.19.08A15,15,0,0,1,304.53,294.05Z" style="fill:#6f2900"/><path d="M223.2,152.18a4.26,4.26,0,0,0-5.21,3,53.36,53.36,0,0,1-39.59,40.54,89.45,89.45,0,0,1-19.54,1.86,58,58,0,0,1-18.6-2.64C130,191.54,121.59,184,115.85,175a56,56,0,0,1-6.47-14.74c-1.53-5.3-1.92-10.67-2.62-16.1-.26-2-3.55-3-4-.54-2,11.89,1.66,25.15,7.5,35.48a53.65,53.65,0,0,0,24.45,22.12c11.88,5.3,25.71,5.45,38.43,3.9a61.34,61.34,0,0,0,31-12.7,60.72,60.72,0,0,0,22-35A4.31,4.31,0,0,0,223.2,152.18Z" style="fill:#6f2900"/><path d="M217.59,145.16c-1.31,2,1.67,4.25,3.26,2.52,2.87-3.11,6.71-2.09,8.51,1.44s6.56.42,5.07-3C231.33,139.12,221.6,139.13,217.59,145.16Z" style="fill:#6f2900"/><path d="M109.83,138.64a4.11,4.11,0,0,0,5.08-.47,2.69,2.69,0,0,0-.54-4.21,9,9,0,0,1-2.16-1.22,8.49,8.49,0,0,0-3.33-2c-2.51-.84-5.38.69-7.42,2-2.31,1.46-10.36,8-5.67,10.66A1.8,1.8,0,0,0,98.48,142a17.51,17.51,0,0,1,7.64-5.37C107.66,136.06,108.65,137.83,109.83,138.64Z" style="fill:#6f2900"/><path d="M149.1,178.14a2.33,2.33,0,0,0,3.63-.47,7.84,7.84,0,0,0,1-4.64,4.7,4.7,0,0,0-2.46-3.44,2.69,2.69,0,0,0-4,2.3,6.49,6.49,0,0,0,.16,1.35A6,6,0,0,0,149.1,178.14Z" style="fill:#6f2900"/><path d="M164.66,179.68a8.26,8.26,0,0,0,2.22-7.64,2.11,2.11,0,0,0-.72-1.24,2.3,2.3,0,0,0-3.8-1,7.76,7.76,0,0,0-1.79,2.55,6.1,6.1,0,0,0-.4,1.17l0,.19v0a8.9,8.9,0,0,0,.56,5.38C161.33,180.71,163.61,180.71,164.66,179.68Z" style="fill:#6f2900"/><path d="M113.63,108.68a23.23,23.23,0,0,1,1.44-6.26,48.26,48.26,0,0,1,3.66-6.49c2.08-3.33,4.75-7.5,9.12-7.65,3.36-.12,5,4.15,5.73,6.75,1.4,4.77,1,9.39.64,14.26-.31,4.37,6.93,5.39,7.68,1a34.26,34.26,0,0,0-1.67-19c-2-5.26-5.91-9.33-11.73-9.85-6.18-.55-11,4.78-13.94,9.5s-7.33,11.89-4.94,17.66C110.29,110.3,113.31,111,113.63,108.68Z" style="fill:#6f2900"/><path d="M181.87,109.3l.61-.19a2.3,2.3,0,0,0,1-3.73A31.16,31.16,0,0,1,187.83,94c2.31-3.59,6.56-7.68,11-8.25s6.58,3.5,7.81,7a54.91,54.91,0,0,1,2.58,18.26c0,5.21,8,5.2,8.07,0,.18-11.24-2.22-33.39-17.79-33-6.93.18-12.84,5.51-16.74,10.77a25.87,25.87,0,0,0-4.91,18.82C178.13,109.54,180.45,110,181.87,109.3Z" style="fill:#6f2900"/><ellipse cx="124.62" cy="124.74" rx="15.68" ry="5.76" style="fill:#ee5b95"/><ellipse cx="198.69" cy="124.74" rx="15.68" ry="5.76" style="fill:#ee5b95"/><path d="M243.19,79.48a10.5,10.5,0,0,0-4.54-2.75,4.55,4.55,0,0,0-5.12,6.75c3.37,5.56,18.79,9.48,18.82,16.89A29,29,0,0,0,243.19,79.48Z" style="fill:#fff"/><path d="M121.18,39.27c-1.84.74-2.5,2.5-3.31,4.2-1,2-1.84,4.05-2.61,6.14a32.86,32.86,0,0,0-1.62,6.65c-.29,2-.77,4.37.75,5.94a1.26,1.26,0,0,0,1.78,0c1.15-1.38,1-3,1.13-4.68a29.58,29.58,0,0,1,1.45-6.15c.66-2.05,1.44-4.06,2.3-6,.73-1.7,1.91-3.48,1.34-5.37a1,1,0,0,0-1.2-.68Z" style="fill:#6f2900"/><path d="M160.69,21.61a38.63,38.63,0,0,0-12.44,8.72,65.22,65.22,0,0,0-4.85,5.88c-1.31,1.76-3.83,4.46-2.89,6.81a1.44,1.44,0,0,0,1.7,1c2.09-.29,3.12-2.83,4.18-4.4a56.3,56.3,0,0,1,4.93-6.19c3.29-3.63,6.74-7.22,10.35-10.52.72-.66-.19-1.61-1-1.26Z" style="fill:#6f2900"/><path d="M217.49,28.79A39.18,39.18,0,0,0,205,31.37c-3.4,1.33-8.55,3.34-10.39,6.7a1.94,1.94,0,0,0,2.17,2.82c1.82-.41,3.3-1.7,4.87-2.64a53.37,53.37,0,0,1,5.11-2.69A50.51,50.51,0,0,1,217.92,32c1.79-.36,1.39-3.27-.43-3.18Z" style="fill:#6f2900"/><path d="M265.2,64.8a49.1,49.1,0,0,0-18.92-4.36c-3.64-.13-3.65,5.71,0,5.66A76,76,0,0,1,263.86,68c1.83.41,3.21-2.33,1.34-3.18Z" style="fill:#6f2900"/><path d="M283.32,131.09a25.72,25.72,0,0,0-3.51-10.35,38.89,38.89,0,0,0-7.78-9.51,2.36,2.36,0,0,0-3.34,3.34c2.15,2.74,4.85,5,7,7.8a23.71,23.71,0,0,1,4.64,9.13c.37,1.65,3.17,1.31,3-.4Z" style="fill:#6f2900"/><path d="M279.93,154.57a58.74,58.74,0,0,0-2.72-10.79c-1-2.77-2.34-7.62-5.2-8.94a1.86,1.86,0,0,0-2.77,1.59c-.05,1.67.88,3,1.68,4.39s1.66,3,2.38,4.6a46.28,46.28,0,0,1,3.22,10.08c.47,2.26,3.73,1.25,3.39-.94Z" style="fill:#6f2900"/></svg>