<svg xmlns="http://www.w3.org/2000/svg" viewBox="0 0 408.57 331.63"><title>cool</title><ellipse cx="239.84" cy="303.94" rx="164.78" ry="27.69" style="fill:#1d1d1d;opacity:0.25"/><path d="M160,68.18c2.23-.54,4.33-1.28,6.62-.9l.55-.12a85.91,85.91,0,0,0,17.28-5.65,167.84,167.84,0,0,0,15.71-8.71c5-3.08,10-6.38,15.33-9A47.06,47.06,0,0,1,232.88,39a195.72,195.72,0,0,1,37.21,1.32A144.7,144.7,0,0,0,245,32a91.86,91.86,0,0,0-16.15,1.08c-10.85,1.61-22.41,4.59-31.51,11-8.23,5.78-15.13,13.9-25.63,15.37a28.75,28.75,0,0,1-23.61-7.88A25.81,25.81,0,0,1,140.94,28c1.47-7.35,6.21-15.86,13.59-18.66h-.09c-2.17-.39-4.62,1.8-6.06,3.18s-2.75,2.74-4,4.19a53.75,53.75,0,0,0-6.91,9.49c-3.82,6.83-6,14.65-5,22.52s5.28,16.18,13.23,18.88a28.42,28.42,0,0,0,9,1.46A41.51,41.51,0,0,0,160,68.18Z" style="fill:#ffd800"/><path d="M188.84,89.81c-1.53-.36-4.15-.75-4.55,1.32-.93,4.78,6.24,5.57,9.36,5.62.95,0,2.42,0,4,.07A40.16,40.16,0,0,0,194.59,93,12.75,12.75,0,0,0,188.84,89.81Z" style="fill:#ffd800"/><path d="M128.28,48.08a41.61,41.61,0,0,1,7-26.14,61.45,61.45,0,0,1,9-10.86c1.92-1.84,3.91-3.63,6.23-4.43a26.88,26.88,0,0,0-6.11,1.77,27.64,27.64,0,0,0-10,7.18c-3.18,3.61-4.92,7.89-6.42,12.41-3.05,9.23-5,18.94-.38,28a29.73,29.73,0,0,0,8.1,10c.58.46,1.21.91,1.85,1.33C131.94,62.62,128.91,55.31,128.28,48.08Z" style="fill:#ffd800"/><path d="M155.8,8.94l.23-.07c.67-.17,1.33.76.72,1.24l-.66.52a7.74,7.74,0,0,1,4.52,0A4.18,4.18,0,0,0,157.3,6.9a13.86,13.86,0,0,0-2.36-.42l.28.07A1.39,1.39,0,0,1,155.8,8.94Z" style="fill:#e04025"/><path d="M147,26.5a16.41,16.41,0,0,1,.48-7.1c-.37.58-.73,1.18-1.05,1.81a26.36,26.36,0,0,0-3,14.52c1,10.33,9.35,18.42,19.34,20.52A23.2,23.2,0,0,0,176,55.4c5.3-2.07,9.68-5.76,14-9.36a61.43,61.43,0,0,1,10.41-7.37A72.55,72.55,0,0,1,212,33.85a100.47,100.47,0,0,1,19.57-4.24q-6.2-.81-12.47-1c-5.6-.2-11.43-.39-16.72,1.75-3.84,1.55-7.73,4.48-11.25,7-2.23,1.59-4.45,3.16-6.79,4.55l-.09,0a27.45,27.45,0,0,1-8.83,3.79c-4.81,1.07-10.82,1.09-14.81-2.06a17.18,17.18,0,0,1-2.9-1.45A22.82,22.82,0,0,1,147,26.5Z" style="fill:#ffd800"/><path d="M97.48,145.55c-16.28-9.83-27.53-28.93-26.2-48.2.17-2.45.87-4.82-1.16-6.62a16,16,0,0,0-5.63-3.18,23.88,23.88,0,0,0-14.27-.08c-9.78,3-16.82,11.26-21.28,20.14-5,10-7.29,21.71-2.46,32.29,4.51,9.87,11.61,18.92,19.35,26.47,7.93,7.74,17,13.39,26.93,18.2a58.8,58.8,0,0,0,14.39,5.17,42.24,42.24,0,0,0,15.38-.23,4,4,0,0,1,1.19,0,198.89,198.89,0,0,1,7.49-39C106.34,150.22,101.62,148,97.48,145.55Z" style="fill:#e04025"/><path d="M227.61,122.11c2.59,3.44,6.86,5.54,10.88,6.78a53,53,0,0,0,26.69,1.46c8.47-1.88,16.43-6.16,21.31-13.54,3.88-5.86,5.93-12.79,4.81-19.69A124.38,124.38,0,0,0,276,100.65a14.79,14.79,0,0,1,1.38,3.72,22.12,22.12,0,0,1,0,10.09,19.2,19.2,0,0,1-12.63,13.85c-6.08,2-13.06.87-17.64-3.8-3.15-3.2-6-8.85-5.16-13.67a68.18,68.18,0,0,1-17,1.86,13.2,13.2,0,0,0,.1,3.74A14.31,14.31,0,0,0,227.61,122.11Z" style="fill:#fff"/><path d="M251.59,120.07a11.12,11.12,0,0,0,11,2.2,12.5,12.5,0,0,0,8.33-8.38,15.87,15.87,0,0,0,.54-6.29,14.55,14.55,0,0,0-.81-3.25c-.1-.28-.7-1.1-.09-.72l-.89-.69a2.38,2.38,0,0,1-.28-.26c-3.57,1.13-7.12,2.31-10.67,3.43s-6.94,2.19-10.52,3.18a2.82,2.82,0,0,1-.12.39C246.72,113,249.15,117.86,251.59,120.07Zm4.09-12.37c.74-1.11,2.71-1.1,3,.4.42,2,.34,4,.83,6a2.25,2.25,0,0,1-4.34,1.2C254.44,113,254.25,109.85,255.68,107.7Z" style="fill:#1378bd"/><path d="M17,79.57c-1.1-1.82-2.15-3.67-3.31-5.45a14.36,14.36,0,0,0-1.17-1.8c0,.05-.25.05-.51.28A15,15,0,0,0,7.72,80c-1.66,6.31-.61,13,1.6,19a48.9,48.9,0,0,0,4.86,9.79,44.89,44.89,0,0,0,2.93,4.11c.41.5.83,1.08,1.29,1.6q.61-2.09,1.41-4.12A61.38,61.38,0,0,1,30.64,92.1C24.47,91.38,19.87,84.36,17,79.57Z" style="fill:#fff"/><path d="M241.16,90.08c2.27-1.08,4.52-2.74,5-5.37a5.34,5.34,0,0,0-1.07-4.45,38,38,0,0,0-10.91,8,45.19,45.19,0,0,0-3.09,3.63l.61-.13C234.77,91.16,238.29,91.45,241.16,90.08Z" style="fill:#ffd800"/><path d="M35.14,87.69a39.34,39.34,0,0,1,3.95-3,35.18,35.18,0,0,1,6.39-3.28c-.78-2.62-.27-5.71.29-8.28.73-3.34,1.91-6.58,2.54-9.95.27-1.45,1.11-5.54-.81-6.37-1.18-.52-3.12-.24-4.36-.16A7.21,7.21,0,0,0,39.19,58c-4.33,3.13-8.55,9.34-8.93,14.77A16.91,16.91,0,0,0,31.63,81C32.66,83.22,34.47,85.34,35.14,87.69Z" style="fill:#fff"/><path d="M69.53,81.77c.55.26,1.1.55,1.64.85,3.28-4.12,7.22-9.05,7.67-14.34.39-4.64-2.12-10.13-7.71-8.57C66,61.14,62,65.3,59,69.54c-1.56,2.2-3,4.48-4.33,6.82-.59,1-1.29,2.05-1.8,3.13A28.84,28.84,0,0,1,69.53,81.77Z" style="fill:#fff"/><path d="M203.12,202.51l-.83-.36a.59.59,0,0,1,.1.36Z" style="fill:#e04025"/><path d="M158.92,115c-.15,3.5-1.7,7.17-.33,10.59,1.15,2.89,5.76,3.54,8.42,3.7,3.55.22,7.5-.23,10-3,2-2.25,2.1-5.23,1.94-8.12a3.47,3.47,0,0,1-.57-1.43q-3.71-.25-7.42-.56a4.4,4.4,0,0,0-.4,2.86c.45,1.9-.73,3.54-2.75,3.14a2.27,2.27,0,0,1-1.61-1.61,6.62,6.62,0,0,1,.48-4.76C164.12,115.51,161.52,115.25,158.92,115Z" style="fill:#1378bd"/><path d="M397.1,218.17c-2.44-10.75-6.35-21.26-13-30.17a50.51,50.51,0,0,0-11.41-11.2c-3-2.09-6.27-3.78-9.44-5.59-.55,19.57-5.57,39.33-16.67,55.57l-.42.61c6.95,10.49,9.24,23,10.45,35.41a62.27,62.27,0,0,0,1,8.83c.48,2,1.15,4.27,3.16,5.17,2.66,1.2,6.61,0,9.34-.46a94.15,94.15,0,0,0,10.65-2.2c9.25-2.63,19.7-8.48,20.51-19.23.45-6.06-.51-12.27-1.2-18.28A173.12,173.12,0,0,0,397.1,218.17Z" style="fill:#e04025"/><path d="M154.2,114.37c-3.51-.48-7-1-10.44-1.76-1.91,1.63-3.72,3.13-4.22,5.94-.73,4.1,1.75,8.46,3.86,11.8s4.62,7.15,8.64,8.24A59.19,59.19,0,0,0,164.57,140c7.49.35,16.39.13,22.19-5.38,4.87-4.62,6.82-10.85,8.51-17.12q-5-.18-9.94-.45c.28,5.22-.22,10.86-4.62,14.39s-9.63,4.54-15.15,3.81c-4.82-.64-10.87-2.35-12.55-7.56a17,17,0,0,1-.22-8.09A20.86,20.86,0,0,1,154.2,114.37Z" style="fill:#fff"/><path d="M359.82,284.26c-6.87-1.77-9.08-7.77-10-14.21-2.16-.12-5.21-.58-7.14.49-2.16,1.2-3,3.47-3.36,5.84a13.86,13.86,0,0,0,5.38,12.77c3.82,2.7,10,4.84,14.48,2.4a11.9,11.9,0,0,0,4.7-4.84,22,22,0,0,0,1-2.16A14.93,14.93,0,0,1,359.82,284.26Z" style="fill:#fff"/><path d="M270.65,200a47.35,47.35,0,0,1-10.28-4.1c-3.26-1.63-6.83-3.21-10.55-2.4a21.46,21.46,0,0,0-9.17,4.82q-1.42,1.2-2.76,2.49a27.86,27.86,0,0,1,15.59-.23c3,.8,5.8,2,8.76,2.85a69.81,69.81,0,0,0,7.86,1.27c.56.09.51.82.14,1.08-4.54,3.23-10.86-.37-15.49-1.86a32.71,32.71,0,0,0-13.12-1.35,40.42,40.42,0,0,1,13.33,5.55c2.89,1.77,6.38,4.86,9.95,4.91s7.21-1.31,10.47-2.53a51.26,51.26,0,0,0,19.67-13A38.64,38.64,0,0,1,270.65,200Z" style="fill:#ffd800"/><path d="M195.18,204.4a46.4,46.4,0,0,0-4.19,2.11c-3.16,1.74-6.19,3.71-9.51,5.15a25.8,25.8,0,0,1-9.65,2.17c-2.43,0-7,.28-8.4-2.17a1,1,0,0,1,.37-1.4c1.42-.86,3-.25,4.58-.13a24.48,24.48,0,0,0,15.2-3.43c3-1.66,5.92-3.68,9.18-4.78a14.12,14.12,0,0,1,7.29-.51,27.45,27.45,0,0,0-7.69-.72c-6.72.26-12.33,3.33-18.48,5.63a32.08,32.08,0,0,1-22.91,0c5.15,7.17,13.9,11.53,23.15,9.9a25,25,0,0,0,9.74-3.72c2.93-2,5.48-4.43,8.4-6.4A23.56,23.56,0,0,1,195.18,204.4Z" style="fill:#ffd800"/><path d="M353,144.75c-7.31-38.24-30.13-72.61-62.75-93.64a86.76,86.76,0,0,0-16.17-3.4c-6.38-.84-12.8-1.45-19.23-1.76C243,45.36,230,44.34,219,49.77,208.32,55,198.78,62.41,187.84,67.24a81.2,81.2,0,0,1-17.54,5.6c-2.3.44-4.69.89-7.1,1.24-2.53.53-5,1.07-7.61,1.35a328.36,328.36,0,0,0-17.17,28.47q-1.55,2.91-3,5.86c2.44-2.78,6-4.57,9.55-2.65a2.25,2.25,0,0,1,.7.58c8.71.54,17.4,1.48,26.11,2,9.39.57,18.79.85,28.2.75,2.52,0,3.9,2.32,3.49,4.58-1.81,10-5.19,21-13.82,27.25-8.41,6.1-19.44,6.22-29.37,5.41-6-.48-11.83-.89-16.67-4.76-4.16-3.34-7.58-8.53-9.68-13.4-1.77-4.1-2.78-8.47-1.94-12.74a227.75,227.75,0,0,0-17.57,51.44,171.66,171.66,0,0,0-3.62,33.47c-.06,10.93.45,22.53,3.65,33.06,1.45,4.78,3.64,9.37,7.27,12.89a30,30,0,0,0,10.94,6.67c9.05,3.18,18.68,3.66,28.18,3.86a4,4,0,0,1,4,4,118.51,118.51,0,0,0,.64,21.17h15.33a68.83,68.83,0,0,0-2.37-18.84,4,4,0,0,1,3.83-5,578.66,578.66,0,0,0,87.88-3.15c2.07-.23,4.1,2,4,4a133.36,133.36,0,0,0,.54,23l11.16.07,6.93,0c.52,0,3.23.34,3.57-.28.88-1.6.9-3.93,1-5.72a44,44,0,0,0-.13-6.4,39.66,39.66,0,0,0-3-11.71c-1-2.23-.36-5.21,2.37-5.83a66.34,66.34,0,0,0,9-2.72c18.16-7,32.68-22,40.8-39.49C355.79,190.7,357.23,166.8,353,144.75ZM222.81,96.61l.23-.24c.31-2.22,2.26-5.23,2.85-6.16a40.4,40.4,0,0,1,6.61-7.94,43.46,43.46,0,0,1,8.34-6.15c1.49-.82,3.66-2.4,5.43-1.92a7.42,7.42,0,0,1,3.44,2.63c4.33,5.48,2.28,13.06-3.07,17a19.71,19.71,0,0,1-9.89,3.41,16.61,16.61,0,0,0-9.61,3.72C224.11,103.37,220.13,99.6,222.81,96.61Zm-2.94,11.67a2.58,2.58,0,0,1,3.12-.72h0a130.62,130.62,0,0,0,18.11-2.92c5.79-1.44,11.48-3.26,17.16-5.1,11.68-3.79,23.29-7.7,35.51-9.3,1.45-.19,2.76,1.14,3.15,2.4.17.55.34,1.1.47,1.65,2.32,9.75-.43,19.95-6.36,27.89-6.34,8.48-16.09,13.93-26.47,15.72-10.73,1.86-22.62.92-32.65-3.52-4.9-2.17-9.59-5.67-12.05-10.56a20,20,0,0,1-2.32-8.15A10.1,10.1,0,0,1,219.87,108.27Zm65.81,44c.09,2.17-2,4.19-3.65,5.25s-3.33-1.63-1.63-2.79c1.34-.91,1.75-2.33,2.75-3.52S285.63,151.07,285.68,152.26Zm-14.41,1.91c0,1.9-1.82,3.42-3.13,4.61a43.76,43.76,0,0,1-4.61,3.64c-2.12,1.46-4.06-2-2-3.43a33.17,33.17,0,0,0,4.1-3.41c1-1,2.17-2.64,3.69-2.89A1.56,1.56,0,0,1,271.27,154.17Zm-18.26,0c-1.19,1.77-3.49,2.59-5.08,4a24.29,24.29,0,0,0-4.46,5.13c-1.34,2.08-4.63.19-3.33-1.95a26,26,0,0,1,4.92-6.05c1.72-1.52,4-3.74,6.47-3.7A1.73,1.73,0,0,1,253,154.13Zm-51.23-49.81a5.54,5.54,0,0,1-2-1.13c.46.36-.71-.14-.8-.15a34.91,34.91,0,0,0-4.61-.09,24.23,24.23,0,0,1-9.47-1.61c-4.89-2.12-8.34-7.44-6.31-12.78,2.43-6.38,10.18-5.93,15.24-3.19a18.28,18.28,0,0,1,6.35,5.52c1,1.43,2,4.77,3.86,5.27a1.69,1.69,0,0,1,.56,2.94,3.48,3.48,0,0,1,.45,3.32A2.73,2.73,0,0,1,201.78,104.32Zm-31.89,64c1.49-3.37,3.81-6.9,7-8.92a1.58,1.58,0,0,1,1.63,0,1.86,1.86,0,0,1,.74,1,1.6,1.6,0,0,1-.41,1.57c-2.39,2.57-4.56,4.82-6,8.08C171.87,171.94,169,170.23,169.88,168.29ZM156.45,168c1.19-2.93,3.18-6.27,5.87-8,1.58-1,3.93,1.11,2.7,2.7-.88,1.14-2,2.08-2.86,3.22a30.76,30.76,0,0,0-2.29,3.57C158.84,171.26,155.63,170,156.45,168Zm-16-2.35c1.36-2.19,7.57-11.41,10.7-7.35a2.34,2.34,0,0,1-.37,2.85c-2.13,2.31-4.59,4.2-6.49,6.75C142.62,170.16,138.9,168.17,140.45,165.68Zm28.89,57.7a31.5,31.5,0,0,1-29.53-25.19,3.58,3.58,0,0,1,5.93-3.45,24.43,24.43,0,0,0,14.84,6.65c6.51.44,11.92-2,17.84-4.38,10.5-4.15,29.88-5,33.77,8.64a1.91,1.91,0,0,1-.52,2c-.1,2.07-2.48,4.06-4.6,2.66-6-4-12.53,2.64-16.94,6.07A31.76,31.76,0,0,1,169.34,223.38Zm98,9c-3.64.22-7.37-.09-11-.17L246.14,232c-7.09-.15-14.17-.36-21.25-.56s-14.17-.4-21.25-.69c-6.68-.27-13.57-.16-20.17-1.3-1.75-.3-1.8-3.33,0-3.58,6.89-.94,14-.58,21-.62s14.17,0,21.25.07,14.17.09,21.25.19l10.23.15c3.39,0,6.86-.11,10.23.21A3.26,3.26,0,0,1,267.39,232.38Zm41.42-45.8c-5,14-16.56,24.1-30,29.62A48.51,48.51,0,0,1,268,219.44c-4.48.7-8.56-.7-12.35-3-6.59-4.08-14.11-9.43-22.28-7.18-2.71.74-4.39-1.76-4-3.88-.54-4.32,10.47-13.09,12.55-14.34a19.78,19.78,0,0,1,10.64-3.19c4.31.15,8.11,1.84,12,3.6a33.19,33.19,0,0,0,21.27,2.6,32.55,32.55,0,0,0,17.78-10.48C305.58,181.17,309.85,183.66,308.81,186.59Z" style="fill:#e04025"/><path d="M219.91,123.81c2.46,4.89,7.15,8.39,12.05,10.56,10,4.44,21.92,5.38,32.65,3.52,10.38-1.8,20.13-7.24,26.47-15.72,5.93-7.95,8.68-18.14,6.36-27.89-.13-.56-.3-1.11-.47-1.65-.39-1.25-1.7-2.58-3.15-2.4-12.22,1.6-23.84,5.51-35.51,9.3-5.68,1.84-11.37,3.66-17.16,5.1A130.62,130.62,0,0,1,223,107.55h0a2.58,2.58,0,0,0-3.12.72,10.1,10.1,0,0,0-2.28,7.38A20,20,0,0,0,219.91,123.81ZM248,109.68a2.82,2.82,0,0,0,.12-.39c3.58-1,7.1-2.09,10.52-3.18s7.1-2.3,10.67-3.43a2.38,2.38,0,0,0,.28.26l.89.69c-.6-.38,0,.44.09.72a14.55,14.55,0,0,1,.81,3.25,15.87,15.87,0,0,1-.54,6.29,12.5,12.5,0,0,1-8.33,8.38,11.12,11.12,0,0,1-11-2.2C249.15,117.86,246.72,113,248,109.68Zm-23.08,3a68.18,68.18,0,0,0,17-1.86c-.89,4.82,2,10.48,5.16,13.67,4.59,4.67,11.57,5.75,17.64,3.8a19.2,19.2,0,0,0,12.63-13.85,22.12,22.12,0,0,0,0-10.09,14.79,14.79,0,0,0-1.38-3.72,124.38,124.38,0,0,1,15.29-3.54c1.13,6.9-.93,13.83-4.81,19.69-4.88,7.38-12.84,11.67-21.31,13.54a53,53,0,0,1-26.69-1.46c-4-1.24-8.29-3.34-10.88-6.78a14.31,14.31,0,0,1-2.55-5.68A13.2,13.2,0,0,1,225,112.69Z" style="fill:#6f2900"/><path d="M259.53,114.12c-.49-2-.41-4-.83-6-.31-1.5-2.29-1.5-3-.4-1.43,2.15-1.23,5.25-.48,7.62A2.25,2.25,0,0,0,259.53,114.12Z" style="fill:#6f2900"/><path d="M267.39,225.88c-3.37-.32-6.84-.16-10.23-.21l-10.23-.15c-7.08-.1-14.17-.15-21.25-.19s-14.17-.1-21.25-.07-14.07-.33-21,.62c-1.8.25-1.75,3.27,0,3.58,6.6,1.14,13.49,1,20.17,1.3,7.08.29,14.17.48,21.25.69s14.17.41,21.25.56l10.23.21c3.65.08,7.38.39,11,.17A3.26,3.26,0,0,0,267.39,225.88Z" style="fill:#6f2900"/><path d="M144.29,167.92c1.9-2.55,4.36-4.44,6.49-6.75a2.34,2.34,0,0,0,.37-2.85c-3.13-4.06-9.34,5.16-10.7,7.35C138.9,168.17,142.62,170.16,144.29,167.92Z" style="fill:#6f2900"/><path d="M159.87,169.47a30.76,30.76,0,0,1,2.29-3.57c.89-1.14,2-2.08,2.86-3.22,1.22-1.59-1.12-3.75-2.7-2.7-2.69,1.78-4.68,5.12-5.87,8C155.63,170,158.84,171.26,159.87,169.47Z" style="fill:#6f2900"/><path d="M172.76,170c1.48-3.25,3.65-5.5,6-8.08a1.6,1.6,0,0,0,.41-1.57,1.86,1.86,0,0,0-.74-1,1.58,1.58,0,0,0-1.63,0c-3.15,2-5.48,5.55-7,8.92C169,170.23,171.87,171.94,172.76,170Z" style="fill:#6f2900"/><path d="M245.06,155.25a26,26,0,0,0-4.92,6.05c-1.3,2.14,2,4,3.33,1.95a24.29,24.29,0,0,1,4.46-5.13c1.59-1.4,3.89-2.22,5.08-4a1.73,1.73,0,0,0-1.48-2.58C249.11,151.51,246.78,153.73,245.06,155.25Z" style="fill:#6f2900"/><path d="M269.32,152.69c-1.52.25-2.65,1.86-3.69,2.89a33.17,33.17,0,0,1-4.1,3.41c-2.06,1.46-.12,4.88,2,3.43a43.76,43.76,0,0,0,4.61-3.64c1.31-1.19,3.12-2.71,3.13-4.61A1.56,1.56,0,0,0,269.32,152.69Z" style="fill:#6f2900"/><path d="M283.15,151.21c-1,1.19-1.4,2.6-2.75,3.52-1.7,1.16-.14,3.91,1.63,2.79s3.74-3.09,3.65-5.25C285.63,151.07,284,150.15,283.15,151.21Z" style="fill:#6f2900"/><path d="M207.08,210.27c2.12,1.39,4.5-.6,4.6-2.66a1.91,1.91,0,0,0,.52-2c-3.9-13.69-23.27-12.8-33.77-8.64-5.92,2.34-11.33,4.81-17.84,4.38a24.43,24.43,0,0,1-14.84-6.65,3.58,3.58,0,0,0-5.93,3.45,31.16,31.16,0,0,0,50.33,18.16C194.54,212.91,201.08,206.32,207.08,210.27Zm-4-7.75h-.73a.59.59,0,0,0-.1-.36Zm-29,13.7c-9.25,1.62-18-2.73-23.15-9.9a32.08,32.08,0,0,0,22.91,0c6.16-2.3,11.77-5.37,18.48-5.63a27.45,27.45,0,0,1,7.69.72,14.12,14.12,0,0,0-7.29.51c-3.26,1.09-6.19,3.12-9.18,4.78a24.48,24.48,0,0,1-15.2,3.43c-1.56-.13-3.16-.73-4.58.13a1,1,0,0,0-.37,1.4c1.38,2.45,6,2.22,8.4,2.17a25.8,25.8,0,0,0,9.65-2.17c3.32-1.44,6.35-3.41,9.51-5.15a46.4,46.4,0,0,1,4.19-2.11,23.56,23.56,0,0,0-2.93,1.69c-2.92,2-5.47,4.44-8.4,6.4A25,25,0,0,1,174.1,216.21Z" style="fill:#6f2900"/><path d="M303.56,183.53A32.55,32.55,0,0,1,285.78,194a33.19,33.19,0,0,1-21.27-2.6c-3.87-1.76-7.66-3.45-12-3.6A19.78,19.78,0,0,0,241.9,191c-2.08,1.25-13.08,10-12.55,14.34-.34,2.12,1.34,4.63,4,3.88,8.16-2.24,15.69,3.11,22.28,7.18,3.79,2.34,7.87,3.75,12.35,3a48.51,48.51,0,0,0,10.74-3.23c13.49-5.52,25.08-15.67,30-29.62C309.85,183.66,305.58,181.17,303.56,183.53Zm-28.2,26.94c-3.26,1.23-7,2.59-10.47,2.53s-7.06-3.14-9.95-4.91a40.42,40.42,0,0,0-13.33-5.55,32.71,32.71,0,0,1,13.12,1.35c4.63,1.49,10.95,5.09,15.49,1.86.36-.26.42-1-.14-1.08a69.81,69.81,0,0,1-7.86-1.27c-3-.8-5.79-2-8.76-2.85a27.86,27.86,0,0,0-15.59.23q1.34-1.29,2.76-2.49a21.46,21.46,0,0,1,9.17-4.82c3.73-.81,7.3.77,10.55,2.4a47.35,47.35,0,0,0,10.28,4.1A38.64,38.64,0,0,0,295,197.49,51.26,51.26,0,0,1,275.36,210.47Z" style="fill:#6f2900"/><path d="M227.14,100.93a16.61,16.61,0,0,1,9.61-3.72,19.71,19.71,0,0,0,9.89-3.41c5.35-3.91,7.4-11.5,3.07-17a7.42,7.42,0,0,0-3.44-2.63c-1.76-.49-3.94,1.1-5.43,1.92a43.46,43.46,0,0,0-8.34,6.15,40.4,40.4,0,0,0-6.61,7.94c-.59.93-2.53,3.94-2.85,6.16l-.23.24C220.13,99.6,224.11,103.37,227.14,100.93Zm7-12.71a38,38,0,0,1,10.91-8,5.34,5.34,0,0,1,1.07,4.45c-.49,2.63-2.74,4.29-5,5.37-2.87,1.37-6.39,1.08-9.46,1.65l-.61.13A45.19,45.19,0,0,1,234.18,88.23Z" style="fill:#6f2900"/><path d="M205.1,102.43a3.48,3.48,0,0,0-.45-3.32,1.69,1.69,0,0,0-.56-2.94c-1.81-.51-2.86-3.84-3.86-5.27a18.28,18.28,0,0,0-6.35-5.52c-5.06-2.74-12.82-3.19-15.24,3.19-2,5.33,1.42,10.66,6.31,12.78a24.23,24.23,0,0,0,9.47,1.61A34.91,34.91,0,0,1,199,103c.09,0,1.26.51.8.15a5.54,5.54,0,0,0,2,1.13A2.73,2.73,0,0,0,205.1,102.43Zm-11.44-5.69c-3.13,0-10.29-.84-9.36-5.62.4-2.07,3-1.68,4.55-1.32A12.75,12.75,0,0,1,194.59,93a40.16,40.16,0,0,1,3.07,3.78C196.08,96.73,194.61,96.76,193.66,96.74Z" style="fill:#6f2900"/><path d="M404.87,266l.2-.33c3-5,3.62-10.82,3.3-16.52a220.17,220.17,0,0,0-3.46-27.71,100.82,100.82,0,0,0-8.12-25.4,57.39,57.39,0,0,0-25.33-26.86,47.79,47.79,0,0,0-8.18-3.67c0-1.19,0-2.38-.1-3.57-1.85-43.76-24.36-85.11-59-111.61A150.86,150.86,0,0,0,244.38,23a131.08,131.08,0,0,0-33.65-3.2A37.36,37.36,0,0,0,203.19,21a2.4,2.4,0,0,0-1.66.21L200,22a35.89,35.89,0,0,0-5.38,2.48c-4.07,2.3-7.72,5.26-11.53,7.94a36.16,36.16,0,0,1-7.65,4.36l-1.42.53-3.81,1a6.35,6.35,0,0,1-2.42-.24,2.93,2.93,0,0,0-2.12.07,22.37,22.37,0,0,1-2.61-.79c-3.25-1.21-5.78-4.1-7.53-7a12.37,12.37,0,0,1-1.34-10.66,9.27,9.27,0,0,1,2.7-3.85,4.78,4.78,0,0,1,3.72-.84,13.66,13.66,0,0,0,.09,3.14c.35,1.9,3.46,1.89,3.81,0a6.92,6.92,0,0,0,.12-1c.29-2.54,1.48-4.88,1.43-7.49a9.49,9.49,0,0,0-3.7-6.73c-4.46-3.65-10.57-3.24-15.86-2a33.28,33.28,0,0,0-22.63,19.07c-4.6,10.61-7.77,22.83-4.2,34.17,3.07,9.75,11.27,19.57,21.6,21.85a15.24,15.24,0,0,0,5.61.24,301.6,301.6,0,0,0-27,50.08q-4,9.46-7.14,19.25c-3.41-1.74-7-3.16-10.33-5.09a49.53,49.53,0,0,1-23.15-32.36c-1-4.65-.73-9.2-.45-13.9A10.48,10.48,0,0,0,76,86.45c4.37-5.78,8.66-12,8.81-19.55C85,59.72,79.08,53.16,71.69,54.1,64.52,55,58.89,60.85,55,66.52c-.23.34-.6.88-1.06,1.58a28.59,28.59,0,0,0,1.23-8.92c-.21-3.57-2-7.53-5.78-8.56a18,18,0,0,0-13,1.44c-3.31,1.91-5.9,5.37-8,8.46a24.83,24.83,0,0,0-4.3,11.64,20,20,0,0,0,1,8.26c-2.54-3.64-4.46-7.69-6.89-11.41-2.94-4.52-7.71-4.07-11.45-.8C3.79,70.81,1.9,75,.93,78.74-1.19,86.87.56,95.68,3.7,103.29a56.34,56.34,0,0,0,6.49,11.65c1.49,2.06,4,5.63,6.69,6.77a44.69,44.69,0,0,0-.39,6,40.18,40.18,0,0,0,4.34,17.1c4.71,9.89,12.16,19,19.92,26.65,8,7.87,17.19,13.75,27.15,18.77,11.1,5.6,23,9.3,35.35,6.31a163.31,163.31,0,0,0,1.58,30.7c1.54,10.6,5.16,21.24,13.77,28.17,10.61,8.54,24.77,10.12,38.06,10.59a129.12,129.12,0,0,0,1.43,22.38c.26,1.72,2.23,2.93,3.84,2.93h22.59a4,4,0,0,0,4-4,75.8,75.8,0,0,0-1.3-19.73,582,582,0,0,0,78.67-2.87,144.21,144.21,0,0,0,1.37,23.63c.24,1.73,2.25,2.91,3.84,2.92l16.94.11c5.53,0,11.45.85,15.06-4.2,1.49-2.08,1.63-5.18,1.9-7.62a43.7,43.7,0,0,0,.09-7.82,47.26,47.26,0,0,0-2.36-11.7c15.29-4.53,28.58-14.14,38.71-26.39,4.29,7.48,6.2,16.07,7.26,24.65.23,1.85.36,3.91.52,6.05a16.26,16.26,0,0,0-9.08.23c-3.7,1.36-5.74,4.66-6.92,8.24-2.4,7.27.45,15.57,5.95,20.61a22.53,22.53,0,0,0,20.7,5.11,13.62,13.62,0,0,0,4.87-2.55l.41.06c1.14.13,2.27.36,3.4.59,2.07.42,4.13.89,6.23,1.15A16.42,16.42,0,0,0,386,295.49a15.37,15.37,0,0,0,1.84-1.41,2,2,0,0,0,1.33.33,22,22,0,0,0,16.63-9.9,18.23,18.23,0,0,0,2.79-9.19C408.69,272.08,407.68,267.93,404.87,266ZM157.69,42.11a17.18,17.18,0,0,0,2.9,1.45c4,3.15,10,3.13,14.81,2.06a27.45,27.45,0,0,0,8.83-3.79l.09,0c2.34-1.39,4.57-3,6.79-4.55,3.52-2.52,7.41-5.44,11.25-7,5.29-2.14,11.12-2,16.72-1.75q6.25.23,12.47,1A100.47,100.47,0,0,0,212,33.85a72.55,72.55,0,0,0-11.52,4.82A61.43,61.43,0,0,0,190,46c-4.33,3.59-8.71,7.29-14,9.36a23.2,23.2,0,0,1-13.19.85c-10-2.1-18.3-10.19-19.34-20.52a26.36,26.36,0,0,1,3-14.52c.32-.63.68-1.23,1.05-1.81a16.41,16.41,0,0,0-.48,7.1A22.82,22.82,0,0,0,157.69,42.11Zm-.4-35.2a4.18,4.18,0,0,1,3.32,3.73,7.74,7.74,0,0,0-4.52,0l.66-.52c.61-.48-.06-1.41-.72-1.24l-.23.07a1.39,1.39,0,0,0-.58-2.38l-.28-.07A13.86,13.86,0,0,1,157.3,6.9ZM135.58,66a29.73,29.73,0,0,1-8.1-10c-4.64-9.08-2.68-18.79.38-28,1.5-4.52,3.24-8.8,6.42-12.41a27.64,27.64,0,0,1,10-7.18,26.88,26.88,0,0,1,6.11-1.77c-2.32.8-4.31,2.6-6.23,4.43a61.45,61.45,0,0,0-9,10.86,41.61,41.61,0,0,0-7,26.14c.63,7.23,3.66,14.55,9.15,19.3C136.79,67,136.16,66.51,135.58,66Zm10.09,1.55c-8-2.7-12.25-11-13.23-18.88s1.17-15.68,5-22.52a53.75,53.75,0,0,1,6.91-9.49q1.94-2.17,4-4.19c1.44-1.39,3.89-3.57,6.06-3.18h.09c-7.37,2.8-12.12,11.31-13.59,18.66a25.81,25.81,0,0,0,7.16,23.58,28.75,28.75,0,0,0,23.61,7.88c10.5-1.46,17.4-9.59,25.63-15.37,9.1-6.39,20.67-9.36,31.51-11A91.86,91.86,0,0,1,245,32a144.7,144.7,0,0,1,25.08,8.3A195.72,195.72,0,0,0,232.88,39a47.06,47.06,0,0,0-17.35,4.8c-5.32,2.58-10.3,5.88-15.33,9a167.84,167.84,0,0,1-15.71,8.71,85.91,85.91,0,0,1-17.28,5.65l-.55.12c-2.29-.38-4.39.36-6.62.9a41.51,41.51,0,0,1-5.4.88A28.42,28.42,0,0,1,145.67,67.6Zm-91,8.76C56,74,57.4,71.74,59,69.54c3-4.24,7-8.4,12.17-9.83,5.59-1.56,8.09,3.93,7.71,8.57-.44,5.29-4.39,10.22-7.67,14.34-.54-.31-1.09-.59-1.64-.85a28.84,28.84,0,0,0-16.7-2.28C53.34,78.41,54,77.39,54.63,76.36ZM30.27,72.74c.37-5.43,4.6-11.63,8.93-14.77a7.21,7.21,0,0,1,3.94-1.28c1.25-.08,3.18-.36,4.36.16,1.91.83,1.08,4.92.81,6.37-.62,3.37-1.81,6.61-2.54,9.95-.56,2.57-1.07,5.65-.29,8.28a35.18,35.18,0,0,0-6.39,3.28,39.34,39.34,0,0,0-3.95,3c-.67-2.34-2.48-4.46-3.51-6.66A16.91,16.91,0,0,1,30.27,72.74ZM19.81,110.41q-.79,2-1.41,4.12c-.46-.52-.87-1.1-1.29-1.6a44.89,44.89,0,0,1-2.93-4.11A48.9,48.9,0,0,1,9.33,99c-2.21-6-3.27-12.7-1.6-19A15,15,0,0,1,12,72.6c.26-.23.48-.23.51-.28a14.36,14.36,0,0,1,1.17,1.8c1.16,1.78,2.21,3.63,3.31,5.45,2.89,4.79,7.48,11.81,13.65,12.53A61.38,61.38,0,0,0,19.81,110.41Zm83.92,79.06a4,4,0,0,0-1.19,0,42.24,42.24,0,0,1-15.38.23,58.8,58.8,0,0,1-14.39-5.17c-9.94-4.8-19-10.46-26.93-18.2-7.74-7.55-14.84-16.6-19.35-26.47-4.84-10.58-2.59-22.24,2.46-32.29,4.46-8.88,11.5-17.16,21.28-20.14a23.88,23.88,0,0,1,14.27.08,16,16,0,0,1,5.63,3.18c2,1.8,1.33,4.17,1.16,6.62-1.33,19.27,9.92,38.38,26.2,48.2,4.14,2.5,8.86,4.67,13.74,4.91A198.89,198.89,0,0,0,103.73,189.46Zm201.74,61.27a66.34,66.34,0,0,1-9,2.72c-2.73.62-3.34,3.6-2.37,5.83a39.66,39.66,0,0,1,3,11.71,44,44,0,0,1,.13,6.4c-.08,1.8-.11,4.12-1,5.72-.34.62-3,.28-3.57.28l-6.93,0-11.16-.07a133.36,133.36,0,0,1-.54-23c.12-2-1.91-4.21-4-4a578.66,578.66,0,0,1-87.88,3.15,4,4,0,0,0-3.83,5,68.83,68.83,0,0,1,2.37,18.84H165.38a118.51,118.51,0,0,1-.64-21.17,4,4,0,0,0-4-4c-9.51-.2-19.13-.68-28.18-3.86a30,30,0,0,1-10.94-6.67c-3.63-3.52-5.82-8.11-7.27-12.89-3.19-10.52-3.7-22.13-3.65-33.06a171.66,171.66,0,0,1,3.62-33.47,227.75,227.75,0,0,1,17.57-51.44c-.84,4.26.17,8.64,1.94,12.74,2.1,4.87,5.52,10.07,9.68,13.4,4.84,3.88,10.72,4.28,16.67,4.76,9.93.81,21,.69,29.37-5.41,8.62-6.25,12-17.2,13.82-27.25.41-2.26-1-4.6-3.49-4.58-9.41.09-18.81-.18-28.2-.75-8.71-.53-17.41-1.47-26.11-2a2.25,2.25,0,0,0-.7-.58c-3.6-1.92-7.11-.13-9.55,2.65q1.49-2.95,3-5.86a328.36,328.36,0,0,1,17.17-28.47c2.57-.28,5.08-.82,7.61-1.35,2.41-.36,4.8-.8,7.1-1.24a81.2,81.2,0,0,0,17.54-5.6C198.78,62.41,208.32,55,219,49.77c11-5.43,24-4.41,35.85-3.82,6.43.32,12.85.93,19.23,1.76a86.76,86.76,0,0,1,16.17,3.4c32.63,21,55.45,55.4,62.75,93.64,4.21,22,2.77,46-6.75,66.49C338.15,228.73,323.63,243.75,305.47,250.73ZM153,127.73c1.69,5.21,7.73,6.92,12.55,7.56,5.52.73,10.77-.3,15.15-3.81s4.9-9.17,4.62-14.39q5,.27,9.94.45c-1.68,6.27-3.64,12.5-8.51,17.12-5.8,5.51-14.7,5.73-22.19,5.38a59.19,59.19,0,0,1-12.51-1.45c-4-1.09-6.55-4.92-8.64-8.24s-4.59-7.69-3.86-11.8c.5-2.8,2.31-4.31,4.22-5.94,3.44.71,6.93,1.29,10.44,1.76a20.86,20.86,0,0,0-1.42,5.27A17,17,0,0,0,153,127.73Zm13.22-7.23a2.27,2.27,0,0,0,1.61,1.61c2,.4,3.21-1.24,2.75-3.14a4.4,4.4,0,0,1,.4-2.86q3.71.31,7.42.56a3.47,3.47,0,0,0,.57,1.43c.16,2.88.08,5.87-1.94,8.12-2.53,2.8-6.48,3.26-10,3-2.66-.17-7.27-.81-8.42-3.7-1.37-3.42.18-7.09.33-10.59,2.6.3,5.2.55,7.79.78A6.62,6.62,0,0,0,166.23,120.5ZM346.16,227.38l.42-.61c11.1-16.24,16.12-36,16.67-55.57,3.17,1.82,6.44,3.5,9.44,5.59A50.51,50.51,0,0,1,384.11,188c6.64,8.91,10.55,19.41,13,30.17a173.12,173.12,0,0,1,3,18.45c.69,6,1.65,12.22,1.2,18.28-.81,10.75-11.25,16.61-20.51,19.23a94.15,94.15,0,0,1-10.65,2.2c-2.72.44-6.67,1.66-9.34.46-2-.9-2.68-3.21-3.16-5.17a62.27,62.27,0,0,1-1-8.83C355.4,250.34,353.11,237.88,346.16,227.38Zm13,64.16c-4.49,2.43-10.66.3-14.48-2.4a13.86,13.86,0,0,1-5.38-12.77c.34-2.37,1.2-4.64,3.36-5.84,1.93-1.07,5-.61,7.14-.49.94,6.44,3.15,12.44,10,14.21a14.93,14.93,0,0,0,5.07.29,22,22,0,0,1-1,2.16A11.9,11.9,0,0,1,359.16,291.55Zm22.44-.5c-2.6,1.41-6,1-8.82.61-1.23-.18-2.46-.39-3.69-.58a29.71,29.71,0,0,0,1.92-3.61,21.13,21.13,0,0,0,1.61-4.05c1.75-.29,3.49-.6,5.22-.95a60.47,60.47,0,0,0,9.35-2.63A10.78,10.78,0,0,1,381.6,291.05Zm21.13-15.17a12.49,12.49,0,0,1-2.22,6.19,17.05,17.05,0,0,1-8.67,6.66,15,15,0,0,0,1-11.16c0-.1-.07-.19-.1-.27.49-.27,1-.55,1.46-.84a32.76,32.76,0,0,0,7.26-6,9.26,9.26,0,0,1,.71,1.35A9.84,9.84,0,0,1,402.73,275.88Z" style="fill:#6f2900"/><path d="M381.6,291.05c-2.6,1.41-6,1-8.82.61-1.23-.18-2.46-.39-3.69-.58a29.71,29.71,0,0,0,1.92-3.61,21.13,21.13,0,0,0,1.61-4.05c1.75-.29,3.49-.6,5.22-.95a60.47,60.47,0,0,0,9.35-2.63A10.78,10.78,0,0,1,381.6,291.05Z" style="fill:#fff"/><path d="M402.73,275.88a12.49,12.49,0,0,1-2.22,6.19,17.05,17.05,0,0,1-8.67,6.66,15,15,0,0,0,1-11.16c0-.1-.07-.19-.1-.27.49-.27,1-.55,1.46-.84a32.76,32.76,0,0,0,7.26-6,9.26,9.26,0,0,1,.71,1.35A9.84,9.84,0,0,1,402.73,275.88Z" style="fill:#fff"/></svg>