<svg xmlns="http://www.w3.org/2000/svg" viewBox="0 0 338.77 291.06"><title>doh</title><ellipse cx="165.83" cy="263.37" rx="164.78" ry="27.69" style="fill:#1d1d1d;opacity:0.25"/><path d="M139.43,35.32a13.87,13.87,0,0,1,2.68-3.81,13.63,13.63,0,0,1,2.49-2.3c1-.62,2.09-1.17,3.1-1.82a.77.77,0,0,1,.85,1.29,23.52,23.52,0,0,0-4.9,4.9c-.52.62-1,1.27-1.45,1.92,5.4.38,10.82.83,16.19,1.52.38-.48.76-.95,1.12-1.43.92-1.25,1.81-2.51,2.65-3.81a91.89,91.89,0,0,0,4.69-8.07,18.7,18.7,0,0,0,1.67-3.47c-.6,0-1.21.08-1.81.14a67,67,0,0,0-8.65,1.35A76.08,76.08,0,0,0,141,27.81a97.15,97.15,0,0,0-11.31,6.94q3.32.17,6.63.37Z" style="fill:#f9c82d"/><path d="M172.4,39.53l.16-.16A24.87,24.87,0,0,1,177,35.83c1.18-.76,2.22.94,1.17,1.78a25.47,25.47,0,0,0-2.81,2.66,87,87,0,0,1,11.25,3.83c.57-.7,1.25-1.33,1.86-2l3-3.24c1.87-2,3.84-3.95,5.59-6.06a14.36,14.36,0,0,0,2-3,9.32,9.32,0,0,0,.51-1.27c-2.39.24-4.76.56-7.12,1a108.19,108.19,0,0,0-16.13,4.29c-3.59,1.24-7.05,2.74-10.5,4.3Q169.14,38.75,172.4,39.53Z" style="fill:#f9c82d"/><path d="M43.87,182a21,21,0,0,0,3-2.9,9.55,9.55,0,0,1,11.22-1.63,16.44,16.44,0,0,1,6.31,6.47c3.1-2.79,5.79-6.24,10.32-6.48,4.68-.24,8.31,2.55,11.26,5.86a17.42,17.42,0,0,1,22.49-.23l.39-.52a11.91,11.91,0,0,1,1.93-2.16,8,8,0,0,1,6-1.66,11.29,11.29,0,0,1,7.26,4,33.51,33.51,0,0,1,5.78-5.91c1.38-1.1,3.19-.3,4.15.86.84,1,2.7,3.39,4.27,2.72,1.73-.74,3-2.46,4.63-3.37a5.63,5.63,0,0,1,7,.89,9.47,9.47,0,0,1,1.64,2.61,27.19,27.19,0,0,0,.87-8.32,87,87,0,0,0-1.42-12.75c-.15-.81-.32-1.62-.52-2.42a10.17,10.17,0,0,1-8.83,4,11.53,11.53,0,0,1-9-5.78,12.78,12.78,0,0,1-2.39,2,6.36,6.36,0,0,1-7.53-.29c-1.68-1.44-2.46-3.55-3.23-5.56-.15-.4-.29-.75-.42-1.07a13.33,13.33,0,0,1-10.17,3,11.53,11.53,0,0,1-6.72-3,18.57,18.57,0,0,1-2.41-3.16,5.21,5.21,0,0,0-.75-1.05l-.16-.15s0,.08-.14.11c-5.16,2-8.33,7.26-14.18,7.88a10.73,10.73,0,0,1-10.87-6.65l-.62.47c-1.07.86-2,1.87-3.06,2.78-2.41,2.13-5.3,4.17-8.71,3.43-3.24-.7-5.31-3.23-7-5.92-.42-.68-.84-1.37-1.29-2-.23-.34-.87-1.2-.89-1.22-.5-.51-.46-.56-.91-.76.2.09-.13,0-.33-.07s-.37,0-.44.06c-1.78.7-3.06,2.78-4.52,4a15.53,15.53,0,0,1-4.25,2.56c.18.33.35.66.5,1a36.3,36.3,0,0,1,3,10.24c.89,6.48-.14,12.95-3.81,18.36C41.85,180.69,43.27,182.35,43.87,182Z" style="fill:#0d191e"/><path d="M208.12,53.81a1.15,1.15,0,0,1,1,2l-1.59,1q3.63,2.88,7,6c1.81-1.21,3.82-2.17,5.65-3.35,2-1.31,4-2.66,6-4.1a23,23,0,0,0,2.64-2s.3-.28.47-.46a1.26,1.26,0,0,0-.34-.22c-2-.82-4.39-.92-6.46-1.27-5-.84-10-1.74-15-2.38a55.56,55.56,0,0,0-11.33-.1,101.94,101.94,0,0,1,8.88,6C206,54.51,207.06,54.14,208.12,53.81Z" style="fill:#f9c82d"/><path d="M44.37,38A43,43,0,0,1,54,24.55a74.75,74.75,0,0,1,8.14-6.86c1.48-1.08,3-2.16,4.53-3.12,1.4-.86,2.9-1.52,4.28-2.39a.93.93,0,0,1,1,1.55c-1.48,1.11-2.81,2.4-4.25,3.56-1.27,1-2.62,2-3.9,3a82,82,0,0,0-7.47,6.41,44.34,44.34,0,0,0-8.16,10.88Q60,36.11,71.92,35.28q3.92-.27,7.84-.47c1.43-8.14,3.43-16.14,3.89-24.43.07-1.26.13-2.53.14-3.8a10,10,0,0,0,0-1.56l-.07.09a13.15,13.15,0,0,0-5.44.49,41.64,41.64,0,0,0-10.83,5.59A131.08,131.08,0,0,0,49.51,24.95a90.62,90.62,0,0,0-7.74,8.17c-1.61,1.95-3.07,4-4.65,5.91,1.14-.19,2.29-.34,3.42-.49Z" style="fill:#f9c82d"/><path d="M99.07,32.46c1.38-1.76,2.83-3.47,4.38-5.09a55.1,55.1,0,0,1,9.8-7.93c1-.66,1.87.79,1,1.52a95.85,95.85,0,0,0-9.74,9.63q-1.55,1.74-3,3.57,9.81-.08,19.62.23c3.23-6.32,7-12.4,10.54-18.55a19.29,19.29,0,0,0,1.4-2.52h0a7.57,7.57,0,0,0-.91-.47,9.48,9.48,0,0,0-4.39-.43A48,48,0,0,0,117.7,14.7a90.42,90.42,0,0,0-19,8.76A40.32,40.32,0,0,0,86.32,34.52q5.67-.22,11.34-.31C98.12,33.56,98.68,33,99.07,32.46Z" style="fill:#f9c82d"/><path d="M272.88,136.76l.54.72c1.73-.48,5.5-.91,6.15,1.38a.89.89,0,0,1-.55,1.09c-.82.39-1.68,0-2.51-.15a9.09,9.09,0,0,0-1.44-.13q3.49,4.59,7.1,9.11a31.21,31.21,0,0,0,6.73-1.34c.94-.32,2.67-.86,2.92-2a3.87,3.87,0,0,0-1.48-3.74C285.64,137.6,279,136.52,272.88,136.76Z" style="fill:#f9c82d"/><path d="M288.21,156.11q1.77,2.09,3.57,4.14a1.47,1.47,0,0,1,1.47-1.42l2,0a2.62,2.62,0,0,1,1.91.6,1.22,1.22,0,0,1,.09,1.72,2.57,2.57,0,0,1-.92.67,5.11,5.11,0,0,1-1.16.14l-1.76.15h0q1.75,2,3.53,3.88c.87-.1,1.73-.19,2.59-.35a41.06,41.06,0,0,0,5.68-1.44,27.2,27.2,0,0,0,3.2-1.2,2.31,2.31,0,0,0,.74-.49h0c-.6-1.17-2.7-2.14-3.78-2.72a30.63,30.63,0,0,0-10.56-3.48,26.48,26.48,0,0,0-5.32-.21Z" style="fill:#f9c82d"/><path d="M242.6,94.56a18.91,18.91,0,0,0,2.88.31,1.6,1.6,0,0,1,.17,3.2l-.81.07q4.15,5.6,8.2,11.27a36.7,36.7,0,0,0,10.76-1.4c.59-.18,1.76-.45,1.66-1.31a3.54,3.54,0,0,0-1.44-2.3,61,61,0,0,0-5.71-4A216.41,216.41,0,0,0,237.88,89q2.16,2.77,4.27,5.58A2.11,2.11,0,0,1,242.6,94.56Z" style="fill:#f9c82d"/><path d="M218.25,66.4q2.9,2.87,5.67,5.88a3.18,3.18,0,0,0,1.21-.18c1.64-.57,2.32,1.76.88,2.49q3.14,3.53,6.13,7.18c.54-.21,1.08-.4,1.58-.62,1.75-.74,3.53-1.42,5.24-2.24a14.1,14.1,0,0,0,4.24-2.83c.66-.71,1.18-1.11.28-1.89a7.05,7.05,0,0,0-2-1.2c-3.91-1.6-8.21-2.53-12.26-3.72-2.08-.62-4.16-1.26-6.24-1.89-1.37-.42-2.78-.8-4.13-1.32Z" style="fill:#f9c82d"/><path d="M261.25,120.87c1.39-.19,2.79-.25,4.17-.56,2.11-.48,3.22,2.57,1.08,3.25-.85.27-1.79.57-2.74.8l1,1.45q2.19,3,4.41,6c.93-.51,1.91-.95,2.76-1.43,2-1.13,4-2.2,5.91-3.42.92-.58,3.14-1.85,2.54-3.26s-2.89-2.44-4.29-3.07c-5.8-2.6-12.2-3.15-18.35-4.61Z" style="fill:#f9c82d"/><path d="M43.72,142.39c1.37-1.44,2.93-3.16,4.92-3.72,3.56-1,6.49.58,8.59,3.43.88,1.19,1.6,2.49,2.44,3.71.27.39.8,1.15,1,1.31a5.18,5.18,0,0,0,1.11,1,2.11,2.11,0,0,0,2.28-.16,19.63,19.63,0,0,0,3-2.53c2.5-2.38,5.09-4.61,8.67-4.94a3,3,0,0,1,3.11,2.8,4.84,4.84,0,0,0,3,4.29,5.32,5.32,0,0,0,4.93-.83c2-1.25,3.68-2.81,5.58-4.14,2.14-1.5,5-3.3,7.75-2.7s4,2.5,5.38,4.6a5.13,5.13,0,0,0,3.33,2.51c2.8.62,6-.2,7.31-2.84a3.23,3.23,0,0,1,4.26-1.36c2.16.81,3.46,2.81,4.37,4.82.42.92.75,1.86,1.12,2.8a4.93,4.93,0,0,0,.77,1.6c-.08-.11,0,0,.09.08a10.32,10.32,0,0,0,1.41-1.2c1.69-1.67,3.53-3.22,6-3.24a3.15,3.15,0,0,1,3.15,2.15c.45,2.29,1.87,4.61,4.37,5a4.15,4.15,0,0,0,4.36-2.44,3.69,3.69,0,0,1,1.54-2A14.24,14.24,0,0,0,145.7,148a43.68,43.68,0,0,0-11.14-7.34,83.86,83.86,0,0,0-28-8.35c-10.52-1.2-21.14-.66-31.7-.3-10.89.38-21.79.68-32.68,1-10.61.29-21.35.71-31.94,0q-.95,6.08-1.73,12.19c.67,2.11,1.71,4.19,3.57,5,2.1.92,3.31-.67,4.17-2.36,1.34-2.61,2.34-5.87,4.94-7.56,3.16-2,6.63-1.1,9.47,1,2.16,1.59,4.74,5.24,7.85,4.41A11,11,0,0,0,43.72,142.39Z" style="fill:#fff"/><path d="M138.07,49.45c.14-.3.33-.09,0-.37a4,4,0,0,0-1.06-.67,3.62,3.62,0,0,0-2.32-.34c-1.53.5-2.11,2.11-3.46,2.85a2,2,0,0,1-.77.25C133.4,52,136.64,52.43,138.07,49.45Z" style="fill:#03523b"/><path d="M277.33,154a2.43,2.43,0,0,1-1.35-1.69c-9.9-12.47-19.11-25.53-28.39-38.5a2.17,2.17,0,0,1-.83-1.16c-3.92-5.47-7.86-10.92-11.87-16.3-10.45-14-21.87-27.71-36.21-37.89A77.76,77.76,0,0,0,175.64,47c-9.84-2.86-20.08-3.91-30.26-4.76a484,484,0,0,0-64.11-1.07q-16,.79-31.9,2.55l.44.27c2.26,1.51,5.65,4.6,5,7.69-.49,2.24-4.67,3.42-4.73.44a1.17,1.17,0,0,1,.56-1l-.15-.18c-.36-.35-.72-.68-1.09-1a5.65,5.65,0,0,0-2.15-1.48c-1.74-.41-2.67,1.69-3.24,3a9.29,9.29,0,0,0-.68,2.74,7.05,7.05,0,0,0,0,1.24c0,.4.15.6,0,.56a8.38,8.38,0,0,0,2.37.37c.84.11,1.69.21,2.54.25,4.36.22,8.73,0,13.08.29,4.1.25,9,.82,12.12,3.74,1,.92.49,2.91-1,2.87-3.23-.09-6.42-.72-9.68-.81s-6.8.11-10.2.18a39,39,0,0,1-10.33-.77c-3.6-.93-5.38-3.7-5.1-7.39.25-3.32,1.22-6.8,3.7-9.19a10.43,10.43,0,0,1,1.31-1.08,52.65,52.65,0,0,0-7,1.17c-2.31.58-6.51,1.38-6.59,4.43a2.29,2.29,0,0,1-1.28,2.06c-1.19,5.62-2.47,11.22-3.78,16.81a6.9,6.9,0,0,1,5.29-.82c7.19-1.43,14.92-1.2,22.1-1,5.3.16,10.64.3,15.93.76,2.27.19,5,.6,6.81,2.17a5.18,5.18,0,0,1,1.08,6.42C70.62,84.15,60.89,86.35,53,87.42c-9,1.22-19.85,2.13-28-2.69a13.72,13.72,0,0,1-4.24-3.78c-1.86,7.91-3.69,15.83-5.3,23.8-1.67,8.27-3.23,16.57-4.59,24.9,8.55-1.22,17.27-1.69,25.88-2.12,9.14-.45,18.28-1,27.43-1.34,17.47-.74,35.58-2.62,52.81,1.26A85.53,85.53,0,0,1,144,138.37c3.86,2.47,7.7,5.44,10,9.53,2.4,4.35,3.39,9.09,4.1,14,1.18,8,2.25,17.27-1.73,24.75-4.71,8.85-14.37,11.3-23.53,12.87-21.11,3.62-42.59,1.45-63.75-.45-10.58-.95-21.17-1.79-31.8-1.92-10.26-.13-20.51.29-30.73,1.14.85,5.69,2.8,11.22,7.44,14.88,6.74,5.32,16.29,5.83,24.5,6.57a286.55,286.55,0,0,0,32.28,1.22,2.92,2.92,0,0,1,3,2.72c.54,7.28,1,14.57,1.44,21.86.15,2.32.17,5.3,1.93,6.76a6.21,6.21,0,0,0,4,1.21,9.86,9.86,0,0,0,9-6.25c2.19-5.21,1.54-11.2,1-16.66a3,3,0,0,1,2.82-3.13,104.31,104.31,0,0,1,37.8,1.29,3.08,3.08,0,0,1,2.42,2.86c-.3,5.44-.27,11.62,2.57,16.47,2.11,3.6,6.06,6.93,10.49,6.67,8.63-.5,9.93-11.74,9.71-18.43a3.18,3.18,0,0,1,3-3.3l30.73-1.64a3.24,3.24,0,0,1,3.34,3c.72,4.45,1.44,9.35,4,13.17,1.8,2.68,4.89,5.38,8.35,5.17,3.65-.22,6.39-3.1,7.78-6.3,1.77-4.05,1.75-8.64,1.79-13,0-1.58,1.2-3.45,3-3.34A86.85,86.85,0,0,0,249,226.68c2.55-.75,4.36,1.32,4.14,3.73-.41,4.47-.54,9.46,1.1,13.73,1.26,3.26,4.43,6.38,8.38,5.44,9.11-2.15,10.6-11,10.2-19.23-2.23-.71-2.12-3.68-.43-4.89-.13-1.12-.28-2.21-.43-3.22a3.14,3.14,0,0,1,3-3.29,3.19,3.19,0,0,1,3.29,3q.19,1.28.36,2.58A110.28,110.28,0,0,0,290.08,223a81.76,81.76,0,0,0,16.12-4.92,77.2,77.2,0,0,0,23.33-15.43,171.26,171.26,0,0,1-29.74-23.57A285.54,285.54,0,0,1,277.33,154ZM72,105.38c-.79,3.61-1.51,7.23-2.37,10.82-.75,3.14-5.66,2.08-4.91-1.08.86-3.59,1.86-7.16,2.79-10.73.49-1.87,1-3.74,1.49-5.6a9.66,9.66,0,0,1,1.92-4.15,1.43,1.43,0,0,1,2.4.5C74.16,98.39,72.7,102.18,72,105.38ZM96.48,55.91c9.48-3.76,20.06-7.54,30.39-5.68.7.13,1.52.36,2.4.61l-.12-.08c-2.57-2-.45-6.11,1.74-7.44a9.13,9.13,0,0,1,9.38-.07c3,1.81,5.12,5,3.43,8.51a10.8,10.8,0,0,1-6.82,5.7,11.46,11.46,0,0,1-5,.26c-1.54-.31-3-.89-4.53-1.26a33.14,33.14,0,0,0-9.7-.85c-6.79.39-13.22,2.2-19.74,4C95.94,60.48,93.67,57,96.48,55.91ZM84.84,102.56c0,1.67,0,3.33-.12,5s-.24,3.33-.44,5a11.61,11.61,0,0,0-.22,1.79,8.43,8.43,0,0,1,.33,1.31,2.18,2.18,0,0,1-2.05,2.28h-.21A2.34,2.34,0,0,1,80,116.87a6,6,0,0,1-.51-4.1c.22-1.66.39-3.31.55-5s.27-3.34.33-5a16.82,16.82,0,0,1,.4-4.89,1.85,1.85,0,0,1,3.53-.18A12.71,12.71,0,0,1,84.84,102.56ZM148,83c-7.38,4.84-17.19,5-25.71,5.29a86.87,86.87,0,0,1-15.94-.69C102,86.95,97,86,93.68,82.81a9.28,9.28,0,0,1-3.25-6.51,7.42,7.42,0,0,1,3.31-5.78c.26-.2.53-.39.8-.57a2.94,2.94,0,0,1,1.56-2.36c6.63-3.64,14.65-3.86,22-3.83a134.18,134.18,0,0,1,23.37,2.08c4.17.75,10.48,1.23,12.3,5.85C155.56,76.14,151.47,80.74,148,83Z" style="fill:#a67c52"/><path d="M143.74,73.17a119.38,119.38,0,0,0-15.22-2.11q-3.41-.23-6.84-.29v.08a1.75,1.75,0,0,1,.07.24l.13.34c0,.05.22.43.22.43A2.44,2.44,0,0,1,118,74.54a5.6,5.6,0,0,1-.94-3.77q-2.11,0-4.22.16a40.05,40.05,0,0,0-12.44,2.37,5.45,5.45,0,0,1-2,.67,9,9,0,0,0-2,2c-.8,1.15,1.86,2.93,2.62,3.33A18.91,18.91,0,0,0,104.59,81a70.76,70.76,0,0,0,15.47.91,138.07,138.07,0,0,0,14.37-1.2c3.55-.52,7.34-1.38,10.26-3.57a10.39,10.39,0,0,0,2-1.92,4.94,4.94,0,0,0,.59-.85l.08-.17a4.92,4.92,0,0,0-.5-.32C145.83,73.59,144.79,73.38,143.74,73.17Z" style="fill:#fff"/><path d="M40.24,72.2c-3,0-6,.08-8.94.1A2.48,2.48,0,0,1,29,73.81c-2.5.07-4.93,2.09-2.46,4.21,3,2.53,7.62,3.48,11.41,3.73a78.7,78.7,0,0,0,13.72-.59A43.51,43.51,0,0,0,62.3,79,17.66,17.66,0,0,0,67,76.47a12.51,12.51,0,0,0,1.81-1.72c.17-.2.36-.39.52-.61a19.67,19.67,0,0,0-5.85-.89c-2.58-.17-5.15-.34-7.73-.49-2.92-.17-5.85-.32-8.78-.42a15.7,15.7,0,0,1,.7,3.21A2.32,2.32,0,1,1,43,75.8a15.71,15.71,0,0,1,.43-3.56C42.38,72.22,41.31,72.2,40.24,72.2Z" style="fill:#fff"/><path d="M22,182.51l.15,0S22.06,182.51,22,182.51Z" style="fill:#03523b"/><path d="M51.13,190.69c15.12,1,30.18,2.91,45.32,3.65a170.1,170.1,0,0,0,31.64-1c6.41-.89,14.93-1.83,19.84-6.66a2.36,2.36,0,0,1-.33-.46c-.41-.79-.81-1.58-1.19-2.38a14.48,14.48,0,0,0-.74-1.49l-.11.06c-.44.31-.87.63-1.28,1a18.73,18.73,0,0,1-2.35,1.8c-4.06,2.38-7.66.9-10.63-1.79a25.6,25.6,0,0,0-4.35,5.66,3,3,0,0,1-5.13.27c-1.59-2.18-5.36-7.13-8-3.56-1.32,1.76-2.57,3.39-4.87,3.78s-3.22-1.43-4.85-2.66c-4.47-3.37-12.36-2.67-15.61,2.13a2.94,2.94,0,0,1-5,.26c-1.85-2.44-5.34-7.18-9-6s-6.09,5.23-9.34,7.31a2.85,2.85,0,0,1-3.94-.82c-1.38-2.66-3.14-6.75-6.37-7.59a3.62,3.62,0,0,0-3.75.67A41.86,41.86,0,0,1,47.88,186a6.68,6.68,0,0,1-9-.59c-1-.92-1.89-2.14-3.17-2.67a5.71,5.71,0,0,0-3.78,0,13.62,13.62,0,0,0-4.59,2.42c-1.41,1.13-2.76,2.53-4.69,2.62-3.33.16-4.88-2.45-6.4-4.95-.5-.82-1.12-2.05-2.26-2a4.27,4.27,0,0,0-3,1.45C9,184.47,9.13,188,9.31,191A291,291,0,0,1,51.13,190.69Z" style="fill:#fff"/><path d="M126.42,152.08l.18,0h0Z" style="fill:#03523b"/><path d="M336.85,198.78a167.94,167.94,0,0,1-35.44-28.12l.26-.05a38.09,38.09,0,0,0,7.91-2.69c2.05-.93,4.06-2.33,4.42-4.73.44-3-2-4.83-4.17-6.29a29.59,29.59,0,0,0-14.15-4.84,31.36,31.36,0,0,0-5.9.11,24.43,24.43,0,0,0,2.49-1c4.08-2,5-6.51,2.91-10.3-2-3.62-7-5.47-10.67-6.58a25.16,25.16,0,0,0-7.46-1.05,37.21,37.21,0,0,0,5-3.57,7.61,7.61,0,0,0,2.78-5.33c.16-2.13-1.56-4.08-3.14-5.24-5.35-3.92-12.07-4.77-18.63-5.83a14.63,14.63,0,0,0,3.68-1.42,5.62,5.62,0,0,0,3-5.78c-.36-2.71-2.43-4.53-4.56-6A142.67,142.67,0,0,0,236.94,85a54.33,54.33,0,0,0,5.9-2.92,15.09,15.09,0,0,0,4.68-4.23c1.6-2.29.93-4.57-.8-6.54-1.29-1.48-3.37-2.21-5.18-2.79-2.53-.81-5.13-1.41-7.69-2.11-2.72-.74-5.44-1.48-8.17-2.19L223,63.47l.39-.25a86,86,0,0,0,7.31-5.38c1.77-1.44,4.13-3.68,3.09-6.27-.92-2.28-3-3.23-5.31-3.66-6-1.1-12.12-1.86-18.19-2.6s-12.64-1.2-18.38,1.26l-.68-.35c.42-.47.82-.95,1.22-1.38l3.46-3.7a61.25,61.25,0,0,0,6-6.92c1.42-2.07,2.92-5,2.48-7.57-.66-3.9-5.31-2.64-8-2.25a92,92,0,0,0-29.75,9.26,81.75,81.75,0,0,0,5.23-9.39c1.2-2.52,2.79-6.55-.54-8.27-1.44-.75-3.26-.38-4.8-.23-1.83.18-3.65.45-5.46.78a73.19,73.19,0,0,0-19.87,6.53,63.15,63.15,0,0,0-12.64,8.09c.89-1.58,1.76-3.16,2.64-4.73l3.18-5.62A41.78,41.78,0,0,0,137.49,15c1.56-4.25-2.58-6.64-6.21-7.16-3.85-.55-7.9.53-11.6,1.52a79.05,79.05,0,0,0-22.27,10.2,41.94,41.94,0,0,0-10.87,9.54A125,125,0,0,0,88.89,8.22c0-2.1.29-4.62-1.16-6.34C86.16,0,83.58-.06,81.29,0c-4.74.19-9.21,2.45-13.18,4.86A131.8,131.8,0,0,0,47.56,20.31a78.94,78.94,0,0,0-8.79,9.39C36.27,32.89,34,36.12,32.85,40a15.75,15.75,0,0,0-3.75,1.73c-2.95,1.9-5.23,5-5.06,8.58a2.35,2.35,0,0,0,.32,1.12C18.57,70.65,13.85,90.3,9.67,109.92q-3,14.1-5.13,28.4c-1,1.55-1.19,3.9-1.23,5.54a15.78,15.78,0,0,0,2.1,7.78c1.2,2.19,3.26,4.44,5.73,5.14,2.93.83,5.55-.58,7.38-2.83a6.55,6.55,0,0,0,1.36-3c1.32-2.12,2-4.67,3.78-6.46s4.67,1.65,5.88,2.78c2.3,2.16,4.68,3.6,7.51,3.87a11.94,11.94,0,0,1,1.41,3.12,45.18,45.18,0,0,1,1.78,8.4c.56,5.06-.29,10.59-3.33,14.79a12,12,0,0,0-6.67.1,17.24,17.24,0,0,0-5,2.5,24.28,24.28,0,0,0-2.42,2,1.63,1.63,0,0,1-.6.37c-1-.83-1.62-2.36-2.39-3.42a7.37,7.37,0,0,0-4.27-3c-3.49-.85-6.91,1.48-8.76,4.22-2.15,3.17-1.39,7.28-.49,10.82a5.54,5.54,0,0,0-5.85,3.63,6.45,6.45,0,0,0-.08,4.35,18.54,18.54,0,0,0,2,5.05C4.22,210.71,8,216.27,14.15,219.8c7.47,4.25,16.7,4.79,25.06,5.55,9.64.87,19.28,1.22,28.94,1.31.32,7.35.58,14.74,1.31,22A12,12,0,0,0,73.39,257a12.12,12.12,0,0,0,7.69,2.54,15.7,15.7,0,0,0,13.66-8.14c3.12-5.5,3.07-12.18,2.56-18.39a97.16,97.16,0,0,1,30.57,1.25c-.15,6.17.69,12.33,3.87,17.76a18.62,18.62,0,0,0,15.32,9c5.77.14,10.62-3.83,13.17-8.72a30.33,30.33,0,0,0,3-13.18l24.94-1.28c.85,4.78,2,9.51,4.76,13.6a16.74,16.74,0,0,0,13.76,7.68c5.43,0,9.91-4,12.49-8.48,2.44-4.21,2.94-9.23,3.06-14.09A93.17,93.17,0,0,0,246.54,234a32,32,0,0,0,1.73,12.6c2.28,5.91,7.77,10.05,14.25,9.5s12.22-5.52,14.69-11.34a30.53,30.53,0,0,0,2-13.72,59,59,0,0,0,11.63-1.08,85.93,85.93,0,0,0,17.57-5.15,84.34,84.34,0,0,0,29.45-20.43A3.6,3.6,0,0,0,336.85,198.78ZM294.8,156.26a30.63,30.63,0,0,1,10.56,3.48c1.07.59,3.17,1.55,3.78,2.72h0a2.31,2.31,0,0,1-.74.49,27.2,27.2,0,0,1-3.2,1.2,41.06,41.06,0,0,1-5.68,1.44c-.86.16-1.73.25-2.59.35q-1.79-1.92-3.53-3.88h0l1.76-.15a5.11,5.11,0,0,0,1.16-.14,2.57,2.57,0,0,0,.92-.67,1.22,1.22,0,0,0-.09-1.72,2.62,2.62,0,0,0-1.91-.6l-2,0a1.47,1.47,0,0,0-1.47,1.42q-1.8-2.05-3.57-4.14l1.27-.07A26.48,26.48,0,0,1,294.8,156.26Zm-4.46-14.59a3.87,3.87,0,0,1,1.48,3.74c-.25,1.16-2,1.7-2.92,2a31.21,31.21,0,0,1-6.73,1.34q-3.61-4.51-7.1-9.11a9.09,9.09,0,0,1,1.44.13c.83.14,1.69.54,2.51.15a.89.89,0,0,0,.55-1.09c-.65-2.28-4.41-1.85-6.15-1.38l-.54-.72C279,136.52,285.64,137.6,290.34,141.67Zm-14.22-21c1.4.63,3.64,1.55,4.29,3.07s-1.62,2.67-2.54,3.26c-1.92,1.22-3.94,2.29-5.91,3.42-.85.48-1.83.92-2.76,1.43q-2.22-3-4.41-6l-1-1.45c1-.23,1.89-.53,2.74-.8,2.14-.68,1-3.73-1.08-3.25-1.38.32-2.78.38-4.17.56L257.78,116C263.92,117.5,270.33,118.05,276.13,120.65ZM258.3,100.42a61,61,0,0,1,5.71,4,3.54,3.54,0,0,1,1.44,2.3c.09.85-1.07,1.12-1.66,1.31a36.7,36.7,0,0,1-10.76,1.4q-4.06-5.66-8.2-11.27l.81-.07a1.6,1.6,0,0,0-.17-3.2,18.91,18.91,0,0,1-2.88-.31,2.11,2.11,0,0,0-.46,0Q240,91.74,237.88,89A216.41,216.41,0,0,1,258.3,100.42Zm-35.3-33c2.08.64,4.15,1.28,6.24,1.89,4.05,1.2,8.35,2.12,12.26,3.72a7.05,7.05,0,0,1,2,1.2c.9.78.38,1.18-.28,1.89A14.1,14.1,0,0,1,239,78.91c-1.71.82-3.5,1.5-5.24,2.24-.51.21-1,.41-1.58.62q-3-3.65-6.13-7.18c1.44-.73.77-3.07-.88-2.49a3.18,3.18,0,0,1-1.21.18q-2.77-3-5.67-5.88l.63-.34C220.22,66.57,221.63,67,223,67.37ZM207.45,49.05c5,.64,10,1.54,15,2.38,2.08.35,4.51.45,6.46,1.27a1.26,1.26,0,0,1,.34.22c-.16.18-.48.48-.47.46a23,23,0,0,1-2.64,2c-1.94,1.44-4,2.79-6,4.1-1.83,1.18-3.84,2.14-5.65,3.35q-3.41-3.14-7-6l1.59-1a1.15,1.15,0,0,0-1-2c-1.06.34-2.09.7-3.12,1.11a101.94,101.94,0,0,0-8.88-6A55.56,55.56,0,0,1,207.45,49.05ZM176.32,33.86a108.19,108.19,0,0,1,16.13-4.29c2.36-.42,4.74-.74,7.12-1a9.32,9.32,0,0,1-.51,1.27,14.36,14.36,0,0,1-2,3c-1.75,2.11-3.72,4.06-5.59,6.06l-3,3.24c-.61.65-1.29,1.28-1.86,2a87,87,0,0,0-11.25-3.83,25.47,25.47,0,0,1,2.81-2.66c1-.84,0-2.53-1.17-1.78a24.87,24.87,0,0,0-4.41,3.54l-.16.16q-3.26-.78-6.58-1.37C169.27,36.6,172.73,35.1,176.32,33.86ZM141,27.81a76.08,76.08,0,0,1,17.1-6.09,67,67,0,0,1,8.65-1.35c.6-.06,1.21-.1,1.81-.14a18.7,18.7,0,0,1-1.67,3.47,91.89,91.89,0,0,1-4.69,8.07c-.84,1.3-1.73,2.57-2.65,3.81-.36.48-.74,1-1.12,1.43-5.37-.69-10.79-1.14-16.19-1.52.46-.65.93-1.29,1.45-1.92a23.52,23.52,0,0,1,4.9-4.9.77.77,0,0,0-.85-1.29c-1,.65-2.07,1.2-3.1,1.82a13.63,13.63,0,0,0-2.49,2.3,13.87,13.87,0,0,0-2.68,3.81l-3.16-.2q-3.31-.21-6.63-.37A97.15,97.15,0,0,1,141,27.81ZM98.73,23.46a90.42,90.42,0,0,1,19-8.76,48,48,0,0,1,10.06-2.27,9.48,9.48,0,0,1,4.39.43,7.57,7.57,0,0,1,.91.47h0a19.29,19.29,0,0,1-1.4,2.52c-3.52,6.15-7.31,12.23-10.54,18.55q-9.81-.31-19.62-.23,1.44-1.83,3-3.57A95.85,95.85,0,0,1,114.25,21c.87-.73,0-2.18-1-1.52a55.1,55.1,0,0,0-9.8,7.93c-1.55,1.62-3,3.33-4.38,5.09-.38.49-1,1.09-1.41,1.74q-5.67.09-11.34.31A40.32,40.32,0,0,1,98.73,23.46Zm-57,9.66a90.62,90.62,0,0,1,7.74-8.17A131.08,131.08,0,0,1,67.44,11.19,41.64,41.64,0,0,1,78.26,5.61a13.15,13.15,0,0,1,5.44-.49L83.77,5a10,10,0,0,1,0,1.56c0,1.27-.07,2.53-.14,3.8-.46,8.3-2.46,16.3-3.89,24.43q-3.92.2-7.84.47Q60,36.09,48.17,37.55a44.34,44.34,0,0,1,8.16-10.88,82,82,0,0,1,7.47-6.41c1.29-1,2.63-1.94,3.9-3,1.44-1.16,2.77-2.46,4.25-3.56a.93.93,0,0,0-1-1.55c-1.39.87-2.89,1.54-4.28,2.39-1.57,1-3.05,2-4.53,3.12A74.75,74.75,0,0,0,54,24.55,43,43,0,0,0,44.37,38l-3.84.51c-1.13.16-2.28.31-3.42.49C38.7,37.09,40.16,35.06,41.77,33.12ZM38.56,145.65c-3.11.84-5.69-2.82-7.85-4.41-2.84-2.09-6.31-3-9.47-1-2.6,1.69-3.6,4.95-4.94,7.56-.87,1.69-2.08,3.28-4.17,2.36-1.86-.81-2.9-2.89-3.57-5q.77-6.11,1.73-12.19c10.59.74,21.33.32,31.94,0,10.9-.3,21.79-.6,32.68-1,10.55-.37,21.18-.9,31.7.3a83.86,83.86,0,0,1,28,8.35A43.68,43.68,0,0,1,145.7,148a14.24,14.24,0,0,1,1.87,2.25,3.69,3.69,0,0,0-1.54,2,4.15,4.15,0,0,1-4.36,2.44c-2.5-.37-3.92-2.68-4.37-5a3.15,3.15,0,0,0-3.15-2.15c-2.51,0-4.34,1.58-6,3.24a10.32,10.32,0,0,1-1.41,1.2c-.1-.11-.16-.18-.09-.08a4.93,4.93,0,0,1-.77-1.6c-.37-.93-.71-1.88-1.12-2.8-.91-2-2.21-4-4.37-4.82a3.23,3.23,0,0,0-4.26,1.36c-1.35,2.64-4.51,3.46-7.31,2.84a5.13,5.13,0,0,1-3.33-2.51c-1.36-2.1-2.79-4-5.38-4.6s-5.61,1.2-7.75,2.7c-1.9,1.33-3.62,2.9-5.58,4.14a5.32,5.32,0,0,1-4.93.83,4.84,4.84,0,0,1-3-4.29,3,3,0,0,0-3.11-2.8c-3.58.33-6.17,2.56-8.67,4.94a19.63,19.63,0,0,1-3,2.53,2.11,2.11,0,0,1-2.28.16,5.18,5.18,0,0,1-1.11-1c-.15-.16-.69-.92-1-1.31-.83-1.23-1.56-2.52-2.44-3.71-2.1-2.86-5-4.43-8.59-3.43-2,.56-3.55,2.28-4.92,3.72A11,11,0,0,1,38.56,145.65Zm6.63,16.17a36.3,36.3,0,0,0-3-10.24c-.15-.33-.32-.66-.5-1A15.53,15.53,0,0,0,45.91,148c1.46-1.19,2.74-3.27,4.52-4,.08,0,.36,0,.44-.06s.53.16.33.07c.45.2.41.25.91.76,0,0,.66.88.89,1.22.45.67.86,1.36,1.29,2,1.68,2.69,3.74,5.21,7,5.92,3.41.74,6.31-1.3,8.71-3.43,1-.91,2-1.92,3.06-2.78l.62-.47A10.73,10.73,0,0,0,84.54,154c5.85-.63,9-5.91,14.18-7.88.09,0,.12-.07.14-.11l.16.15a5.21,5.21,0,0,1,.75,1.05,18.57,18.57,0,0,0,2.41,3.16,11.53,11.53,0,0,0,6.72,3,13.33,13.33,0,0,0,10.17-3c.13.31.26.67.42,1.07.77,2,1.55,4.12,3.23,5.56a6.36,6.36,0,0,0,7.53.29,12.78,12.78,0,0,0,2.39-2,11.53,11.53,0,0,0,9,5.78,10.17,10.17,0,0,0,8.83-4c.2.8.37,1.61.52,2.42a87,87,0,0,1,1.42,12.75,27.19,27.19,0,0,1-.87,8.32,9.47,9.47,0,0,0-1.64-2.61,5.63,5.63,0,0,0-7-.89c-1.66.91-2.9,2.63-4.63,3.37-1.57.67-3.43-1.71-4.27-2.72-1-1.16-2.77-2-4.15-.86a33.51,33.51,0,0,0-5.78,5.91,11.29,11.29,0,0,0-7.26-4,8,8,0,0,0-6,1.66,11.91,11.91,0,0,0-1.93,2.16l-.39.52A17.42,17.42,0,0,0,86,183.3c-3-3.32-6.58-6.11-11.26-5.86-4.53.24-7.22,3.69-10.32,6.48a16.44,16.44,0,0,0-6.31-6.47,9.55,9.55,0,0,0-11.22,1.63,21,21,0,0,1-3,2.9c-.6.37-2-1.29-2.49-1.79C45,174.77,46.08,168.31,45.18,161.83Zm81.24-9.74.19,0h0ZM22.18,182.48l-.15,0S22.13,182.45,22.18,182.48Zm-11.23-.24a4.27,4.27,0,0,1,3-1.45c1.14-.06,1.76,1.18,2.26,2,1.52,2.5,3.07,5.1,6.4,4.95,1.93-.09,3.28-1.48,4.69-2.62a13.62,13.62,0,0,1,4.59-2.42,5.71,5.71,0,0,1,3.78,0c1.27.53,2.18,1.75,3.17,2.67a6.68,6.68,0,0,0,9,.59,41.86,41.86,0,0,0,3.19-3.14,3.62,3.62,0,0,1,3.75-.67c3.23.85,5,4.93,6.37,7.59a2.85,2.85,0,0,0,3.94.82c3.25-2.08,5.58-6.14,9.34-7.31s7.16,3.58,9,6a2.94,2.94,0,0,0,5-.26c3.25-4.8,11.14-5.5,15.61-2.13,1.62,1.23,2.47,3.06,4.85,2.66s3.56-2,4.87-3.78c2.67-3.57,6.44,1.38,8,3.56a3,3,0,0,0,5.13-.27,25.6,25.6,0,0,1,4.35-5.66c3,2.7,6.56,4.18,10.63,1.79a18.73,18.73,0,0,0,2.35-1.8c.42-.34.84-.67,1.28-1l.11-.06a14.48,14.48,0,0,1,.74,1.49c.39.8.78,1.6,1.19,2.38a2.36,2.36,0,0,0,.33.46c-4.91,4.82-13.43,5.77-19.84,6.66a170.1,170.1,0,0,1-31.64,1c-15.14-.74-30.19-2.67-45.32-3.65A291,291,0,0,0,9.31,191C9.13,188,9,184.47,10.95,182.23ZM306.2,218.1A81.76,81.76,0,0,1,290.08,223a110.28,110.28,0,0,1-11.52,1.46q-.17-1.3-.36-2.58a3.19,3.19,0,0,0-3.29-3,3.14,3.14,0,0,0-3,3.29c.15,1,.3,2.1.43,3.22-1.69,1.21-1.8,4.18.43,4.89.4,8.28-1.09,17.08-10.2,19.23-4,.93-7.12-2.18-8.38-5.44-1.65-4.26-1.51-9.26-1.1-13.73.22-2.4-1.59-4.48-4.14-3.73a86.85,86.85,0,0,1-30.09,3.39c-1.81-.11-3,1.77-3,3.34,0,4.34,0,8.93-1.79,13-1.39,3.2-4.14,6.08-7.78,6.3-3.46.21-6.54-2.5-8.35-5.17-2.57-3.82-3.29-8.72-4-13.17a3.24,3.24,0,0,0-3.34-3L159.89,233a3.18,3.18,0,0,0-3,3.3c.22,6.7-1.07,17.93-9.71,18.43-4.43.26-8.38-3.07-10.49-6.67-2.84-4.85-2.87-11-2.57-16.47a3.08,3.08,0,0,0-2.42-2.86,104.31,104.31,0,0,0-37.8-1.29,3,3,0,0,0-2.82,3.13c.52,5.47,1.17,11.46-1,16.66a9.86,9.86,0,0,1-9,6.25,6.21,6.21,0,0,1-4-1.21c-1.76-1.46-1.79-4.44-1.93-6.76-.46-7.29-.9-14.58-1.44-21.86a2.92,2.92,0,0,0-3-2.72,286.55,286.55,0,0,1-32.28-1.22c-8.21-.74-17.76-1.25-24.5-6.57-4.64-3.66-6.59-9.19-7.44-14.88,10.22-.86,20.47-1.27,30.73-1.14,10.63.13,21.22,1,31.8,1.92,21.17,1.89,42.64,4.07,63.75.45,9.16-1.57,18.83-4,23.53-12.87,4-7.48,2.91-16.71,1.73-24.75-.71-4.87-1.7-9.61-4.1-14-2.26-4.09-6.1-7.06-10-9.53a85.53,85.53,0,0,0-27.1-10.93c-17.23-3.89-35.34-2-52.81-1.26-9.14.39-18.28.89-27.43,1.34-8.61.42-17.34.9-25.88,2.12,1.35-8.33,2.91-16.63,4.59-24.9,1.61-8,3.44-15.89,5.3-23.8a13.72,13.72,0,0,0,4.24,3.78c8.19,4.83,19,3.91,28,2.69,7.9-1.07,17.63-3.27,21.77-10.94a5.18,5.18,0,0,0-1.08-6.42c-1.79-1.56-4.54-2-6.81-2.17-5.29-.45-10.63-.59-15.93-.76-7.18-.22-14.91-.44-22.1,1a6.9,6.9,0,0,0-5.29.82c1.31-5.59,2.59-11.19,3.78-16.81a2.29,2.29,0,0,0,1.28-2.06c.08-3,4.29-3.85,6.59-4.43a52.65,52.65,0,0,1,7-1.17,10.43,10.43,0,0,0-1.31,1.08c-2.48,2.4-3.45,5.87-3.7,9.19-.28,3.69,1.5,6.45,5.1,7.39a39,39,0,0,0,10.33.77c3.4-.07,6.8-.28,10.2-.18s6.45.73,9.68.81c1.5,0,2-2,1-2.87-3.11-2.92-8-3.49-12.12-3.74-4.35-.26-8.72-.07-13.08-.29-.85,0-1.7-.14-2.54-.25A8.38,8.38,0,0,1,43.34,56c.11,0,0-.15,0-.56a7.05,7.05,0,0,1,0-1.24A9.29,9.29,0,0,1,44,51.47c.57-1.34,1.5-3.44,3.24-3a5.65,5.65,0,0,1,2.15,1.48c.37.33.73.66,1.09,1l.15.18a1.17,1.17,0,0,0-.56,1c.06,3,4.24,1.8,4.73-.44.68-3.08-2.7-6.18-5-7.69l-.44-.27q15.9-1.77,31.9-2.55a484,484,0,0,1,64.11,1.07c10.18.85,20.42,1.9,30.26,4.76a77.76,77.76,0,0,1,23.05,11.43c14.34,10.18,25.76,23.9,36.21,37.89,4,5.38,8,10.83,11.87,16.3a2.17,2.17,0,0,0,.83,1.16c9.28,13,18.48,26,28.39,38.5a2.43,2.43,0,0,0,1.35,1.69,285.54,285.54,0,0,0,22.47,25.1,171.26,171.26,0,0,0,29.74,23.57A77.2,77.2,0,0,1,306.2,218.1ZM45.45,78a2.33,2.33,0,0,0,2.19-2.44,15.7,15.7,0,0,0-.7-3.21c2.93.11,5.85.26,8.78.42,2.58.15,5.15.32,7.73.49a19.67,19.67,0,0,1,5.85.89c-.16.21-.35.41-.52.61A12.51,12.51,0,0,1,67,76.47,17.66,17.66,0,0,1,62.3,79a43.51,43.51,0,0,1-10.6,2.18A78.7,78.7,0,0,1,38,81.74c-3.79-.25-8.44-1.19-11.41-3.73-2.47-2.11,0-4.13,2.46-4.21a2.48,2.48,0,0,0,2.28-1.51c3,0,6-.11,8.94-.1,1.07,0,2.13,0,3.2,0A15.71,15.71,0,0,0,43,75.8,2.33,2.33,0,0,0,45.45,78Z" style="fill:#6f2900"/><path d="M141.5,65.85a134.18,134.18,0,0,0-23.37-2.08c-7.39,0-15.4.19-22,3.83A2.94,2.94,0,0,0,94.54,70c-.27.18-.54.37-.8.57a7.42,7.42,0,0,0-3.31,5.78,9.28,9.28,0,0,0,3.25,6.51C97,86,102,86.95,106.36,87.61a86.87,86.87,0,0,0,15.94.69c8.52-.3,18.33-.45,25.71-5.29,3.47-2.28,7.56-6.87,5.8-11.32C152,67.08,145.67,66.6,141.5,65.85Zm5.78,8.54a4.94,4.94,0,0,1-.59.85,10.39,10.39,0,0,1-2,1.92c-2.93,2.19-6.71,3.05-10.26,3.57a138.07,138.07,0,0,1-14.37,1.2A70.76,70.76,0,0,1,104.59,81a18.91,18.91,0,0,1-5.47-1.74c-.76-.4-3.41-2.18-2.62-3.33a9,9,0,0,1,2-2,5.45,5.45,0,0,0,2-.67,40.05,40.05,0,0,1,12.44-2.37q2.11-.12,4.22-.16a5.6,5.6,0,0,0,.94,3.77,2.44,2.44,0,0,0,4.08-2.68s-.18-.38-.22-.43l-.13-.34a1.75,1.75,0,0,0-.07-.24v-.08q3.42.06,6.84.29a119.38,119.38,0,0,1,15.22,2.11c1,.21,2.1.42,3.12.72a4.92,4.92,0,0,1,.5.32Z" style="fill:#6f2900"/><path d="M97.87,59.61c6.52-1.8,12.95-3.61,19.74-4a33.14,33.14,0,0,1,9.7.85c1.53.37,3,1,4.53,1.26a11.46,11.46,0,0,0,5-.26,10.8,10.8,0,0,0,6.82-5.7c1.69-3.53-.45-6.7-3.43-8.51a9.13,9.13,0,0,0-9.38.07c-2.19,1.33-4.31,5.45-1.74,7.44l.12.08c-.88-.25-1.7-.49-2.4-.61-10.33-1.86-20.91,1.92-30.39,5.68C93.67,57,95.94,60.48,97.87,59.61Zm33.36-8.69c1.34-.75,1.92-2.35,3.46-2.85a3.62,3.62,0,0,1,2.32.34,4,4,0,0,1,1.06.67c.34.28.15.07,0,.37-1.43,3-4.67,2.5-7.61,1.72A2,2,0,0,0,131.23,50.92Z" style="fill:#6f2900"/><path d="M70.93,94.64A9.66,9.66,0,0,0,69,98.78c-.52,1.86-1,3.73-1.49,5.6-.93,3.57-1.93,7.14-2.79,10.73-.76,3.16,4.15,4.22,4.91,1.08.86-3.59,1.58-7.22,2.37-10.82.7-3.2,2.15-7,1.33-10.24A1.43,1.43,0,0,0,70.93,94.64Z" style="fill:#6f2900"/><path d="M80.8,97.9a16.82,16.82,0,0,0-.4,4.89c-.06,1.67-.17,3.34-.33,5s-.33,3.32-.55,5a6,6,0,0,0,.51,4.1,2.34,2.34,0,0,0,2.11,1.07h.21a2.18,2.18,0,0,0,2.05-2.28,8.43,8.43,0,0,0-.33-1.31,11.61,11.61,0,0,1,.22-1.79c.2-1.66.34-3.32.44-5s.12-3.33.12-5a12.71,12.71,0,0,0-.51-4.85A1.85,1.85,0,0,0,80.8,97.9Z" style="fill:#6f2900"/></svg>