<svg xmlns="http://www.w3.org/2000/svg" viewBox="0 0 309.32 417.2"><title>tree</title><ellipse cx="167" cy="389.51" rx="142.32" ry="27.69" style="fill:#1e1e1e;opacity:0.25"/><path d="M221.53,76a15.93,15.93,0,0,1,4.26-.07,1.71,1.71,0,0,1,1,2.51c-1,1.48-2.48,1.71-4.16,1.81-.81,0-1.59.1-2.37.18q.6,10.63,1.14,21.26a111.18,111.18,0,0,0,26.26-22.1,9.59,9.59,0,0,0,1.54-2.37,6.64,6.64,0,0,0-2.69-1A69.5,69.5,0,0,0,236,74.73a105.75,105.75,0,0,0-11,0c-1.59.07-3.39.41-5.07.34l.06,1.08C220.53,76,221,76,221.53,76Zm14.38.8a4.44,4.44,0,0,1,1.89-.59.68.68,0,0,1,0,1.37,4.44,4.44,0,0,1-1.89-.59A.11.11,0,0,1,235.91,76.78ZM228.79,76a6.27,6.27,0,0,0,1.06-.29,3.74,3.74,0,0,1,1.73,0,1.63,1.63,0,0,1,1.14,1.14,1.43,1.43,0,0,1,0,.87,1.63,1.63,0,0,1-1.14,1.14,3.74,3.74,0,0,1-1.73,0,6.27,6.27,0,0,0-1.06-.29A1.3,1.3,0,0,1,228.79,76Z" style="fill:#ffd5a0"/><path d="M121,128.45c3.55-.07,7-.11,10.07-2.2a17.41,17.41,0,0,0,5.59-6.75,20,20,0,0,0,1.7-5.44c0-2.24-.21-4.49-.2-6.7,0-2-.3-4.44-.23-6.74l-.08-.62a50.07,50.07,0,0,1-10.88-1.09c.07.81.1,1.61.18,2.42.11,1.2.21,2.4.28,3.6a3.85,3.85,0,0,1,1.43,2.94c.06,3.37-3.57,6-6.68,4.22-2.76-1.58-2.8-4.29-2.59-7.12.15-2,.28-5.3,1.31-7.68l-.52-.17a73.58,73.58,0,0,1-7.19-2.8,18.09,18.09,0,0,0-1,1.75,22.63,22.63,0,0,0-1.86,5,25.7,25.7,0,0,0-.23,10.77,41.12,41.12,0,0,0,3.84,11,17.35,17.35,0,0,0,2.66,4.4C117.8,128.47,119.24,128.49,121,128.45Z" style="fill:#fff"/><path d="M168.1,110.87c.94,3,2.61,6.39,5.54,7.93,3.7,1.94,7.8-.79,10.79-2.93s6.45-5.27,7.74-9c.07-.21.14-.42.2-.63a26.67,26.67,0,0,0,.38-3.06A33.64,33.64,0,0,0,192,92.92c-.43-1.73-1.17-3.47-1.73-5.23l-.27.16a112.7,112.7,0,0,1-11.19,5.8,23.5,23.5,0,0,1,1.11,2.74,3.28,3.28,0,0,1,.7,4.14,4.19,4.19,0,0,1-5.48,1.66,3.56,3.56,0,0,1-1.68-2.19c-.21-1.11-.43-2.22-.61-3.33,0-.18-.06-.37-.1-.56a29,29,0,0,1-4,1.19,3.55,3.55,0,0,1-1.39,2.12,13.88,13.88,0,0,0-.28,4.94A26,26,0,0,0,168.1,110.87Z" style="fill:#fff"/><path d="M278.22,116.74c3.13-2.44,5.24-6.61,7.34-10.46l-.89.62c-.87.62-1.64,1.18-1.94,1.42-.64.51-1.28,1-1.86,1.6l-.25.24,0,0c-2.09,4.62-9.47,2.22-9.32-2.52a18.19,18.19,0,0,0-1.08-7c-3.28,2.15-5.71,5.56-7.81,8.85-3.56,5.58-6.92,11.25-11,16.5a144.94,144.94,0,0,1-30.38,29.51c-3.27,2.35-7.45-.86-7.57-4.34q-1.71-47.5-4.77-94.95-.77-11.86-1.61-23.71c-.45-6.25,0-13.39-2.21-19.36-.41-1.11-1.39-3.12-2.3-3.11-1.91,0-3.44,2-4.48,3.41-4.48,6.29-8.69,12.78-13,19.17-1.93,2.84-7.05,3.73-8.76,0l-6.6-14.45c-1.05-2.3-2-4.69-3.18-6.93l-.16-.3a7.69,7.69,0,0,0-.72.69A80.45,80.45,0,0,0,151.48,33.3c-1.41,3-5.79,3.12-8,1a65.94,65.94,0,0,1-9.78-12q-5.51,7.92-10.25,16.34c-1.74,3.1-7,3.4-8.62,0a39.92,39.92,0,0,0-16-17.27c-.74,3.34-1.47,6.68-2.17,10,0,.1-.05.19-.08.29.06,3.23,0,6.47,0,9.7-.12,7.47-.29,14.94-.46,22.4s-.26,14.94-.51,22.41c-.12,3.72-.07,7.49-.38,11.21-.08.9-.12,1.87-.19,2.87q-.32,20-1,40-.26,7.32-.56,14.64c-.17,4,0,8.3-1.78,12-3.55,7.42-12,7.91-19.1,9.08-7.7,1.26-15.9,1.76-23.11,5-7.47,3.39-13.15,9.81-21.31,11.72-3.59.84-7.16,1.41-10.16,3.71a17.79,17.79,0,0,0-4.71,6A36.08,36.08,0,0,0,9.77,215.5c4.05-.84,7.86-4,10.86-6.41,3.18-2.58,7.81-1,8,3.33l.49,9.71c.07,1.44.13,2.88.22,4.32a7.67,7.67,0,0,0,.15,1.52l.17.35c3,1.2,4.62-5.9,5.06-7.51,1.16-4.29,7.84-4.51,8.88,0a19.63,19.63,0,0,0,4.69,9l1-10.53c.46-4.95-.26-12.32,4.4-15.48,2.29-1.56,5.11-1.85,7.76-2.37q4.4-.86,8.79-1.74l14.61-2.94c-.34-4.17-.63-8.34-.76-12.53-.06-2,3.06-3,4-1.07a56.47,56.47,0,0,1,4.47,14.52,4.19,4.19,0,0,1,1,2.85c0,1.16,0,2.31,0,3.47.4,2.66.69,5.74-.08,8q-.25,38.6,1.51,77.19.25,5.61.54,11.21c.17,3.17,0,6.66.67,9.76.68,2.94,2.05,3.54,4.71,4.68a14,14,0,0,1,7,5.73c3.35,6,4.68,13.41,6.41,20Q117,350.68,119.15,361c.52,2.47-.69,5.36-3.38,5.95A96.71,96.71,0,0,0,96,373.51a29.49,29.49,0,0,0,11.49.66c2.92-.42,6.64,1.24,6.33,4.82a40.08,40.08,0,0,1-.82,5.24,31,31,0,0,0,4.73-2.8c3.73-2.66,8,1.7,7.13,5.48a24.74,24.74,0,0,0-.46,2.89c.37-.31.74-.64,1.14-1,2.32-2.3,4.28-4.89,6.4-7.37,3-3.55,6.69-6.81,11-7.73a77.61,77.61,0,0,0-11.43-38.25c-2-3.28.68-6.7,4-7l29.61-3c3.83-.39,9.2-1.34,12,2.18,2.7,3.37,3.21,7.41,4.11,11.53,2,9.22,4.75,18.56,5.94,27.92.48,3.81.13,7.89-1.63,11.08a176.79,176.79,0,0,1,17.27,14.5l1.71-7.25c.54-2.28,3.48-4.24,5.79-3.29a33.71,33.71,0,0,0,12,2.61l-2.45-2.78c-2.89-3.28-.75-7.53,3.32-8l3.94-.47-5.52-2.64c-5.84-2.8-10.56-6.59-11.67-13.32s.08-14.27.43-21.15l1.09-21.52c.2-3.84,3.8-5.53,7.11-4.08,5,2.18,10.66-2.83,12.52-7,3-6.77,1.22-14.95-.28-21.85-3.91-18-8.9-35.76-10.11-54.28-.45-6.85-.58-13.72-.58-20.58a28,28,0,0,1-1.59-6.16c-.72-3.71-.65-7.65-.85-11.42s-.28-7.52-.13-11.27c.12-2.79.42-6.39,3.79-7a2.81,2.81,0,0,1,3.4,1.93c.72,3.37,1.3,6.72,1.77,10.1,1.76-1.16,3.68-2.14,5.44-3.2,23.79-14.27,47-32.15,61.77-56a48.77,48.77,0,0,0-10.72,1.16C278.7,126,273.95,120.07,278.22,116.74ZM58.46,200.14c-3.27,3.38-9.53,4.78-13.93,6a1.68,1.68,0,0,1-.89-3.23A66.45,66.45,0,0,0,51,200.53c2.09-.82,4.08-2,6.32-2.3A1.15,1.15,0,0,1,58.46,200.14Zm3-16.52c-2,1.51-4.63,2.25-6.84,3.43s-4.43,2.49-6.56,3.9c-.1.07-.22-.09-.13-.17a71.69,71.69,0,0,1,6.23-4.52c2.11-1.34,4.41-3.1,6.89-3.61A.53.53,0,0,1,61.46,183.62Zm15.12-.84c-1.82-.14-3.95-.53-5.71.06a.51.51,0,0,1-.39-.92,18.35,18.35,0,0,1,2.82-1.53,10.66,10.66,0,0,1,3.29-.63C78.55,179.75,78.5,182.93,76.58,182.78Zm20,18.31a1,1,0,0,1-1.8-.24c-.61-1.85-.18-3.62-.09-5.53.1-2.13.07-4.24,0-6.36-.08-2.74-1.43-7.08,0-9.52a.19.19,0,0,1,.25-.07c2.56,1.66,2.79,6.78,3,9.58C98.18,192.53,98.81,198,96.6,201.08Zm110.34,23.13a.78.78,0,0,1,.74,1l-.21,1.08a.56.56,0,0,1-1.08,0l-.21-1.08A.78.78,0,0,1,206.94,224.21Zm-13.78-191c.19-1.55,2.52-2.17,2.93-.4,1,4.43,1,9.18,1.23,13.71.2,3.89.77,8.7-.55,12.42-.21.59-1.13.87-1.46.19-1.74-3.62-1.72-8.64-1.92-12.61C193.16,42.13,192.62,37.57,193.15,33.2ZM197.26,68a.56.56,0,0,1-1.08,0c-.46-1.43,0-3.24.19-4.69a.35.35,0,0,1,.69,0C197.24,64.73,197.72,66.54,197.26,68Zm-34,23.7c2.54-1.51,5.89-1.93,8.62-3a66.38,66.38,0,0,0,9-4.47c3.66-2.17,13.15-10.8,16.33-3.66q.78,1.75,1.47,3.57a27.64,27.64,0,0,1,2.89,8.06,41.47,41.47,0,0,1,.51,15c-1.36,9.24-6.27,19.58-14.77,24.3-9.12,5.06-20.78,2.81-25.27-7.26a47,47,0,0,1-3.65-12.63,33.7,33.7,0,0,1-.79-5.19C157.25,101.55,157.33,92.21,163.29,91.67Zm-10.08,53.71c.88-2.3,4.77-3,5.33,0a29.57,29.57,0,0,0,.72,3.93c.44,1.31,1.14,2.48,1.59,3.79,1.4,4.06-4.41,6-6.59,2.78A13,13,0,0,1,153.21,145.38Zm-4.29,6.15,0,.13.06.09.12.1a3.61,3.61,0,0,1,1.45,3.9,3.56,3.56,0,0,1-3.46,2.63,5.48,5.48,0,0,1-5-4.61,7.32,7.32,0,0,1,.18-3.43,4,4,0,0,0,.38-1.72c-.93-3.26,3.42-4.74,5.2-2.19a7.8,7.8,0,0,1,1.13,4.38S149.09,152.16,148.91,151.53ZM141.55,43.15a121.34,121.34,0,0,1,2.13,15.53c.25,4.66.94,10-.6,14.48a.88.88,0,0,1-1.69,0c-1.23-4.6-.56-9.75-.8-14.48-.26-5.1-.46-10.18-1-15.26C139.44,42.28,141.34,42,141.55,43.15ZM111.08,51.2a57.74,57.74,0,0,1,2.07,11.37c.23,3.25.82,7.45-.43,10.53-.23.57-1.26.79-1.38,0-.53-3.37.4-7.07.24-10.53a61.17,61.17,0,0,0-1.52-11.09A.53.53,0,0,1,111.08,51.2Zm-1.59,214.67c-.2,2-1.48,3.67-1.59,5.68s0,3.94.1,5.92c.22,4.75.4,9.51.47,14.26,0,2.55.17,5.12.12,7.68,0,1.76-.05,2.73-1.12,4.08a1.11,1.11,0,0,1-1.58,0c-1.32-1.55-1.22-3.16-1.26-5.18l-.16-7.68c-.1-4.75-.06-9.51,0-14.26a19.89,19.89,0,0,1,.55-6.13c.53-1.57,1.59-3.1,1.86-4.73.37-2.22.12-4.48.46-6.7a58.64,58.64,0,0,0,.5-7.19.21.21,0,0,1,.43,0C108.64,256.34,110,261.13,109.48,265.87Zm-5.21-37.48c0-1.39,2-1.34,2.13,0,.31,3.1.68,6.19,1.21,9.26.46,2.68,1,5,.68,7.75a.64.64,0,0,1-1.19.32C104.25,240.88,104.47,233.88,104.27,228.39ZM100.88,121.1a66.87,66.87,0,0,1-.29-7.8,36,36,0,0,1,.22-13.85c1-4.43,2.89-9.8,6.75-12.52a4.62,4.62,0,0,1,5.61.72,4.51,4.51,0,0,1,.88,1.21c.28,0,.52.06.7.1,1.06.24,2.11.48,3.17.69,2.48.49,4.91,1.19,7.4,1.64,4.86.87,10,1.51,14.9.63a4.12,4.12,0,0,1,4.95,2.81,50.07,50.07,0,0,1,2.13,12c.26,1.52.5,3,.64,4.59.48,5.42.5,11.35-2.07,16.31s-7,8.12-11.55,11c-4.86,3.1-9.81,4.82-15.6,4C107.59,141.17,101.87,131.5,100.88,121.1ZM119.6,333.37c-1.21-1.92-1.72-4.26-2.4-6.41l-2-6.24c-.67-2.09,2.72-3,3.28-.9,1.09,4.11,3.07,8.75,3.1,13A1.07,1.07,0,0,1,119.6,333.37Zm10.66,36.34c-.15,1.19-1.79,2-2.48.67-2.22-4.17-2.35-9.83-3.11-14.44-.36-2.16,2.89-3.13,3.33-.92C128.92,359.59,130.85,365,130.26,369.71Zm6.15-63.42a.78.78,0,0,1-1.41.18c-2.29-4.62-2.66-10.54-2.83-15.62-.06-1.85,2.85-2.27,3.24-.44C136.47,295.43,137.55,301.23,136.42,306.29Zm1.48-43.44c-2.65-3.07-3.4-6.16-4-10.13a44.1,44.1,0,0,1,0-10.74c.22-2.28,3.6-2.37,3.62,0,.06,6.83,2.71,13.15,2.89,19.85A1.45,1.45,0,0,1,137.9,262.85Zm35.37,38.27c-.12.51-.78.33-.84-.11a53.55,53.55,0,0,0-1-7.83,55.09,55.09,0,0,0-3-7.09,2,2,0,1,1,3.65-1.54,29,29,0,0,1,1.45,8.33A28.44,28.44,0,0,1,173.27,301.12Zm5.6-57.7a1.18,1.18,0,0,1-2.14.28c-2.08-4.66-2.21-9.76-2.5-14.78-.32-5.47-.47-10.92-.5-16.4,0-2.67,3.89-2.6,4.1,0q.65,8.2,1.26,16.4C179.43,233.76,180.08,238.65,178.86,243.42ZM187.22,177c-5.49,12.3-20.52,17.9-33.07,18.81a53,53,0,0,1-19.7-2.27c-6-1.9-12.69-4.82-17-9.52-2.28-2.47.56-5.71,3.42-4.43,5.25,2.35,10,5.06,15.69,6.44a51.68,51.68,0,0,0,16.74,1.31c10.37-.9,21.32-5.12,26.24-14.86a4.49,4.49,0,0,1,6.12-1.6C187.89,172.22,188.21,174.78,187.22,177Zm6,189.32a1.27,1.27,0,0,1-2.16,0c-1.23-1.89-.94-4.47-1-6.65q0-3.51,0-7c0-2.68,4.16-2.68,4.15,0s0,5.35,0,8C194.2,362.59,194.34,364.67,193.26,366.32Zm3.48-41.58a1.8,1.8,0,0,1-3.44,0c-.9-2.45-.45-5.28-.38-7.85s.17-4.92.27-7.38a1.84,1.84,0,0,1,3.67,0q.17,4.21.3,8.43C197.21,320.21,197.53,322.59,196.74,324.75Zm7.07-112c-1.88-4.85-1.23-10.86-1.37-16-.16-5.63-.28-11.25-.27-16.88s-.5-11.24-.32-16.89c.17-5.25.3-10.51.43-15.76,0-1.61,2.55-1.61,2.5,0-.18,5.63-.23,11.25-.12,16.89s-.34,11.27-.12,16.89.37,11.26.74,16.88c.32,4.77,1.4,10.15.22,14.85A.88.88,0,0,1,203.81,212.77Zm5.65,55.89c.06,4.06,0,8.12.06,12.18,0,3.39.35,7-.45,10.35a1.47,1.47,0,0,1-2.82,0c-1-3.63-.63-7.73-.6-11.46s.05-7.38.2-11.07c.32-7.77.73-15.47.67-23.24,0-2.33,3.77-2.26,3.56,0A222.39,222.39,0,0,0,209.46,268.66Zm43.62-126.07c-1.56,3-5,5-7.71,6.92a118,118,0,0,0-9.19,7.7c-.28.24-.69-.15-.41-.41,2.91-2.76,6.11-5.4,8.66-8.51,2.08-2.54,4.59-5.68,7.69-7C252.86,141,253.38,142,253.07,142.58Zm16.55-12.71a12.08,12.08,0,0,1-3,4.31L263,138.1c-1.32,1.44-3.46-.71-2.14-2.14l3.59-3.92a11.63,11.63,0,0,1,3.81-3.19C269,128.57,269.9,129,269.62,129.88Z" style="fill:#a76531"/><path d="M87.34,105.43a33.4,33.4,0,0,1-.76-8c0-.47,0-.94,0-1.41-1.47-.16-2.91-.64-4.38-.86-2.25-.34-4.54-.51-6.81-.63a.9.9,0,0,1,0-1.81c3.22-.42,7.8-.63,11.17.65,0-2.38,0-4.77,0-7.15-.64.05-1.32,0-1.94,0-1.77,0-3.51.14-5.27.11a.93.93,0,0,1-.7-.33,1.29,1.29,0,0,1-.49.64c-1.16.8-2.89.81-4.27.91a23.2,23.2,0,0,1-4.3-.06,1.28,1.28,0,0,1,0-2.55c1.43-.17,2.85-.3,4.3-.42s2.72-.48,4-.07a1.25,1.25,0,0,1,.6.4.83.83,0,0,1,.61-.45,32.76,32.76,0,0,0,3.29-.32,15.63,15.63,0,0,1,2.53-.64,16.87,16.87,0,0,1,1.69-.24c0-.71,0-1.42,0-2.14a75,75,0,0,1-10.54,1.39c-4.46.42-8.92.76-13.38,1.11q-3.9.31-7.81.57a17.66,17.66,0,0,0-2.65.22,7,7,0,0,0,1,1.32c1.36,1.37,2.78,2.67,4.24,3.93a111.82,111.82,0,0,0,20,13.44c1.73.93,3.48,1.84,5.24,2.7a33.46,33.46,0,0,0,3.4,1.73c.22,0,.66,0,1.11,0C87.29,106.81,87.32,106.12,87.34,105.43Z" style="fill:#ffd5a0"/><path d="M303.2,115a50.17,50.17,0,0,0-10.56-1l1.51-2.7a83.36,83.36,0,0,0,7-14.67A5,5,0,0,0,298.83,91c-5-2.33-10.65,1.75-14.76,4.3q-2.12,1.31-4.15,2.75a27.35,27.35,0,0,0-3.09-6.41,5.08,5.08,0,0,0-5.65-2.3c-13,3.77-18.43,17.64-25.58,27.79a125.45,125.45,0,0,1-22.42,24.14q-.54-14-1.19-28c.16-.07.33-.16.49-.25a129.63,129.63,0,0,0,20-14.18,102.23,102.23,0,0,0,8.37-8.05c2.92-3.14,5.79-6.28,7.08-10.46a9.2,9.2,0,0,0-3.23-9.69c-3.15-2.48-7.15-3-11-3.51a90.43,90.43,0,0,0-14.28-.85,61.67,61.67,0,0,0-6.59.5c-1.08.14-2.23.21-3.34.39q-.68-11.13-1.42-22.25-.88-13-1.86-26c-.46-6.15-2.06-13.4-7.52-17.09-6.15-4.16-13.23-1-17.55,4.12a134.47,134.47,0,0,0-9.67,13.62L177.08,10c-1.22-2.66-2.24-5.45-4.47-7.45A8.77,8.77,0,0,0,163.69,1c-5.3,1.92-9,7.67-12.15,12a80.33,80.33,0,0,0-5.66,8.89,58,58,0,0,1-7.22-11.45c-1.81-3.78-6.65-2.71-8.7,0q-5.83,7.72-10.87,16A49.6,49.6,0,0,0,96.71,9.56,4.93,4.93,0,0,0,90.64,13c-1.07,5.28-2.1,10.58-3.2,15.85a4.7,4.7,0,0,0,.89,4c-.23,2.84-.39,5.69-.52,8.54-.35,7.47-.6,14.93-.8,22.4q-.12,4.27-.23,8.53a71.55,71.55,0,0,0-11.83,0c-5.21.24-10.41.6-15.61.91-4.51.27-9.34.22-13.41,2.41-5.11,2.76-5.23,8.84-3.06,13.47,1.86,4,6.17,7.06,9.46,9.76a120.2,120.2,0,0,0,11.41,8.24c3.86,2.47,7.89,4.69,12,6.78,3.35,1.72,7.22,4.25,11.14,4.12q-.41,10-.89,20-.33,6.76-.71,13.51-.19,3.38-.39,6.75c-.11,1.8-.1,4.1-1.3,5.58-1.77,2.18-5.77,2.27-8.31,2.56-4.27.49-8.53.94-12.79,1.54-8,1.13-15.88,3.14-22.87,7.31-3.32,2-6.26,4.53-9.63,6.45-3.61,2.06-8,2.14-11.85,3.68C4.5,190.91.13,206.73,0,220.15a4.74,4.74,0,0,0,3.49,4.59c6.06,1.18,11.37-.58,16.23-3.51.11,2,.23,4.1.36,6.14.3,4.7,2.46,8.28,7,9.86,3.82,1.33,8-.41,11-2.79a10,10,0,0,0,1.24-1.21,28,28,0,0,0,10.5,8.94,4.62,4.62,0,0,0,6.84-3.93L58,222.64l.69-7.8.3-3.34c.07-.78-.44-.32.83-.65,8-2.07,16.37-3.4,24.59-4.87-.52,28.12-.26,56.2,1,84.31.31,7.1.11,14.55,1.34,21.55a15.17,15.17,0,0,0,4,8.16c2,2.13,5,2.87,7.55,4.19,2.33,1.22,2.8,4.91,3.47,7.17,1,3.54,2,7.09,3,10.65q2.22,8.28,4.06,16.65a107.53,107.53,0,0,0-26.63,11.08,4.94,4.94,0,0,0,0,8.44,40.27,40.27,0,0,0,20.61,6.09,26.08,26.08,0,0,1-2,4.68c-1.62,3,.34,7.87,4.26,7.43a39.93,39.93,0,0,0,9.8-2.34c.08,1.19.22,2.38.42,3.6.35,2.11,2.66,3.48,4.63,3.53,7,.18,12-4.89,16.14-9.95a68.75,68.75,0,0,1,5.89-6.76,5.25,5.25,0,0,1,1-.83c.12-.08,1.08-.6,1.13-.67.48-.12,1.51-.32.75-.25,1.09-.1.5-.1,1.61.22a4.71,4.71,0,0,0,5.89-4.49A86.75,86.75,0,0,0,143.09,337l15.5-1.56c3.57-.36,7.14-.75,10.71-1.07,1.08-.1,1.13-.37,1.38.38a58,58,0,0,1,1.3,5.77L176.9,363c.44,2,2.65,10.12,0,10.94a4.79,4.79,0,0,0-1.13,8.65,165.5,165.5,0,0,1,26.42,22.61,4.75,4.75,0,0,0,7.88-2.08l2.45-10.47a41.37,41.37,0,0,0,20.56.13c3.62-.88,4.32-5.31,2.07-7.85l-2.52-2.85,11.1-1.32c2.1-.25,3.91-1.25,4.51-3.44a4.67,4.67,0,0,0-2.15-5.29l-16.75-8c-4.68-2.24-9.89-3.77-10.29-9.67-.42-6.32.51-12.92.84-19.24l.77-14.75c4.63.1,9.05-1.73,13.06-4.87,6.3-4.93,8.39-13.27,8.42-20.9,0-8.76-2.56-17.62-4.55-26.08-2.09-8.91-4.22-17.82-5.67-26.86a190.6,190.6,0,0,1-2-27.53c-.06-4.46,0-8.92,0-13.39,0-2.19,0-4.37.1-6.56s1.33-2.54,3-3.52a261.92,261.92,0,0,0,38.32-26.61c13.85-11.72,26.25-25.62,34.77-41.72C307.58,119.67,306.48,115.69,303.2,115ZM225,74.69a105.75,105.75,0,0,1,11,0,69.5,69.5,0,0,1,10.49,1.47,6.64,6.64,0,0,1,2.69,1,9.59,9.59,0,0,1-1.54,2.37,111.18,111.18,0,0,1-26.26,22.1q-.53-10.63-1.14-21.26c.77-.08,1.56-.13,2.37-.18,1.68-.1,3.19-.33,4.16-1.81a1.71,1.71,0,0,0-1-2.51,15.93,15.93,0,0,0-4.26.07c-.5,0-1,.07-1.49.14L220,75C221.65,75.11,223.46,74.76,225,74.69ZM86.15,107.48a33.46,33.46,0,0,1-3.4-1.73c-1.77-.87-3.51-1.78-5.24-2.7a111.82,111.82,0,0,1-20-13.44c-1.46-1.25-2.88-2.56-4.24-3.93a7,7,0,0,1-1-1.32,17.66,17.66,0,0,1,2.65-.22q3.91-.26,7.81-.57c4.46-.36,8.93-.7,13.38-1.11A75,75,0,0,0,86.6,81.08c0,.71,0,1.42,0,2.14a16.87,16.87,0,0,0-1.69.24,15.63,15.63,0,0,0-2.53.64,32.76,32.76,0,0,1-3.29.32.83.83,0,0,0-.61.45,1.25,1.25,0,0,0-.6-.4c-1.26-.41-2.68,0-4,.07s-2.87.25-4.3.42a1.28,1.28,0,0,0,0,2.55,23.2,23.2,0,0,0,4.3.06c1.38-.11,3.11-.11,4.27-.91a1.29,1.29,0,0,0,.49-.64.93.93,0,0,0,.7.33c1.76,0,3.5-.12,5.27-.11.63,0,1.3.05,1.94,0,0,2.38,0,4.77,0,7.15-3.36-1.29-7.94-1.08-11.17-.65a.9.9,0,0,0,0,1.81c2.27.12,4.56.29,6.81.63,1.48.22,2.91.7,4.38.86,0,.47,0,.94,0,1.41a33.4,33.4,0,0,0,.76,8c0,.69,0,1.38-.07,2.08C86.81,107.48,86.38,107.47,86.15,107.48ZM232,179.91c-1.77,1.06-3.68,2-5.44,3.2-.47-3.37-1-6.72-1.77-10.1a2.81,2.81,0,0,0-3.4-1.93c-3.38.6-3.68,4.2-3.79,7-.15,3.75-.06,7.52.13,11.27s.13,7.7.85,11.42a28,28,0,0,0,1.59,6.16c0,6.87.13,13.73.58,20.58C222,246,227,263.73,230.87,281.77c1.49,6.9,3.26,15.08.28,21.85-1.86,4.22-7.56,9.22-12.52,7-3.31-1.45-6.91.24-7.11,4.08l-1.09,21.52c-.35,6.88-1.56,14.31-.43,21.15s5.83,10.52,11.67,13.32l5.52,2.64-3.94.47c-4.07.48-6.2,4.73-3.32,8l2.45,2.78a33.71,33.71,0,0,1-12-2.61c-2.32-1-5.26,1-5.79,3.29l-1.71,7.25a176.79,176.79,0,0,0-17.27-14.5c1.76-3.18,2.11-7.26,1.63-11.08-1.19-9.36-3.92-18.71-5.94-27.92-.9-4.12-1.41-8.16-4.11-11.53-2.82-3.52-8.19-2.57-12-2.18l-29.61,3c-3.36.34-6.06,3.76-4,7a77.61,77.61,0,0,1,11.43,38.25c-4.35.91-8,4.18-11,7.73-2.11,2.48-4.08,5.07-6.4,7.37-.39.39-.77.72-1.14,1a24.74,24.74,0,0,1,.46-2.89c.83-3.78-3.4-8.15-7.13-5.48a31,31,0,0,1-4.73,2.8,40.08,40.08,0,0,0,.82-5.24c.32-3.57-3.41-5.24-6.33-4.82A29.49,29.49,0,0,1,96,373.51a96.71,96.71,0,0,1,19.81-6.6c2.68-.59,3.9-3.48,3.38-5.95q-2.18-10.28-4.85-20.45c-1.72-6.56-3.05-14-6.41-20a14,14,0,0,0-7-5.73c-2.66-1.13-4-1.73-4.71-4.68-.71-3.1-.51-6.6-.67-9.76q-.29-5.6-.54-11.21Q93.21,250.62,93.43,212c.77-2.22.48-5.3.08-8,0-1.16,0-2.31,0-3.47a4.19,4.19,0,0,0-1-2.85,56.47,56.47,0,0,0-4.47-14.52c-.91-2-4-1-4,1.07.13,4.19.42,8.36.76,12.53L70.25,199.7q-4.39.88-8.79,1.74c-2.66.52-5.47.81-7.76,2.37-4.67,3.17-3.94,10.53-4.4,15.48l-1,10.53a19.63,19.63,0,0,1-4.69-9c-1-4.51-7.72-4.29-8.88,0-.44,1.61-2,8.71-5.06,7.51l-.17-.35a7.67,7.67,0,0,1-.15-1.52c-.09-1.44-.15-2.88-.22-4.32l-.49-9.71c-.22-4.34-4.85-5.9-8-3.33-3,2.43-6.8,5.57-10.86,6.41a36.08,36.08,0,0,1,3.58-13.05,17.79,17.79,0,0,1,4.71-6c3-2.3,6.57-2.87,10.16-3.71,8.16-1.92,13.85-8.34,21.31-11.72,7.21-3.27,15.41-3.77,23.11-5,7.12-1.16,15.56-1.66,19.1-9.08,1.76-3.68,1.61-8,1.78-12q.31-7.32.56-14.64.7-20,1-40c.06-1,.11-2,.19-2.87.31-3.71.26-7.48.38-11.21.25-7.47.34-14.94.51-22.41s.34-14.94.46-22.4c.05-3.23.07-6.47,0-9.7,0-.1.05-.19.08-.29.7-3.35,1.44-6.69,2.17-10a39.92,39.92,0,0,1,16,17.27c1.66,3.4,6.88,3.1,8.62,0q4.73-8.42,10.25-16.34a65.94,65.94,0,0,0,9.78,12c2.17,2.1,6.55,2,8-1a80.45,80.45,0,0,1,14.18-21.61,7.69,7.69,0,0,1,.72-.69l.16.3c1.18,2.24,2.13,4.63,3.18,6.93l6.6,14.45c1.7,3.73,6.83,2.84,8.76,0,4.33-6.39,8.54-12.88,13-19.17,1-1.46,2.56-3.38,4.48-3.41.92,0,1.9,2,2.3,3.11,2.19,6,1.76,13.1,2.21,19.36q.85,11.85,1.61,23.71,3.07,47.44,4.77,94.95c.13,3.49,4.3,6.7,7.57,4.34a144.94,144.94,0,0,0,30.38-29.51c4-5.26,7.4-10.92,11-16.5,2.1-3.29,4.53-6.7,7.81-8.85a18.19,18.19,0,0,1,1.08,7c-.15,4.75,7.23,7.14,9.32,2.52l0,0,.25-.24c.58-.57,1.22-1.09,1.86-1.6.3-.24,1.07-.8,1.94-1.42l.89-.62c-2.1,3.85-4.2,8-7.34,10.46-4.28,3.33.48,9.24,4.85,8.32a48.77,48.77,0,0,1,10.72-1.16C279,147.76,255.81,165.64,232,179.91Z" style="fill:#6f2900"/><path d="M142.63,148.62a4,4,0,0,1-.38,1.72,7.32,7.32,0,0,0-.18,3.43,5.48,5.48,0,0,0,5,4.61,3.56,3.56,0,0,0,3.46-2.63,3.61,3.61,0,0,0-1.45-3.9l-.12-.1-.06-.09,0-.13c.17.63,0-.76,0-.72a7.8,7.8,0,0,0-1.13-4.38C146.05,143.89,141.7,145.36,142.63,148.62Z" style="fill:#6f2900"/><path d="M160.85,153.1c-.45-1.31-1.15-2.48-1.59-3.79a29.57,29.57,0,0,1-.72-3.93c-.56-3-4.45-2.3-5.33,0a13,13,0,0,0,1.06,10.5C156.44,159.11,162.25,157.16,160.85,153.1Z" style="fill:#6f2900"/><path d="M185.62,170.89a4.49,4.49,0,0,0-6.12,1.6c-4.92,9.74-15.88,14-26.24,14.86A51.68,51.68,0,0,1,136.52,186c-5.66-1.38-10.44-4.09-15.69-6.44-2.85-1.28-5.7,2-3.42,4.43,4.35,4.7,11,7.62,17,9.52a53,53,0,0,0,19.7,2.27c12.55-.9,27.58-6.51,33.07-18.81C188.21,174.78,187.89,172.22,185.62,170.89Z" style="fill:#6f2900"/><path d="M158.4,111.59A47,47,0,0,0,162,124.22c4.5,10.07,16.15,12.32,25.27,7.26,8.5-4.71,13.41-15.06,14.77-24.3a41.47,41.47,0,0,0-.51-15,27.64,27.64,0,0,0-2.89-8.06q-.69-1.82-1.47-3.57C194,73.37,184.54,82,180.87,84.17a66.38,66.38,0,0,1-9,4.47c-2.73,1.1-6.08,1.52-8.62,3-6,.54-6,9.89-5.68,14.73A33.7,33.7,0,0,0,158.4,111.59Zm8.94-12.15a3.55,3.55,0,0,0,1.39-2.12,29,29,0,0,0,4-1.19c0,.19.07.37.1.56.18,1.12.4,2.22.61,3.33a3.56,3.56,0,0,0,1.68,2.19,4.19,4.19,0,0,0,5.48-1.66,3.28,3.28,0,0,0-.7-4.14,23.5,23.5,0,0,0-1.11-2.74A112.7,112.7,0,0,0,190,87.86l.27-.16c.55,1.76,1.29,3.49,1.73,5.23a33.64,33.64,0,0,1,.75,10.29,26.67,26.67,0,0,1-.38,3.06c-.07.21-.13.42-.2.63-1.29,3.7-4.65,6.75-7.74,9s-7.09,4.88-10.79,2.93c-2.93-1.54-4.6-4.92-5.54-7.93a26,26,0,0,1-1-6.49A13.88,13.88,0,0,1,167.34,99.44Z" style="fill:#6f2900"/><path d="M108.29,245.4c.33-2.72-.22-5.07-.68-7.75-.53-3.07-.9-6.17-1.21-9.26-.13-1.34-2.18-1.39-2.13,0,.19,5.49,0,12.49,2.83,17.34A.64.64,0,0,0,108.29,245.4Z" style="fill:#be825a"/><path d="M107.82,251.62a58.64,58.64,0,0,1-.5,7.19c-.34,2.23-.09,4.48-.46,6.7-.27,1.63-1.33,3.15-1.86,4.73a19.89,19.89,0,0,0-.55,6.13c0,4.75-.08,9.51,0,14.26l.16,7.68c0,2-.06,3.63,1.26,5.18a1.11,1.11,0,0,0,1.58,0c1.07-1.35,1.09-2.32,1.12-4.08,0-2.55-.08-5.12-.12-7.68-.07-4.75-.25-9.51-.47-14.26-.09-2-.2-3.94-.1-5.92s1.38-3.69,1.59-5.68c.48-4.74-.85-9.54-1.24-14.25A.21.21,0,0,0,107.82,251.62Z" style="fill:#be825a"/><path d="M94.94,179.37a.19.19,0,0,0-.25.07c-1.4,2.43,0,6.78,0,9.52.06,2.13.1,4.24,0,6.36-.09,1.91-.53,3.68.09,5.53a1,1,0,0,0,1.8.24c2.21-3.07,1.58-8.55,1.33-12.13C97.73,186.15,97.51,181,94.94,179.37Z" style="fill:#be825a"/><path d="M111.57,62.57c.16,3.46-.77,7.15-.24,10.53.12.79,1.15.57,1.38,0,1.25-3.08.67-7.27.43-10.53a57.74,57.74,0,0,0-2.07-11.37.53.53,0,0,0-1,.28A61.17,61.17,0,0,1,111.57,62.57Z" style="fill:#be825a"/><path d="M140.58,58.68c.24,4.73-.43,9.88.8,14.48a.88.88,0,0,0,1.69,0c1.54-4.49.85-9.82.6-14.48a121.34,121.34,0,0,0-2.13-15.53c-.21-1.11-2.11-.86-2,.27C140.12,48.5,140.32,53.57,140.58,58.68Z" style="fill:#be825a"/><path d="M195.29,59.12c.32.68,1.25.4,1.46-.19,1.33-3.72.75-8.53.55-12.42-.23-4.53-.21-9.28-1.23-13.71-.41-1.77-2.74-1.15-2.93.4-.53,4.37,0,8.93.22,13.32C193.57,50.48,193.55,55.5,195.29,59.12Z" style="fill:#be825a"/><path d="M196.38,63.28c-.17,1.45-.65,3.26-.19,4.69a.56.56,0,0,0,1.08,0c.46-1.43,0-3.24-.19-4.69A.35.35,0,0,0,196.38,63.28Z" style="fill:#be825a"/><path d="M205.28,197.92c-.37-5.62-.53-11.25-.74-16.88s.23-11.26.12-16.89-.06-11.25.12-16.89c.05-1.61-2.46-1.61-2.5,0-.13,5.25-.27,10.51-.43,15.76-.18,5.65.33,11.25.32,16.89s.1,11.26.27,16.88c.15,5.11-.51,11.12,1.37,16a.88.88,0,0,0,1.69,0C206.68,208.07,205.6,202.69,205.28,197.92Z" style="fill:#be825a"/><path d="M206.4,226.26a.56.56,0,0,0,1.08,0l.21-1.08a.77.77,0,1,0-1.49,0Z" style="fill:#be825a"/><path d="M206.52,245.42c.06,7.77-.36,15.48-.67,23.24-.15,3.69-.18,7.38-.2,11.07s-.38,7.83.6,11.46a1.47,1.47,0,0,0,2.82,0c.81-3.32.48-7,.45-10.35,0-4.06,0-8.12-.06-12.18a222.39,222.39,0,0,1,.63-23.24C210.29,243.15,206.5,243.09,206.52,245.42Z" style="fill:#be825a"/><path d="M177.82,212.52c-.21-2.6-4.11-2.67-4.1,0,0,5.48.19,10.93.5,16.4.29,5,.42,10.12,2.5,14.78a1.18,1.18,0,0,0,2.14-.28c1.22-4.77.57-9.66.21-14.5Q178.47,220.72,177.82,212.52Z" style="fill:#be825a"/><path d="M172.07,284.55a2,2,0,1,0-3.65,1.54,55.09,55.09,0,0,1,3,7.09,53.55,53.55,0,0,1,1,7.83c.05.44.72.62.84.11a28.44,28.44,0,0,0,.25-8.23A29,29,0,0,0,172.07,284.55Z" style="fill:#be825a"/><path d="M252.11,141.33c-3.09,1.27-5.61,4.41-7.69,7-2.54,3.11-5.75,5.75-8.66,8.51-.28.26.13.66.41.41a118,118,0,0,1,9.19-7.7c2.69-1.88,6.15-4,7.71-6.92C253.38,142,252.86,141,252.11,141.33Z" style="fill:#be825a"/><path d="M268.3,128.85a11.63,11.63,0,0,0-3.81,3.19L260.89,136c-1.32,1.44.82,3.59,2.14,2.14l3.59-3.92a12.08,12.08,0,0,0,3-4.31C269.9,129,269,128.57,268.3,128.85Z" style="fill:#be825a"/><path d="M61.05,182.64c-2.48.51-4.78,2.26-6.89,3.61a71.69,71.69,0,0,0-6.23,4.52c-.09.08,0,.23.13.17q3.19-2.11,6.56-3.9c2.21-1.17,4.86-1.92,6.84-3.43A.53.53,0,0,0,61.05,182.64Z" style="fill:#be825a"/><path d="M76.58,179.75a10.66,10.66,0,0,0-3.29.63,18.35,18.35,0,0,0-2.82,1.53.51.51,0,0,0,.39.92c1.76-.59,3.89-.21,5.71-.06S78.55,179.75,76.58,179.75Z" style="fill:#be825a"/><path d="M57.35,198.23c-2.25.3-4.23,1.48-6.32,2.3a66.45,66.45,0,0,1-7.39,2.36,1.68,1.68,0,0,0,.89,3.23c4.41-1.2,10.66-2.61,13.93-6A1.15,1.15,0,0,0,57.35,198.23Z" style="fill:#be825a"/><path d="M133.85,242a44.1,44.1,0,0,0,0,10.74c.6,4,1.35,7.06,4,10.13a1.45,1.45,0,0,0,2.45-1c-.18-6.7-2.83-13-2.89-19.85C137.45,239.61,134.07,239.7,133.85,242Z" style="fill:#be825a"/><path d="M132.17,290.86c.17,5.09.54,11,2.83,15.62a.78.78,0,0,0,1.41-.18c1.13-5.07.05-10.86-1-15.88C135,288.59,132.11,289,132.17,290.86Z" style="fill:#be825a"/><path d="M196.86,309.52a1.84,1.84,0,0,0-3.67,0c-.1,2.46-.2,4.92-.27,7.38s-.51,5.4.38,7.85a1.8,1.8,0,0,0,3.44,0c.79-2.16.48-4.53.41-6.8Q197,313.73,196.86,309.52Z" style="fill:#be825a"/><path d="M190.11,352.64q0,3.51,0,7c0,2.19-.28,4.76,1,6.65a1.27,1.27,0,0,0,2.16,0c1.07-1.65.94-3.73.95-5.65q0-4,0-8C194.27,350,190.09,350,190.11,352.64Z" style="fill:#be825a"/><path d="M115.2,320.72l2,6.24c.69,2.15,1.19,4.49,2.4,6.41a1.07,1.07,0,0,0,2-.54c0-4.27-2-8.91-3.1-13C117.92,317.69,114.54,318.62,115.2,320.72Z" style="fill:#be825a"/><path d="M124.67,355.94c.76,4.61.9,10.27,3.11,14.44.69,1.29,2.33.52,2.48-.67.59-4.67-1.34-10.12-2.26-14.69C127.56,352.82,124.32,353.78,124.67,355.94Z" style="fill:#be825a"/><path d="M134.32,138.67c4.55-2.91,9-6.13,11.55-11s2.55-10.89,2.07-16.31c-.14-1.54-.38-3.07-.64-4.59a50.07,50.07,0,0,0-2.13-12,4.12,4.12,0,0,0-4.95-2.81c-4.9.88-10,.23-14.9-.63-2.49-.45-4.92-1.14-7.4-1.64-1.06-.21-2.12-.46-3.17-.69-.17,0-.42-.07-.7-.1a4.51,4.51,0,0,0-.88-1.21,4.62,4.62,0,0,0-5.61-.72c-3.85,2.72-5.73,8.09-6.75,12.52a36,36,0,0,0-.22,13.85,66.87,66.87,0,0,0,.29,7.8c1,10.4,6.71,20.07,17.84,21.6C124.51,143.49,129.46,141.77,134.32,138.67Zm-20.44-15.83a41.12,41.12,0,0,1-3.84-11,25.7,25.7,0,0,1,.23-10.77,22.63,22.63,0,0,1,1.86-5,18.09,18.09,0,0,1,1-1.75,73.58,73.58,0,0,0,7.19,2.8l.52.17c-1,2.38-1.16,5.71-1.31,7.68-.22,2.83-.17,5.54,2.59,7.12,3.12,1.78,6.75-.84,6.68-4.22a3.85,3.85,0,0,0-1.43-2.94c-.07-1.2-.17-2.4-.28-3.6-.08-.81-.11-1.61-.18-2.42A50.07,50.07,0,0,0,137.81,100l.08.62c-.07,2.29.24,4.7.23,6.74,0,2.21.16,4.46.2,6.7a20,20,0,0,1-1.7,5.44,17.41,17.41,0,0,1-5.59,6.75c-3,2.1-6.52,2.13-10.07,2.2-1.72,0-3.16,0-4.43-1.21A17.35,17.35,0,0,1,113.87,122.84Z" style="fill:#6f2900"/><path d="M228.79,78.57a6.27,6.27,0,0,1,1.06.29,3.74,3.74,0,0,0,1.73,0,1.63,1.63,0,0,0,1.14-1.14,1.43,1.43,0,0,0,0-.87,1.63,1.63,0,0,0-1.14-1.14,3.74,3.74,0,0,0-1.73,0,6.27,6.27,0,0,1-1.06.29A1.3,1.3,0,0,0,228.79,78.57Z" style="fill:#be825a"/><path d="M235.91,77a4.44,4.44,0,0,0,1.89.59.68.68,0,0,0,0-1.37,4.44,4.44,0,0,0-1.89.59A.11.11,0,0,0,235.91,77Z" style="fill:#be825a"/></svg>