<?xml version="1.0" encoding="utf-8"?>
<!-- Generator: Adobe Illustrator 21.0.0, SVG Export Plug-In . SVG Version: 6.00 Build 0)  -->
<svg version="1.1" xmlns="http://www.w3.org/2000/svg" xmlns:xlink="http://www.w3.org/1999/xlink" x="0px" y="0px"
	 viewBox="0 0 800 600" style="enable-background:new 0 0 800 600;" xml:space="preserve">
<style type="text/css">
	.st0{fill:#FCFCFC;}
	.st1{fill:none;stroke:#EFEFEF;stroke-width:3;stroke-linecap:round;stroke-linejoin:round;stroke-miterlimit:10;}
	.st2{fill:#F7F7F7;}
	.st3{fill:#EFEFEF;}
	.st4{fill:#FFFFFF;}
	.st5{fill:none;stroke:#E8E8E8;stroke-width:1.5;stroke-linecap:round;stroke-linejoin:round;stroke-miterlimit:10;}
	.st6{fill:none;stroke:#E8E8E8;stroke-width:3;stroke-linecap:round;stroke-linejoin:round;stroke-miterlimit:10;}
	.st7{fill:#775B44;}
	.st8{fill:#DE5B5D;}
	.st9{fill:#DDDDDD;}
	.st10{fill:#444444;}
	.st11{opacity:0.5;fill:#FFFFFF;}
	.st12{opacity:0.25;}
	.st13{opacity:0.25;fill:#FFFFFF;}
	.st14{opacity:0.15;fill:#FFFFFF;}
	.st15{fill:none;stroke:#333333;stroke-width:4;stroke-linecap:round;stroke-linejoin:round;stroke-miterlimit:10;}
	.st16{opacity:0.5;fill:none;stroke:#333333;stroke-width:2;stroke-linecap:round;stroke-linejoin:round;stroke-miterlimit:10;}
	.st17{fill:none;stroke:#333333;stroke-width:2;stroke-linecap:round;stroke-linejoin:round;stroke-miterlimit:10;}
	.st18{fill:#8DBF75;}
	.st19{opacity:0.1;}
</style>
<g id="window_1_">
	<g id="color_1_">
		<g id="XMLID_3_">
			<g>
				<polygon class="st0" points="534.1,324.4 534.1,335.2 314.1,335.2 314.1,324.4 318.4,324.4 421.9,324.4 426.2,324.4 
					529.8,324.4 				"/>
				<path class="st0" d="M529.8,108.7v215.7H426.2V108.7H529.8z M521.1,315.8v-96V117.3h-86.3v102.5v96H521.1z"/>
				<polygon class="st0" points="521.1,219.8 521.1,315.8 434.9,315.8 434.9,219.8 441.3,219.8 441.3,309.3 474.8,309.3 
					474.8,219.8 481.2,219.8 481.2,309.3 514.7,309.3 514.7,219.8 				"/>
				<path class="st0" d="M521.1,117.3v102.5h-6.5h-33.4h-6.5h-33.4h-6.5V117.3H521.1z M514.7,213.3v-89.5h-33.4v89.5H514.7z
					 M474.8,213.3v-89.5h-33.4v89.5H474.8z"/>
				<polygon class="st0" points="426.2,108.7 426.2,324.4 421.9,324.4 421.9,108.7 				"/>
				<path class="st0" d="M421.9,108.7v215.7H318.4V108.7H421.9z M413.3,315.8v-96V117.3H327v102.5v96H413.3z"/>
				<polygon class="st0" points="413.3,219.8 413.3,315.8 327,315.8 327,219.8 333.5,219.8 333.5,309.3 366.9,309.3 366.9,219.8 
					373.4,219.8 373.4,309.3 406.8,309.3 406.8,219.8 				"/>
				<path class="st0" d="M413.3,117.3v102.5h-6.5h-33.4h-6.5h-33.4H327V117.3H413.3z M406.8,213.3v-89.5h-33.4v89.5H406.8z
					 M366.9,213.3v-89.5h-33.4v89.5H366.9z"/>
			</g>
			<g>
			</g>
		</g>
	</g>
	<g id="lines_1_">
		<rect x="314.1" y="324.4" class="st1" width="220" height="10.8"/>
		<polyline class="st1" points="529.8,108.7 529.8,324.4 318.4,324.4 318.4,108.7 529.8,108.7 		"/>
		<line class="st1" x1="427.2" y1="108.7" x2="427.2" y2="324.4"/>
		<line class="st1" x1="420.9" y1="324.4" x2="420.9" y2="108.7"/>
		<rect x="327" y="117.3" class="st1" width="86.3" height="198.4"/>
		<line class="st1" x1="406.8" y1="213.3" x2="373.4" y2="213.3"/>
		<line class="st1" x1="366.9" y1="213.3" x2="333.5" y2="213.3"/>
		<line class="st1" x1="327" y1="219.8" x2="413.3" y2="219.8"/>
		<line class="st1" x1="366.9" y1="309.3" x2="366.9" y2="219.8"/>
		<line class="st1" x1="366.9" y1="213.3" x2="366.9" y2="123.8"/>
		<line class="st1" x1="373.4" y1="309.3" x2="373.4" y2="219.8"/>
		<line class="st1" x1="373.4" y1="213.3" x2="373.4" y2="123.8"/>
		<polyline class="st1" points="373.4,123.8 406.8,123.8 406.8,213.3 		"/>
		<polyline class="st1" points="333.5,213.3 333.5,123.8 366.9,123.8 		"/>
		<polyline class="st1" points="333.5,219.8 333.5,309.3 366.9,309.3 		"/>
		<polyline class="st1" points="406.8,219.8 406.8,309.3 373.4,309.3 		"/>
		<rect x="434.9" y="117.3" class="st1" width="86.3" height="198.4"/>
		<line class="st1" x1="514.7" y1="213.3" x2="481.2" y2="213.3"/>
		<line class="st1" x1="474.8" y1="213.3" x2="441.3" y2="213.3"/>
		<line class="st1" x1="434.9" y1="219.8" x2="521.1" y2="219.8"/>
		<line class="st1" x1="474.8" y1="309.3" x2="474.8" y2="219.8"/>
		<line class="st1" x1="474.8" y1="213.3" x2="474.8" y2="123.8"/>
		<line class="st1" x1="481.2" y1="309.3" x2="481.2" y2="219.8"/>
		<line class="st1" x1="481.2" y1="213.3" x2="481.2" y2="123.8"/>
		<polyline class="st1" points="481.2,123.8 514.7,123.8 514.7,213.3 		"/>
		<polyline class="st1" points="441.3,213.3 441.3,123.8 474.8,123.8 		"/>
		<polyline class="st1" points="441.3,219.8 441.3,309.3 474.8,309.3 		"/>
		<polyline class="st1" points="514.7,219.8 514.7,309.3 481.2,309.3 		"/>
	</g>
</g>
<g id="bush">
	<g id="color_4_">
		<g id="XMLID_31_">
			<g>
				<path class="st2" d="M644.5,402.9l0,0.1c-21.1,4.5-30.8,38-40.3,52.3h-4.3c2.9-6,4.6-13,5.7-20.7c1.5-4.1,3.3-7.7,5.4-10.9
					C619.7,410.2,632.8,404.2,644.5,402.9z"/>
				<polygon class="st2" points="630.9,455.4 630.9,464.3 627.9,464.3 562.2,464.3 559.2,464.3 559.2,455.4 587.2,455.4 
					591.9,455.4 595,455.4 599.9,455.4 604.2,455.4 				"/>
				<path class="st2" d="M630.8,353.9l0.1,0.1c-9.2,13.2-21.8,46.7-19.9,69.8h0c-2.1,3.2-3.9,6.8-5.4,10.9c1-7.4,1.4-15.4,1.7-24.1
					h0.2C609,386.1,622.4,364,630.8,353.9z"/>
				<polygon class="st2" points="627.9,464.3 621.3,503.8 568.7,503.8 562.2,464.3 				"/>
				<polygon class="st2" points="621.3,503.8 620.4,509.2 569.6,509.2 568.7,503.8 				"/>
				<path class="st2" d="M595,384.6c2.6-31.8,21-67.5,29.6-80.3c-17.1,39.1-16.4,76.2-17.3,106.3c-0.3,8.6-0.7,16.7-1.7,24.1
					c-1.1,7.7-2.8,14.7-5.7,20.7H595C596.3,444,597,415.7,595,384.6C595,384.7,595,384.7,595,384.6z"/>
				<path class="st2" d="M595,384.7c2,31,1.3,59.3,0,70.7h-3.1c-5.9-13.4-7.9-37.2-9.2-63.1c0,0,0-0.1,0-0.1
					c-2.1-41.4-2.1-88.4-12.1-108.2C585.8,303.9,592.5,346.4,595,384.7C595,384.7,595,384.7,595,384.7z"/>
				<path class="st2" d="M591.9,455.4h-4.7c-28-32.1-2-77-29-143.9c12.6,17.8,21.8,49.2,24.5,80.6c0,0,0,0.1,0,0.1
					C584,418.2,586.1,442,591.9,455.4z"/>
			</g>
			<g>
			</g>
		</g>
	</g>
	<g id="shadow_1_">
		<g>
			<rect x="562.7" y="464.4" class="st3" width="64.5" height="4.3"/>
			<path class="st3" d="M621.4,372.3l1.3-5.9c-6.7,8.2-14,29.1-15.3,40l-0.7,24.9l4.8-8.3C607.7,407.4,621.4,372.3,621.4,372.3z"/>
			<path class="st3" d="M591.7,455.5c-1.4-3.1-2.9-9.3-4.1-14.7C589.5,448.6,591.7,455.5,591.7,455.5h3.2c1.3-4.5,1.3-32.2,1.3-32.2
				c-2.6,18.6-10.3,7.2-11.3,0c-0.1,2.2,0.3,5.1,0.8,8.3c-2.9,13-10,1.5-12.5-18.4c-1.4,26.5,13.9,42.2,13.9,42.2H591.7z"/>
			<path class="st3" d="M599.3,455.5l4.8-0.1l9.9-18.4c-2.5,4.9-7.9,6-9.9,5l0,0c1.4-6.6,1.4-11.9,1.4-11.9
				c-0.8,8.7-8.4,12.3-9.2,7.5l-0.1,17.9H599.3z"/>
		</g>
		<g>
			<polygon class="st4" points="559.2,458.5 567.5,458.5 567.5,464 587.5,464.4 587.4,458.5 630.9,458.5 630.9,455.4 559.2,455.4 
							"/>
			<polygon class="st4" points="576.6,509.2 590.3,509.2 589.4,464.4 587.5,464.4 569.6,464.4 			"/>
			<path class="st4" d="M572.1,393.5l0.9,25.7c1.7-4.4,1.5-24.7,4.6-25.7c2.8-0.9,5.5,10.2,5.5,10.2l-2.1-25.5
				c-5.6,21.1-9.6-7.4-10.7-16.8l1.6,20L572.1,393.5z"/>
			<path class="st4" d="M591.7,346.9c-7.8-48.3-21.3-63.3-21.3-63.3c11,20.1,12.7,112.3,12.7,112.3
				C588.5,365.9,583.9,333,591.7,346.9z"/>
			<path class="st4" d="M619.9,313.2c-5,5.4-29,55.5-24.4,80.4S593.6,366.8,619.9,313.2z"/>
			<path class="st4" d="M605.6,439.2c2-5.6,15.6-30,21.4-24l12.8-11.5C639.9,403.7,609.4,410.4,605.6,439.2z"/>
		</g>
	</g>
	<g id="lines_8_">
		<g>
			<path class="st5" d="M558.2,311.5c29,52.9,9.7,112.3,31.5,143.9"/>
			<path class="st5" d="M644.5,403.1c-30.9,9.3-27.3,26.1-43.5,52.3"/>
			<path class="st5" d="M593.5,455.4c-3.2-16.3-3.9-136.9-20.8-168.5"/>
			<path class="st5" d="M597.5,455.4c14.7-46.9-7-81.5,25.1-147.9"/>
			<path class="st5" d="M592.2,441.7c-0.4-6.7,4.1-20.8,4.1-20.8"/>
			<path class="st5" d="M591.2,424.7c-0.5-9-7.5-15.7-7.5-15.7"/>
			<path class="st5" d="M590.3,409c-0.3-5.4,5.1-16.8,5.1-16.8"/>
			<path class="st5" d="M589.4,393.5c-0.4-6.6-7.3-15.1-7.3-15.1"/>
			<path class="st5" d="M588.2,375.8c-0.5-6.9,4.7-15.2,4.7-15.2"/>
			<path class="st5" d="M586.9,360.6c-0.6-6.1-6-9.6-6-9.6"/>
			<path class="st5" d="M592.6,447.5c-0.4-4.7-6.1-12.8-6.1-12.8"/>
			<path class="st5" d="M585.7,348.3c-0.8-5.9,2.7-16.5,2.7-16.5"/>
			<path class="st5" d="M583.7,330.6c-0.8-4.3-4.9-9.3-4.9-9.3"/>
			<path class="st5" d="M582.3,439.2c-1.6-6.6,2.6-17.1,2.6-17.1"/>
			<path class="st5" d="M580,429.2c-0.9-6.3-6.9-11.8-6.9-11.8"/>
			<path class="st5" d="M584.9,446.5c-1.6-4.3-6.6-5.5-6.6-5.5"/>
			<path class="st5" d="M577.9,411.4c-0.3-3.9,4.2-14.2,5-15.5"/>
			<path class="st5" d="M577,396.7c-0.3-5.4-4.8-9.4-4.8-9.4"/>
			<path class="st5" d="M575.9,379.9c-0.3-4.1,3.5-11.7,3.5-11.7"/>
			<path class="st5" d="M574.5,366.4c-0.5-4.1-4.2-7-4.2-7"/>
			<path class="st5" d="M573.1,356.5c-0.7-4.1,1.4-8.2,1.4-8.2"/>
			<path class="st5" d="M599.7,447.5c1.1-5.2-3.5-14.8-3.5-14.8"/>
			<path class="st5" d="M601.8,436c0.5-4.1,4.7-10.2,4.7-10.2"/>
			<path class="st5" d="M603.1,423.4c0.2-4.4-5-13.2-6.9-14.3"/>
			<path class="st5" d="M603.4,411.4c0-3.9,4-10.8,4-10.8"/>
			<path class="st5" d="M603.4,399.9c0.1-5-6.4-15.1-8.3-16.4"/>
			<path class="st5" d="M603.4,388.1c0.3-5,5-11.4,5-11.4"/>
			<path class="st5" d="M604,376.7c0.4-5-2.6-13.4-4.7-15.3"/>
			<path class="st5" d="M605.2,364.6c0.4-3,4.2-8.7,5.4-8.8"/>
			<path class="st5" d="M607.1,352.4c0.6-2.7,0.2-10.3-1.2-11"/>
			<path class="st5" d="M610.5,338.6c0.5-1.8,3.8-3.4,3.8-3.4"/>
			<path class="st5" d="M604.9,448.5c0.9-1.8,5.6-4.7,5.6-4.7"/>
			<path class="st5" d="M608.6,441.1c1-2.3,1.5-11.5,0-13.3"/>
			<path class="st5" d="M612.4,432.7c1.1-2.5,5.9-5.2,6.5-5.3"/>
			<path class="st5" d="M617,423.4c0.8-1.4,1.1-8.2,1.1-8.2"/>
			<path class="st5" d="M621.4,416.9c1.2-1.3,6.5-2.7,6.5-2.7"/>
		</g>
		<path class="st6" d="M595,455.4c2.9-26.1,3.1-141.2-26.7-174.3"/>
		<path class="st6" d="M570.6,283.9c16.3,32.2,6.2,136.6,21.4,171.5"/>
		<path class="st6" d="M599.9,455.4c15.3-31.7-2.5-88.9,24.7-151.1"/>
		<path class="st6" d="M558.2,311.5c27,66.9,1,111.8,29,143.9"/>
		<path class="st6" d="M604.2,455.4c9.5-14.3,19.3-47.8,40.3-52.3"/>
		<path class="st6" d="M654.7,403.1c-15.9-2.2-39.2,4.9-49.1,31.6"/>
		<path class="st6" d="M630.9,354c-9.2,13.2-21.8,46.7-19.9,69.8"/>
		<line class="st6" x1="560.7" y1="509.2" x2="624.9" y2="509.2"/>
		<rect x="559.2" y="455.4" class="st6" width="71.7" height="9"/>
		<line class="st6" x1="627.9" y1="464.4" x2="620.4" y2="509.2"/>
		<line class="st6" x1="562.2" y1="464.4" x2="569.6" y2="509.2"/>
		<path class="st6" d="M595,384.7c3-36.9,27.2-79.1,32.9-84.7"/>
		<path class="st6" d="M582.7,392.3c-3-34-13.4-68-27.6-84.8"/>
		<path class="st6" d="M634.5,349.9c-7.3,6.9-25.2,32.1-27,60.7"/>
		<line class="st6" x1="635.8" y1="509.2" x2="631.4" y2="509.2"/>
		<line class="st5" x1="568.7" y1="503.8" x2="621.3" y2="503.8"/>
	</g>
</g>
<g id="table_1_">
	<g id="color">
		<g>
			<g id="XMLID_4_">
				<g>
					<polygon class="st7" points="583.4,396 583.4,406 515.6,406 500.4,406 346.4,406 331.2,406 263.4,406 263.4,396 					"/>
					<path class="st8" d="M544.7,377v2c0,0.1,0,0.3,0,0.4c-0.1,4.4-2.1,8.3-5.2,10.9c-0.7,0.6-1.5,1.2-2.3,1.6v2h-15v-2
						c-4.5-2.6-7.5-7.4-7.5-13v-2H544.7z"/>
					<path class="st7" d="M521.9,509.4H510c0,0-27.1-47.9-27.6-61.7v-0.6c0.2-8,9.1-25.4,17.9-41.1h15.2
						c-7.7,16.1-15.8,34.7-15.8,41.4C499.8,459.6,516.9,500.1,521.9,509.4z"/>
					<path class="st9" d="M503.9,387.9v3.4c0,0-1.5,4.6-14.9,4.6H358.8c-13.4,0-14.9-4.6-14.9-4.6v-3.4h12.4h136H503.9z"/>
					<path class="st9" d="M492.3,302.2v85.8h-136v-85.8c0-2.4,1.9-4.2,4.2-4.2H488C490.4,297.9,492.3,299.8,492.3,302.2z
						 M484.3,379.9v-74h-120v74H484.3z"/>
					<rect x="364.3" y="305.9" class="st10" width="120" height="74"/>
					<path class="st7" d="M482.5,447.7v3.6H364.3v-4v-6h118.2v5.8c0,0.1,0,0.2,0,0.3C482.5,447.5,482.5,447.6,482.5,447.7z"/>
					<polygon class="st9" points="458,436.2 458,441.2 394,441.2 394,436.2 452,436.2 					"/>
					<path class="st9" d="M455.9,426.3l-0.2,4.7l-3.7-0.2l-60.2-3.1l0.2-4c0,0,0.1,0,0.1,0c2.1,0.1,27.8,1.6,46.1,2.3
						c0.1,0,0.2,0,0.3,0C447,426.4,453.9,426.5,455.9,426.3z"/>
					<path class="st9" d="M452,430.9l0,0.3c0,0-8.7,0-19.6,0v0c0,0-26.7-0.9-36.9-1.5c-8.8-0.5-7.7-9.8-3.3-9.3
						c2.3,0.2,2.9,3.4,0,3.4c0,0-0.1,0-0.1,0l-0.2,4L452,430.9z"/>
					<path class="st9" d="M452,431.2v5h-58h-6v-5.4c1.5,0.4,26.1,0.4,44.4,0.4C443.3,431.2,452,431.2,452,431.2z"/>
					<path class="st7" d="M346.4,406c8.9,15.9,17.9,33.4,17.9,41.4c0,13.4-27.6,62-27.6,62H325c4.9-9.4,22-49.8,22-62
						c0-6.7-8.1-25.3-15.8-41.4H346.4z"/>
				</g>
				<g>
				</g>
			</g>
		</g>
	</g>
	<g id="shadows_1_">
		<rect x="514.7" y="377" class="st11" width="29.8" height="4.4"/>
		<rect x="356.3" y="297" class="st4" width="136" height="5.2"/>
		<rect x="488.2" y="299.6" class="st4" width="4.1" height="87.4"/>
		<polygon class="st12" points="484.3,305.9 483.8,305.9 483.8,305.9 481,305.9 481,305.9 365.5,305.9 365.5,309.3 481,309.3 
			481,379.2 483.8,379.2 483.8,309.3 484.3,309.3 		"/>
		<rect x="343.4" y="388.5" class="st4" width="160" height="3.4"/>
		<rect x="332.5" y="407.2" class="st12" width="16" height="6"/>
		<rect x="498" y="406.9" class="st12" width="16" height="6"/>
		<rect x="263.4" y="396.5" class="st13" width="321.2" height="3.9"/>
		<rect x="388" y="430.8" class="st12" width="64" height="5.4"/>
		<rect x="364.3" y="440.5" class="st13" width="118.2" height="5.2"/>
		<path class="st12" d="M330.8,493.8c1.5,8.2,13.7,3.2,21.1-13.1c-8.6,19.1-15.1,28.7-15.1,28.7H325L330.8,493.8z"/>
		<path class="st12" d="M516.1,493.8c-1.5,8.2-13.7,3.2-21.1-13.1c8.6,19.1,15.1,28.7,15.1,28.7h11.8L516.1,493.8z"/>
		<polygon class="st14" points="406.5,309.3 363.8,352 363.8,363 417.5,309.3 		"/>
		<polygon class="st14" points="364.3,370.7 425.9,309.1 471.3,309.1 399.3,381.1 364.3,381.1 		"/>
	</g>
	<g id="lines">
		<g>
			<path class="st15" d="M356.3,387.9v-85.8c0-2.3,1.9-4.2,4.2-4.2H488c2.3,0,4.2,1.9,4.2,4.2v85.8"/>
			<rect x="364.3" y="305.9" class="st15" width="120" height="74"/>
			<path class="st15" d="M358.8,395.9c-13.4,0-14.9-4.6-14.9-4.6v-3.4h160v3.4c0,0-1.5,4.6-14.9,4.6H358.8"/>
		</g>
		<g>
			<rect x="263.4" y="396" class="st15" width="320" height="10"/>
			<path class="st15" d="M515.6,406c-7.7,16.1-15.8,34.7-15.8,41.4c0,12.2,17.1,52.7,22.1,62"/>
			<path class="st15" d="M500.4,406c-8.9,15.9-17.9,33.4-17.9,41.4c0,13.4,27.6,62,27.6,62"/>
			<rect x="364.3" y="441.4" class="st15" width="118.2" height="10"/>
			<path class="st15" d="M331.2,406c7.7,16.1,15.8,34.7,15.8,41.4c0,12.2-17.1,52.7-22,62"/>
			<path class="st15" d="M346.4,406c8.9,15.9,17.9,33.4,17.9,41.4c0,13.4-27.6,62-27.6,62"/>
			<line class="st15" x1="263.9" y1="509.4" x2="602.9" y2="509.4"/>
		</g>
		<g>
			<path class="st16" d="M538.2,352.4c0,0.2,0,0.4,0,0.6c0,4-2.8,7.4-6.5,8.4"/>
			<path class="st16" d="M533.3,345.1c-1.1-0.6-2.4-0.9-3.8-0.9"/>
			<path class="st16" d="M536.7,348.1c0,0-0.1-0.1-0.1-0.1"/>
			<path class="st16" d="M525,365.9c-0.5,0.7-0.8,1.5-0.8,2.4c0,1.6,0.9,3,2.3,3.6"/>
			<path class="st15" d="M544.7,379c0,5.6-3,10.4-7.5,13v2h-15v-2c-4.5-2.6-7.5-7.4-7.5-13h0v-2h30L544.7,379L544.7,379z"/>
			<path class="st15" d="M539.5,390.3c5.2,0,10-3,10-6.8c0-2.3-1.8-4.1-4.1-4.1c-0.2,0-0.5,0-0.7,0.1"/>
		</g>
		<g>
			<rect x="394" y="436.2" class="st17" width="64" height="5"/>
			<path class="st17" d="M452,431.2c0,0-61.5,0.2-64-0.4v5.4h64V431.2z"/>
			<path class="st17" d="M455.9,426.3c-6.7,0.8-63.9-2.5-63.9-2.5l-0.2,4l63.9,3.3L455.9,426.3z"/>
			<path class="st17" d="M392,423.8c3.1,0.2,2.5-3.1,0.2-3.4c-4.4-0.4-5.5,8.9,3.3,9.3c10.3,0.5,36.9,1.5,36.9,1.5"/>
			<path class="st17" d="M454.7,424.4c-2.2,0.9-10.1,2-16.4,1.7"/>
		</g>
		<line class="st17" x1="577.2" y1="401.7" x2="583.4" y2="401.7"/>
	</g>
</g>
<g id="bean_bag">
	<g id="beanbag_color">
		<g>
			<g id="XMLID_1_">
				<g>
					<path class="st18" d="M341.8,477.2c0-1.4-0.2-2.8-0.4-4.2c-0.3-2.2-0.7-4.4-1.3-6.6c-6.3-23.3-28.8-44.7-53.8-57.1
						c-8.9-4.4-16.1-9.5-22.3-14.9c-2.6-2.3-4.9-4.6-7.1-6.9c-9.2-9.8-15.6-20.1-21.9-29.1c-1.2-1.8-2.4-3.5-3.7-5.2
						c-4.9-6.8-10.1-12.5-16.5-16.2v0c6-2.6,13.5-4.4,21-3.1c14.5,2.5,38,33.5,61,58c23,24.5,82.5,39.5,79,73.9
						c-2.6,19.9-12,34.2-25.1,43.9h-20.3C338.9,499,342.3,488.1,341.8,477.2z"/>
					<path class="st18" d="M341.8,477.2c0.5,10.8-2.9,21.8-11.4,32.3h-10.2h-82.8H231h-10.2c-35-25.2-22-115.3-20-128
						c0.1-0.9,0.2-1.8,0.2-2.7c0,0,0,0,0,0c0.1-2-0.1-4-0.3-6c-1.3-10.4-5.5-21.1,2.1-28.4c1.9-1.9,6.4-5,12-7.5v0
						c6.5,3.7,11.6,9.4,16.5,16.2c1.2,1.7,2.5,3.4,3.7,5.2c6.2,9.1,12.7,19.4,21.9,29.1c2.2,2.4,4.6,4.7,7.1,6.9
						c6.2,5.4,13.5,10.5,22.3,14.9c24.9,12.4,47.5,33.8,53.8,57.1c0.6,2.2,1,4.4,1.3,6.6C341.7,474.4,341.8,475.8,341.8,477.2z"/>
				</g>
				<g>
				</g>
			</g>
		</g>
	</g>
	<g id="shadows">
		<path class="st19" d="M198.4,356.9c9.1,20.1,19.9,36,40.3,29.8c-77,114.7,113.2,139,136.6,75.4c5.3,23.9-23.2,47.5-23.2,47.5
			H218.4c0,0-32.3-27.4-20.3-113.5C202,371.5,198.4,356.9,198.4,356.9z"/>
		<path class="st19" d="M201,376.5c5,8,17.6,18,37.6,10.1c-9.5,15.3-30.6,15.4-40.6,9.4C199.7,389.2,201,376.5,201,376.5z"/>
		<path class="st13" d="M198,353.1c4.7-8.7,30-20.4,47.5-8.1c14,10,48.7,69.3,104.4,82.4c-38.1-19.3-75.3-58.1-83.3-69.1
			c-16.4-16.2-31.3-34.4-54.2-20.3C202.8,344.4,199.1,347.5,198,353.1z"/>
		<path class="st13" d="M229.5,352.5c7.8,16.1,22.2,35.7,33.1,46c10.9,10.3,56.8,25.9,75.1,63.5c-12.7-32.4-41.2-45.2-46.6-48.9
			c-5.4-3.7-26.4-12.5-38.6-29.5S229.5,352.5,229.5,352.5z"/>
		<path class="st19" d="M196.8,436.2c3.2,33.6,11.3,49.8,15.7,31.4c1.8,11.6,12,21.5,14.5,13.4c8.1,19.8,89,27.7,100.8,15.3
			c0.8,2.5,6.3,5.3,11.8-3.4c-0.4,8.4,21.8,8.3,29.2-4.5c-10.2,16.9-16.9,21.1-16.9,21.1H220.8C220.8,509.5,197.3,498,196.8,436.2z"
			/>
		
			<ellipse transform="matrix(0.5362 -0.8441 0.8441 0.5362 -204.5186 493.7043)" class="st13" cx="347" cy="433" rx="2.6" ry="6.4"/>
		
			<ellipse transform="matrix(0.5362 -0.8441 0.8441 0.5362 -205.2538 481.2794)" class="st13" cx="335.3" cy="427.4" rx="1.7" ry="4"/>
	</g>
	<g id="beanbag">
		<g>
			<path class="st15" d="M220.8,509.5h129.9c13.1-9.7,22.5-24,25.1-43.9c3.5-34.4-56-49.5-79-73.9c-23-24.4-46.5-55.4-61-57.9
				s-29,6.7-33,10.6c-9.7,9.5,0,24.4-2,37.2C198.8,394.3,185.8,484.3,220.8,509.5z"/>
			<path class="st17" d="M214.8,336.9c22.9,13.1,28.5,51.1,71.5,72.4c40.1,19.9,74.1,63.2,44.1,100.2"/>
			<line class="st17" x1="229.2" y1="354.5" x2="233.7" y2="351.6"/>
			<line class="st17" x1="232.4" y1="359.8" x2="237.7" y2="356.9"/>
			<line class="st17" x1="263.3" y1="397.7" x2="264.8" y2="390.7"/>
			<line class="st17" x1="260.7" y1="386.7" x2="254.2" y2="388"/>
			<line class="st17" x1="339.3" y1="477.2" x2="345.5" y2="477.2"/>
			<line class="st17" x1="337.9" y1="473" x2="345.5" y2="473"/>
			<line class="st17" x1="336.5" y1="467.6" x2="344.3" y2="465"/>
			<path class="st17" d="M212.5,467.6c0,15.4,11.5,36.9,18.5,41.9"/>
			<path class="st17" d="M227,481c0,9.2,6,27.1,10.3,28.5"/>
			<path class="st17" d="M327.8,496.3c-1.7,6-5,11.1-7.7,13.2"/>
			<path class="st17" d="M200.7,372.8c3.1,9.3,9.3,12.9,14.8,15.2"/>
			<path class="st17" d="M201,378.8c0.6,5.8,2.9,10.3,7.1,11.8"/>
			<line class="st15" x1="220.8" y1="509.5" x2="200.8" y2="509.5"/>
			<line class="st15" x1="193.8" y1="509.5" x2="189.8" y2="509.5"/>
		</g>
		<line class="st17" x1="213" y1="461.3" x2="213.3" y2="457"/>
	</g>
</g>
</svg>
